<?xml version="1.0" encoding="UTF-8"?>
<svg id="bag" xmlns="http://www.w3.org/2000/svg" viewBox="0 0 1086.41 966.73">
  <defs>
    <style>
      .cls-1 {
        fill: #3b9928;
      }

      .cls-2 {
        stroke-miterlimit: 10;
      }

      .cls-2, .cls-3 {
        fill: none;
        stroke: #000;
      }

      .cls-4 {
        fill: #13280d;
      }

      .cls-3 {
        stroke-linecap: round;
        stroke-linejoin: round;
      }

      .cls-5 {
        fill: #bad6dd;
      }

      .cls-6 {
        fill: #327f20;
      }
    </style>
  </defs>
  <g>
    <g>
      <path class="cls-1" d="m902.4,945.22c-1.91,2.63-4.16,5.05-6.8,7.24-13.2,10.94-31.82,11.66-48.97,11.85-55.24.63-110.48,1.25-165.72,1.88-28.62.33-60.64-.68-80.8-20.9-.13-.12-.25-.25-.37-.37-18.64-19.05-20.47-48.42-21.04-75.07-2.72-126.53-5.97-257.07-1.58-383.56h.41c2.24-4.7,6.87-7.77,11.47-10.2,20.9-11.05,45.07-13.81,68.61-15.96,41.96-3.84,84.03-6.34,126.15-7.49,22.27-.61,44.62-.84,66.78,1.49,20.4,2.15,43.03,8.18,53.09,26.05,5.91,10.49,6.25,23.11,6.26,35.15.11,120.27-17.38,241.22-.7,360.33,3.3,23.59,6.48,51.34-6.79,69.56Zm-113.22-156.92c.41-17.82.33-35.33-.02-53.34.01.32.35,1.83.42,1.98,0-.06-.11-.59-.42-2.02-16.54,12.87-35.54-5.13-43.74-20.24-5.34-9.58-9.12-22.75-1.52-32.23-18.81,1.07-37.72.34-56.39-2.18l-.47.04c2.58,45.48,2.58,90.48-.42,135.48,32,9,67,6,100-3,2-1,1-5,2-7,.25-5.88.43-11.7.56-17.49Z"/>
      <path class="cls-4" d="m147.12,349.29c-15.72-7.31-30.61-20.63-26.54-37.48,1.24-5.12,4.56-9.52,8.43-13.09,12.58-11.63,30.41-15.35,47.38-17.63,23.12-3.11,46.44-4.43,69.73-5.74,207.12-11.65,415.31-23.29,621.63-1.66,18.75,1.97,37.73,4.27,55.23,11.28s47.14,20.32,41.27,36.58c-10.31,14.8-6.17,10.78-36.73,25.55-.3-.11-.6-.21-.9-.31-39-13-79-10-119-8-86,2-171,1-257,1-103-1-207-8-310-7-31.41,0-64.12,2.59-93.42,16.67l-.08-.17Z"/>
      <path class="cls-1" d="m176.23,490.04l.14.06c-4.39,126.49-5.23,253.1-2.52,379.63.5,22.93,1.92,47.88,14.2,66.53-40.28-13.28-74.44-61.49-87.43-100.47-3.6-10.29-5.88-20.84-7.37-31.52-1.42-10.09-2.14-20.28-2.63-30.48-1-24,1-47,4-71,3-33,5-65,4-98,0-42-5-83-3-125,1-39,1-79,26-113,2-1,3-3,5-5,6.62-4.87,13.5-8.94,20.58-12.33,29.3-14.08,62.01-16.67,93.42-16.67,103-1,207,6,310,7,86,0,171,1,257-1,40-2,80-5,119,8,.3.1.6.2.9.31,20.59,7.04,37.27,18.96,49.1,37.69,1,1,0,3,1,4,3,4,5,8,7,13,7,19,10,40,9,60-1.99,121.44-.02,242.89-8.88,364.33-.04.56-.08,1.11-.12,1.67-2,30-10,61-31,85-11.94,12.93-33.64,28.13-51.22,32.43,13.27-18.22,10.09-45.97,6.79-69.56-16.68-119.11.81-240.06.7-360.33-.01-12.04-.35-24.66-6.26-35.15-10.06-17.87-32.69-23.9-53.09-26.05-22.16-2.33-44.51-2.1-66.78-1.49-42.12,1.15-84.19,3.65-126.15,7.49-23.54,2.15-47.71,4.91-68.61,15.96-4.6,2.43-9.23,5.5-11.47,10.2h-.41c-4.39,126.49-1.14,257.03,1.58,383.56.57,26.65,2.4,56.02,21.04,75.07.12.12.24.25.37.37-27.37-4.52-74.28-2.38-101.98-1,12.6-18.23,9.47-45.5,6.21-68.75-3.83-27.34-5.86-54.76-6.71-82.26-2.86-92.33,7.5-185.41,7.41-278.08-.01-12.04-.35-24.66-6.25-35.15-10.07-17.87-32.7-23.9-53.09-26.04-22.17-2.34-44.51-2.1-66.79-1.49-42.11,1.15-84.19,3.65-126.15,7.48-23.54,2.15-47.7,4.92-68.61,15.97-4.52,2.39-5.75,9.37-7.92,14.07Z"/>
      <path class="cls-1" d="m72.21,238.53c14.68-10.76,35.76-13.71,54.72-15.07,14.85-1.07,29.72-1.94,44.59-2.66,55.09-2.68,110.29-3.27,165.46-3.86,135.9-1.45,271.79-2.91,407.69-4.36,52.47-.56,104.98-1.13,157.37,1.67.15,0,.3,0,.45.02,20.44,1.1,41.25,2.8,60.19,10.58,14.32,5.88,26.93,15.06,37.62,26.26,10.36,10.84,18.91,23.58,25.47,37.06,13.33,27.4,19.16,57.82,22.82,88.07,2.18,18,3.64,36.03,4.5,54.1,3.66,75.46-2.85,151.42-9.36,226.86-2.56,29.55-5.11,59.1-7.66,88.65-1.48,17.11-3.06,34.63-10.33,50.19-7.26,15.56-21.5,28.84-38.62,30.25l-2.38-.17c8.86-121.44,6.89-242.89,8.88-364.33,1-20-2-41-9-60-2-5-4-9-7-13-1-1,0-3-1-4-11.83-18.73-28.51-30.65-49.1-37.69,30.56-14.77,26.42-10.75,36.73-25.55,5.87-16.26-23.77-29.57-41.27-36.58s-36.48-9.31-55.23-11.28c-206.32-21.63-414.51-9.99-621.63,1.66-23.29,1.31-46.61,2.63-69.73,5.74-16.97,2.28-34.8,6-47.38,17.63-3.87,3.57-7.19,7.97-8.43,13.09-4.07,16.85,10.82,30.17,26.54,37.48l.08.17c-7.08,3.39-13.96,7.46-20.58,12.33-2,2-3,4-5,5-25,34-25,74-26,113-2,42,3,83,3,125,1,33-1,65-4,98-3,24-5,47-4,71,.49,10.2,1.21,20.39,2.63,30.48l-.13.02c-18.94-2.09-32.11-28.88-33.31-47.9-6.5-102.62-9.79-205.45-9.84-308.28-.04-52.48.77-104.97,2.43-157.43.43-13.63,1.11-27.94,8.18-39.6,3.08-5.07,7.04-9.2,11.63-12.55Z"/>
      <path class="cls-5" d="m686.62,815.79c3-45,3-90,.42-135.48l.47-.04c18.67,2.52,37.58,3.25,56.39,2.18-7.6,9.48-3.82,22.65,1.52,32.23,8.2,15.11,27.2,33.11,43.74,20.24v.03h0c.35,18.02.43,35.53.02,53.35-.13,5.79-.31,11.61-.56,17.49-1,2,0,6-2,7-33,9-68,12-100,3Z"/>
      <path class="cls-1" d="m1062.04,218.4c16.22,62.84,24.26,127.8,23.85,192.7-.05,7.48-.41,15.54-5,21.45-4.59,5.9-22.7,4.02-26.77-2.26l-1.03.05c-.86-18.07-2.32-36.1-4.5-54.1-3.66-30.25-9.49-60.67-22.82-88.07-6.56-13.48-15.11-26.22-25.47-37.06,16.89-17.03,17.41-53.09,4.07-73.01-13.4-19.98-35.28-32.4-56.79-43.18-244.1-122.26-544.46-118.77-791.31-2.16-22.1,10.44-44.26,22.06-61.08,39.79-16.65,17.55-27.44,42.25-22.98,65.98-4.59,3.35-8.55,7.48-11.63,12.55-7.07,11.66-7.75,25.97-8.18,39.6-1.66,52.46-2.47,104.95-2.43,157.43-24.97-28.06-44.87-65.77-48.28-103.16-3.42-37.46,1.14-75.15,5.7-112.49,2.17-17.77,4.48-36.02,12.94-51.8,10.51-19.61,29.32-33.24,48.1-45.19C168.78,71.6,284.79,36.47,401.28,12.4c36.56-7.55,77.56-9.2,114.84-11.11,96.71-4.95,195.66,13.82,288,43,68.24,21.56,128.81,47.73,190.63,83.79,16.44,9.59,32.72,20.35,44.23,35.51,12.07,15.89,18.07,35.49,23.06,54.81Z"/>
      <path class="cls-6" d="m1004.37,178.1c13.34,19.92,12.82,55.98-4.07,73.01-10.69-11.2-23.3-20.38-37.62-26.26-18.94-7.78-39.75-9.48-60.19-10.58-.15-.01-.3-.02-.45-.02-235.97-123.96-467.15-128.37-670.63-40-9.24,4.02-35.01,15.91-59.89,46.55-14.87.72-29.74,1.59-44.59,2.66-18.96,1.36-40.04,4.31-54.72,15.07-4.46-23.73,6.33-48.43,22.98-65.98,16.82-17.73,38.98-29.35,61.08-39.79,246.85-116.61,547.21-120.1,791.31,2.16,21.51,10.78,43.39,23.2,56.79,43.18Z"/>
      <path class="cls-1" d="m296.81,729.52c-.15,23.17-1.27,45.57-1.6,67.99-.01-.07-.04-.14-.09-.22-.01.07-.02.28-.02.61-.02,1.4,0,4.94.02,8.86v.1c.04,5.96.1,12.76.1,14.27v.26c.66-.02,1.29-.07,1.87-.14,31.76-2.39,63.16-.56,95.53-5.46,2-1,2-3,2-4-2-43-2-86-5-129-5-4-12-4-18.49-2.31-9.4.99-18.8,1.99-28.2,2.98,1.32,7.25,2.65,14.66,2.1,22.06-1.76,23.57-28.31,38-48.22,24Zm-108.76,206.74c-12.28-18.65-13.7-43.6-14.2-66.53-2.71-126.53-1.87-253.14,2.52-379.63l-.14-.06c2.17-4.7,3.4-11.68,7.92-14.07,20.91-11.05,45.07-13.82,68.61-15.97,41.96-3.83,84.04-6.33,126.15-7.48,22.28-.61,44.62-.85,66.79,1.49,20.39,2.14,43.02,8.17,53.09,26.04,5.9,10.49,6.24,23.11,6.25,35.15.09,92.67-10.27,185.75-7.41,278.08.85,27.5,2.88,54.92,6.71,82.26,3.26,23.25,6.39,50.52-6.21,68.75h-.01c-2.02,2.94-4.46,5.64-7.37,8.05-13.2,10.94-31.82,11.65-48.96,11.84-55.24.63-110.49,1.26-165.73,1.88-28.79.33-61.02-.69-81.16-21.27-2.6-2.65-4.87-5.51-6.85-8.53Z"/>
      <path class="cls-5" d="m297.09,821.25c-.62.04-1.25.09-1.87.14v-.26c0-1.51-.06-8.31-.1-14.27v-.1c.01-3.01.04-6.03.09-9.04.03-.06.03-.13,0-.21.33-22.42,1.45-44.82,1.6-67.99,19.91,14,46.46-.43,48.22-24,.55-7.4-.78-14.81-2.1-22.06,9.4-.99,18.8-1.99,28.2-2.98,6.49-1.69,13.49-1.69,18.49,2.31,3,43,3,86,5,129,0,1,0,3-2,4-32.37,4.9-63.77,3.07-95.53,5.46Z"/>
      <path class="cls-5" d="m295.21,797.51c.03.08.03.15,0,.21-.01-.07-.01-.14,0-.21Z"/>
      <path class="cls-1" d="m295.21,797.51c-.01.07-.01.14,0,.21-.01.07-.05.13-.11.18,0-.33.01-.54.02-.61.05.08.08.15.09.22Z"/>
      <path class="cls-1" d="m295.1,797.9c.06-.05.1-.11.11-.18-.05,3.01-.08,6.03-.09,9.04-.02-3.92-.04-7.46-.02-8.86Z"/>
    </g>
    <g>
      <path class="cls-2" d="m498.13,944.29c12.6-18.23,9.47-45.5,6.21-68.75-3.83-27.34-5.86-54.76-6.71-82.26-2.86-92.33,7.5-185.41,7.41-278.08-.01-12.04-.35-24.66-6.25-35.15-10.07-17.87-32.7-23.9-53.09-26.04-22.17-2.34-44.51-2.1-66.79-1.49-42.11,1.15-84.19,3.65-126.15,7.48-23.54,2.15-47.7,4.92-68.61,15.97-4.52,2.39-5.75,9.37-7.92,14.07-.03.08-.07.17-.11.25"/>
      <path class="cls-2" d="m176.37,490.1c-4.39,126.49-5.23,253.1-2.52,379.63.5,22.93,1.92,47.88,14.2,66.53,1.98,3.02,4.25,5.88,6.85,8.53,20.14,20.58,52.37,21.6,81.16,21.27,55.24-.62,110.49-1.25,165.73-1.88,17.14-.19,35.76-.9,48.96-11.84,2.91-2.41,5.35-5.11,7.37-8.05"/>
      <path class="cls-2" d="m295.12,806.76c.01-3.01.04-6.03.09-9.04-.01-.07-.01-.14,0-.21.33-22.42,1.45-44.82,1.6-67.99v-.18"/>
      <path class="cls-2" d="m295.11,810c0-1.05,0-2.1.01-3.14"/>
      <path class="cls-2" d="m295.22,821.13c-.02-1.04-.03-2.09-.05-3.12"/>
      <path class="cls-2" d="m300.66,820.46c-.98.35-2.16.63-3.57.79-.58.07-1.21.12-1.87.14"/>
      <path class="cls-2" d="m296.15,729.05c.22.16.44.32.66.47,19.91,14,46.46-.43,48.22-24,.55-7.4-.78-14.81-2.1-22.06,9.4-.99,18.8-1.99,28.2-2.98,6.49-1.69,13.49-1.69,18.49,2.31,3,43,3,86,5,129,0,1,0,3-2,4-32.37,4.9-63.77,3.07-95.53,5.46-.62.04-1.25.09-1.87.14v-.26c0-1.51-.06-8.31-.1-14.27v-.1c-.02-3.92-.04-7.46-.02-8.86,0-.33.01-.54.02-.61"/>
      <path class="cls-2" d="m175.87,788.45c36.07,2.95,72.14,5.9,108.22,8.84,2.11.17,9.91,1.63,11.01.61.06-.05.1-.11.11-.18.03-.06.03-.13,0-.21-.01-.07-.04-.14-.09-.22"/>
      <path class="cls-2" d="m395.12,794.29c30.63.94,71.77-1.91,102.51-1.01.17,0,.33,0,.49.01"/>
      <path class="cls-2" d="m577.12,486.29c-4.39,126.49-1.14,257.03,1.58,383.56.57,26.65,2.4,56.02,21.04,75.07.12.12.24.25.37.37,20.16,20.22,52.18,21.23,80.8,20.9,55.24-.63,110.48-1.25,165.72-1.88,17.15-.19,35.77-.91,48.97-11.85,2.64-2.19,4.89-4.61,6.8-7.24,13.27-18.22,10.09-45.97,6.79-69.56-16.68-119.11.81-240.06.7-360.33-.01-12.04-.35-24.66-6.26-35.15-10.06-17.87-32.69-23.9-53.09-26.05-22.16-2.33-44.51-2.1-66.78-1.49-42.12,1.15-84.19,3.65-126.15,7.49-23.54,2.15-47.71,4.91-68.61,15.96-4.6,2.43-9.23,5.5-11.47,10.2"/>
      <path class="cls-2" d="m789.16,734.92v.03h0c.35,18.02.43,35.53.02,53.35-.13,5.79-.31,11.61-.56,17.49-1,2,0,6-2,7-33,9-68,12-100,3,3-45,3-90,.42-135.48"/>
      <path class="cls-2" d="m789.58,736.94c-.07-.15-.41-1.66-.42-1.98"/>
      <path class="cls-2" d="m687.51,680.27c18.67,2.52,37.58,3.25,56.39,2.18-7.6,9.48-3.82,22.65,1.52,32.23,8.2,15.11,27.2,33.11,43.74,20.24.31,1.43.42,1.96.42,2.02h0"/>
      <path class="cls-2" d="m577.12,785.29c31.3-1,74.55-1.39,105.82.39"/>
      <path class="cls-2" d="m789.12,788.29s.04.01.06.01c30.13,3.86,82.59,5.23,112.94,4.99"/>
      <path class="cls-2" d="m188.12,936.29s-.05-.02-.07-.03c-40.28-13.28-74.44-61.49-87.43-100.47-3.6-10.29-5.88-20.84-7.37-31.52-1.42-10.09-2.14-20.28-2.63-30.48-1-24,1-47,4-71,3-33,5-65,4-98,0-42-5-83-3-125,1-39,1-79,26-113,2-1,3-3,5-5,6.62-4.87,13.5-8.94,20.58-12.33,29.3-14.08,62.01-16.67,93.42-16.67,103-1,207,6,310,7,86,0,171,1,257-1,40-2,80-5,119,8,.3.1.6.2.9.31,20.59,7.04,37.27,18.96,49.1,37.69,1,1,0,3,1,4,3,4,5,8,7,13,7,19,10,40,9,60-1.99,121.44-.02,242.89-8.88,364.33-.04.56-.08,1.11-.12,1.67-2,30-10,61-31,85-11.94,12.93-33.64,28.13-51.22,32.43-.1.03-.19.05-.28.07"/>
      <path class="cls-2" d="m498.12,944.29h.01c27.7-1.38,74.61-3.52,101.98,1h.01"/>
      <path class="cls-2" d="m147.12,349.29c-15.72-7.31-30.61-20.63-26.54-37.48,1.24-5.12,4.56-9.52,8.43-13.09,12.58-11.63,30.41-15.35,47.38-17.63,23.12-3.11,46.44-4.43,69.73-5.74,207.12-11.65,415.31-23.29,621.63-1.66,18.75,1.97,37.73,4.27,55.23,11.28s47.14,20.32,41.27,36.58c-10.31,14.8-6.17,10.78-36.73,25.55-.13.06-.26.12-.4.19"/>
      <path class="cls-2" d="m93.12,804.29c-18.94-2.09-32.11-28.88-33.31-47.9-6.5-102.62-9.79-205.45-9.84-308.28-.04-52.48.77-104.97,2.43-157.43.43-13.63,1.11-27.94,8.18-39.6,3.08-5.07,7.04-9.2,11.63-12.55,14.68-10.76,35.76-13.71,54.72-15.07,14.85-1.07,29.72-1.94,44.59-2.66,55.09-2.68,110.29-3.27,165.46-3.86,135.9-1.45,271.79-2.91,407.69-4.36,52.47-.56,104.98-1.13,157.37,1.67.15,0,.3,0,.45.02,20.44,1.1,41.25,2.8,60.19,10.58,14.32,5.88,26.93,15.06,37.62,26.26,10.36,10.84,18.91,23.58,25.47,37.06,13.33,27.4,19.16,57.82,22.82,88.07,2.18,18,3.64,36.03,4.5,54.1,3.66,75.46-2.85,151.42-9.36,226.86-2.56,29.55-5.11,59.1-7.66,88.65-1.48,17.11-3.06,34.63-10.33,50.19-7.26,15.56-21.5,28.84-38.62,30.25"/>
      <path class="cls-2" d="m72.36,239.3c-.05-.26-.1-.51-.15-.77-4.46-23.73,6.33-48.43,22.98-65.98,16.82-17.73,38.98-29.35,61.08-39.79,246.85-116.61,547.21-120.1,791.31,2.16,21.51,10.78,43.39,23.2,56.79,43.18,13.34,19.92,12.82,55.98-4.07,73.01l-.18.18"/>
      <path class="cls-3" d="m50.12,448.29c-.05-.06-.11-.12-.15-.18-24.97-28.06-44.87-65.77-48.28-103.16-3.42-37.46,1.14-75.15,5.7-112.49,2.17-17.77,4.48-36.02,12.94-51.8,10.51-19.61,29.32-33.24,48.1-45.19C168.78,71.6,284.79,36.47,401.28,12.4c36.56-7.55,77.56-9.2,114.84-11.11,96.71-4.95,195.66,13.82,288,43,68.24,21.56,128.81,47.73,190.63,83.79,16.44,9.59,32.72,20.35,44.23,35.51,12.07,15.89,18.07,35.49,23.06,54.81,16.22,62.84,24.26,127.8,23.85,192.7-.05,7.48-.41,15.54-5,21.45-4.59,5.9-22.7,4.02-26.77-2.26"/>
      <path class="cls-2" d="m171.12,221.29c.13-.16.27-.33.4-.49,24.88-30.64,50.65-42.53,59.89-46.55,203.48-88.37,434.66-83.96,670.63,40,.03,0,.05.03.08.04"/>
    </g>
  </g>
  <g>
    <g>
      <g>
        <path d="m900.25,943.96c-15.17,20.01-43.22,17.73-65.59,17.99-27.29.31-54.57.62-81.86.93-26.49.3-52.99.91-79.48.86-20.78-.04-43.41-1.12-61.56-12.39-18.62-11.56-26.21-32.31-28.83-53.15-2.94-23.44-2.14-47.51-2.64-71.09-1.15-53.61-2.22-107.23-2.63-160.85-.46-59.99-.09-120,1.98-179.96l-2.5,2.5h.41c.86,0,1.74-.47,2.16-1.24,3.09-5.69,8.88-8.61,14.53-11.28s12.12-4.94,18.42-6.66c12.67-3.46,25.73-5.12,38.77-6.4,27.28-2.68,54.65-4.61,82.02-6.06,27.86-1.47,55.85-2.77,83.75-2.37,22.45.32,48.58.27,68.74,11.69,9.95,5.64,16.86,14.27,19.53,25.48,3.01,12.6,1.98,26.23,1.84,39.08-.3,27.5-1.41,54.99-2.69,82.46-2.56,54.87-5.88,109.77-5,164.73.49,30.62,2.31,61.25,6.28,91.63,3.12,23.85,9.24,52.89-5.66,74.13-1.85,2.64,2.48,5.14,4.32,2.52,13.05-18.6,10.74-43.4,7.96-64.72-3.65-27.95-6.39-55.84-7.4-84.02-2.08-58.18,1.24-116.36,4.03-174.45,1.41-29.43,2.7-58.88,3.11-88.35.31-22.58,3.56-50.58-15.5-66.98-16.47-14.17-40.16-16.31-60.91-17.53-29.14-1.71-58.49-.33-87.62.99-32.61,1.48-65.22,3.63-97.7,6.87-14.34,1.43-28.77,3.3-42.61,7.46-11.27,3.39-26.55,8.23-32.55,19.26l2.16-1.24h-.41c-1.39,0-2.45,1.15-2.5,2.5-3.85,111.95-1.84,223.98.55,335.94.53,24.94-.31,50.4,2.65,75.2,2.4,20.03,8.72,40.43,24.93,53.6s37.86,16.61,58.22,17.46c26.54,1.1,53.28-.18,79.83-.48,31.95-.36,63.89-.72,95.84-1.09,24.15-.27,51.76.87,67.91-20.44,1.94-2.56-2.4-5.06-4.32-2.52Z"/>
        <path d="m791.68,788.3c.39-17.78.32-35.56-.02-53.34l-4.91.66c.11.67.24,1.32.42,1.98.86,3.16,5.36,1.79,4.82-1.33-.12-.68-.28-1.35-.42-2.02-.32-1.47-2.4-2.42-3.67-1.49-12.5,9.12-25.74.1-34.14-10.15s-16.69-26.71-7.7-38.9c1.12-1.52-.38-3.86-2.16-3.76-10.06.54-20.13.63-30.19.17-4.87-.22-9.73-.56-14.58-1.02-3.83-.36-8.28-1.62-12.09-1.29-1.29.11-2.58,1.06-2.5,2.5,2.52,45.13,2.54,90.37-.42,135.48-.07,1.08.83,2.13,1.84,2.41,22.31,6.11,45.61,6.74,68.46,3.7,5.85-.78,11.67-1.77,17.44-2.98,3.05-.64,6.08-1.33,9.1-2.08,2.17-.53,5-.74,6.92-1.89,2.74-1.64,2.8-5.71,3.15-8.49.74-5.94.51-12.17.65-18.15.08-3.22-4.92-3.22-5,0-.12,5.15,0,10.4-.48,15.53-.12,1.34-.12,3.93-.66,5.24-1.02,2.49-4.53,2.62-6.82,3.18-10.34,2.52-20.83,4.43-31.42,5.49-20.13,2.02-40.46,1.01-60.02-4.35l1.84,2.41c2.96-45.11,2.94-90.35.42-135.48l-2.5,2.5c3.81-.32,8.26.93,12.09,1.29,4.85.46,9.71.8,14.58,1.02,10.06.46,20.14.37,30.19-.17l-2.16-3.76c-10.42,14.11-1.26,33.13,8.48,44.96,9.83,11.94,25.88,21.38,40.2,10.93l-3.67-1.49c.14.67.3,1.34.42,2.02l4.82-1.33c-.18-.66-.31-1.31-.42-1.98-.44-2.81-4.96-2.1-4.91.66.34,17.78.41,35.56.02,53.34-.07,3.22,4.93,3.22,5,0Z"/>
      </g>
      <path d="m148.39,347.13c-10.48-5-22.58-12.91-25.43-25.01-3.32-14.13,9.03-24.58,20.46-30.02,12.05-5.74,25.64-7.65,38.76-9.25,14.8-1.81,29.66-2.94,44.54-3.87,60.57-3.78,121.21-6.92,181.84-9.66,122.04-5.52,244.41-8.04,366.43-.72,30.97,1.86,61.91,4.34,92.76,7.59,25.92,2.73,50.57,7.54,73.75,19.92,7.46,3.99,18.36,9.75,20.66,18.68,1.45,5.6-3.75,11.95-7.73,15.64-4.42,4.11-10.8,6.28-16.17,8.8-2.86,1.34-5.7,2.73-8.57,4.06-3.03,1.4-4.81.28-7.9-.63-7.24-2.14-14.63-3.78-22.08-5-28.61-4.69-57.66-3.13-86.47-1.65-30.16,1.55-60.51,1.27-90.71,1.43-60.57.32-121.2.54-181.76-.26-61.26-.81-122.48-3.57-183.72-5.37-30.27-.89-60.55-1.54-90.83-1.61-27.52-.06-55.37-.61-82.5,4.76-13.07,2.59-25.73,6.65-37.79,12.34l3.42.9-.08-.17c-1.37-2.91-5.68-.37-4.32,2.52l.08.17c.61,1.29,2.29,1.43,3.42.9,27.13-12.82,57.24-16.01,86.91-16.3,31.34-.31,62.68.02,94.01.76,63.25,1.49,126.46,4.47,189.71,5.74,63.17,1.27,126.44.89,189.62.68,31.65-.11,63.29-.41,94.93-1.11,30.42-.68,60.71-3.83,91.03.53,7.45,1.07,14.85,2.56,22.11,4.53,3.11.84,6.89,2.85,10.06,3.07,2.47.17,4.79-1.64,6.97-2.67,7.13-3.4,15.12-6.22,21.61-10.82,4.21-2.98,6.93-7.38,9.83-11.55,4.54-6.56,1.41-14.42-3.44-19.84-6.78-7.58-16.55-12.51-25.64-16.72-11.33-5.24-22.96-9.47-35.21-12.01-14.19-2.95-28.68-4.29-43.08-5.72-15.77-1.57-31.55-2.95-47.35-4.16-126.49-9.65-253.53-7.98-380.18-2.66-63.38,2.67-126.73,6.21-190.06,9.81-15.53.88-31.06,1.83-46.53,3.39-13.47,1.35-27.25,2.7-40.29,6.48-20.07,5.81-45.42,23.44-32.67,47.22,5.26,9.81,15.26,16.52,25.05,21.19,2.89,1.38,5.43-2.93,2.52-4.32Z"/>
      <path d="m174.97,492.2l.14.06-1.24-2.16c-4.19,121.19-5.15,242.49-2.84,363.73.53,27.95-.82,59.17,14.86,83.69l2.82-3.67c-26.05-8.84-46.73-30-62.01-52.18-17.18-24.94-28.16-52.95-31.68-83.08-2-17.14-2.58-34.48-1.86-51.72s3.23-35.29,4.74-52.96c3.07-35.91,3.98-71.73,2.92-107.76-1.04-35.78-3.82-71.36-2.69-107.18.96-30.41.93-61.82,13.57-90.16,3.15-7.06,6.92-14.93,12.27-20.57,5.47-5.78,11.8-9.94,18.81-13.73,14.78-7.98,30.98-12.88,47.5-15.69,16.34-2.78,32.92-3.44,49.46-3.53,18.03-.09,36.06-.11,54.09.12,72.16.94,144.25,4.58,216.39,6.21s144.87,1.22,217.25.78c35.5-.22,70.92-.95,106.39-2.39,33.67-1.37,69.51-1.1,100.98,12.57,12.81,5.56,24.3,13.79,33.21,24.59,2.09,2.53,5.25,5.76,6.41,8.88.33.89.14,1.89.44,2.8.48,1.44,1.61,2.62,2.43,3.88,4.56,7.06,7.07,15.35,9.16,23.43,4.34,16.79,4.82,33.39,4.55,50.61-.28,18.25-.48,36.5-.65,54.75-.65,72.67-.75,145.37-3.47,218-.68,18.26-1.53,36.51-2.6,54.75-.99,16.99-1.48,34.24-4.12,51.07-4.6,29.39-16.62,57.52-40.13,76.59-11.21,9.1-24.25,17.24-38.34,20.88l2.82,3.67c13.05-18.6,10.74-43.4,7.96-64.72-3.65-27.95-6.39-55.84-7.4-84.02-2.08-58.18,1.24-116.36,4.03-174.45,1.41-29.43,2.7-58.88,3.11-88.35.31-22.58,3.56-50.58-15.5-66.98-16.47-14.17-40.16-16.31-60.91-17.53-29.14-1.71-58.49-.33-87.62.99-32.61,1.48-65.22,3.63-97.7,6.87-14.34,1.43-28.77,3.3-42.61,7.46-11.27,3.39-26.55,8.23-32.55,19.26l2.16-1.24h-.41c-1.39,0-2.45,1.15-2.5,2.5-4.41,128.3-1.45,256.78,1.61,385.07.62,26.14,2.49,56.08,22.11,75.7l2.43-4.18c-33.66-5.39-68.77-2.77-102.64-1.09l2.16,3.76c12.67-19.04,10.05-43.92,7.18-65.42-3.8-28.54-6.39-57.09-7.31-85.87-1.88-58.84,1.62-117.67,4.4-176.42,1.37-28.94,2.58-57.89,2.9-86.86.25-23.08,2.46-49.73-18.15-65.23-17.63-13.26-42.02-14.72-63.21-15.69-29.49-1.35-59.17.1-88.63,1.53-32.39,1.57-64.87,3.58-97.11,7.14-14.31,1.58-28.68,3.8-42.32,8.54-5.37,1.87-12.2,3.9-16.65,7.56-4.2,3.45-5.27,9.19-7.32,13.95-1.27,2.92,3.04,5.47,4.32,2.52,1.78-4.11,2.72-9.78,6.34-12.67,4.97-3.97,12.85-6.06,18.83-7.91,12.25-3.78,24.97-5.72,37.69-7.09,27.38-2.96,54.92-4.81,82.41-6.33,27.55-1.52,55.19-2.78,82.78-2.69,23.17.07,49.5-.3,70.95,9.82,9.83,4.64,18.05,12.08,21.78,22.49,4.31,12.05,3.41,25.55,3.33,38.14-.19,27.98-1.25,55.94-2.53,83.89-2.55,55.51-6,111.04-5.24,166.64.42,30.79,2.16,61.58,6.06,92.14,3.08,24.17,9.7,53.47-4.82,75.3-1.03,1.55.32,3.85,2.16,3.76,33.38-1.66,68.15-4.4,101.32.91,2.33.37,4.34-2.27,2.43-4.18-18.05-18.05-19.94-45.82-20.59-69.88-.84-31.14-1.38-62.29-1.99-93.43-1.24-62.86-2.14-125.74-1.74-188.61.22-35.11.85-70.21,2.06-105.3l-2.5,2.5h.41c.86,0,1.74-.47,2.16-1.24,3.09-5.69,8.88-8.61,14.53-11.28s12.12-4.94,18.42-6.66c12.67-3.46,25.73-5.12,38.77-6.4,27.28-2.68,54.65-4.61,82.02-6.06,27.86-1.47,55.85-2.77,83.75-2.37,22.45.32,48.58.27,68.74,11.69,9.95,5.64,16.86,14.27,19.53,25.48,3.01,12.6,1.98,26.23,1.84,39.08-.3,27.5-1.41,54.99-2.69,82.46-2.56,54.87-5.88,109.77-5,164.73.49,30.62,2.31,61.25,6.28,91.63,3.12,23.85,9.24,52.89-5.66,74.13-1.31,1.86.85,4.18,2.82,3.67,13.86-3.58,26.58-11.31,37.81-20s20.97-19.6,28.13-32.41c15.69-28.08,17.75-59.61,19.72-91,4.73-75.56,5.63-151.28,6.23-226.96.3-37.82.37-75.66,1.14-113.48.34-16.91-.65-33.4-5.01-49.82-1.98-7.45-4.35-14.98-8.2-21.7-.88-1.54-2.52-3.11-3.1-4.73-.32-.9-.15-1.89-.44-2.8-1.01-3.15-3.92-6.23-5.93-8.82-18.74-24.14-48.05-34.57-77.4-38.82-34.93-5.06-70.18-1.11-105.25-.44-75.08,1.42-150.18.74-225.27.65-75.12-.09-150.16-4-225.24-5.96-36.97-.96-74.05-1.8-111.03-.92-32.99.79-66.79,5.84-95.33,23.45-6.03,3.72-11.9,7.98-15.98,13.82-4.73,6.77-8.66,14.04-11.84,21.66-5.79,13.84-8.86,28.58-10.55,43.45-1.77,15.62-1.86,31.31-2.4,47-.64,18.59-.4,37.11.43,55.69,1.66,37.15,3.74,74.29,2.35,111.48-.69,18.61-1.81,37.31-3.78,55.83s-3.97,35.64-4.23,53.64c-.48,33.12,3.23,66.64,17.05,97.03,11.47,25.22,28.36,49.18,49.95,66.72,9.76,7.93,20.55,14.44,32.49,18.49,2.05.7,3.97-1.88,2.82-3.67-14.16-22.13-13.56-49.9-14.06-75.21-.6-29.81-.99-59.63-1.19-89.44-.4-59.64-.01-119.28,1.16-178.9.67-33.79,1.59-67.57,2.76-101.35.03-.79-.48-1.83-1.24-2.16l-.14-.06c-2.93-1.25-5.48,3.05-2.52,4.32Z"/>
      <path d="m73.48,240.69c18.43-13.08,42.36-14.03,64.11-15.46,25.89-1.7,51.82-2.85,77.76-3.66,52.18-1.63,104.4-1.95,156.61-2.5,104.92-1.12,209.84-2.25,314.76-3.37,52.19-.56,104.4-1.6,156.59-.85,25.13.36,50.4.81,75.45,3.02,23.61,2.08,46.28,7.76,65.49,22.21,39.33,29.58,53.95,79.33,60.51,125.93,7.12,50.63,7.91,102.06,6.07,153.08-1.88,52.06-6.64,103.96-11.13,155.84-2.2,25.41-4.27,50.84-6.59,76.24-2.07,22.6-5.78,47.56-24.18,63.06-6.57,5.54-15.4,10.01-24.18,9.39l2.5,2.5c5.21-71.88,6.7-143.96,7.42-216.01.36-35.84.54-71.67.92-107.51.36-33.52,3.62-67.62-7.94-99.8-1.3-3.63-2.84-7.2-4.76-10.55-.87-1.51-2.5-3.13-3.1-4.73-.37-.99-.2-2.08-.56-3.09-2.16-6.06-8.71-12.44-13.18-16.9-10.61-10.6-23.77-17.92-37.85-22.84l.6,4.57c8.9-4.29,19.4-7.72,27.34-13.76,4.42-3.36,10.18-10.23,11.14-15.66,1.74-9.85-6.88-17.55-14.15-22.58-9.95-6.88-21.54-11.88-32.88-16.01-15.96-5.81-32.97-7.98-49.77-9.78-18.36-1.97-36.76-3.64-55.17-5.09-37.29-2.93-74.65-4.87-112.03-6.01-74.85-2.29-149.76-1.38-224.6,1.15-74.92,2.53-149.78,6.67-224.62,10.88-18.17,1.02-36.36,1.96-54.49,3.61-16.13,1.47-32.9,2.81-48.41,7.73-12.4,3.94-26.62,11.43-31.88,24.12-4.99,12.03.76,24.46,9.83,32.69,2.35,2.13,4.91,4.07,7.56,5.81,1.26.83,2.55,1.61,3.86,2.35.67.38,4.38,1.73,4.51,2.01l.9-3.42c-6.84,3.33-13.8,7.07-19.81,11.78-4.99,3.91-8.74,9.06-12.03,14.46-7.2,11.81-12.11,24.91-15.14,38.37-6.25,27.72-6.11,57.25-6.29,85.55-.21,32.87,2.89,65.64,3.39,98.49.51,33.44-.43,66.6-3.31,99.93-1.59,18.29-4.14,36.43-4.71,54.81-.56,18.11.37,36.29,2.81,54.25l1.75-3.08c-1.66.26-5.68-1.86-7.33-2.78-2.79-1.57-5.25-3.66-7.44-5.98-4.95-5.22-8.61-11.74-11.21-18.41-6.01-15.43-5.22-32.8-6.15-49.09-2.29-40.07-4.08-80.17-5.39-120.29-2.61-80.27-3.26-160.61-1.94-240.91.37-22.25.89-44.51,1.56-66.75.63-20.74.61-43.24,18.79-56.96,2.54-1.91.05-6.26-2.52-4.32-14.12,10.66-19.24,26.01-20.52,43.15-1.53,20.56-1.43,41.36-1.87,61.97-.91,42.83-1.24,85.67-1.03,128.51.43,85.58,3.09,171.15,7.98,256.59,1.07,18.63.44,37.73,8.64,54.93,3.2,6.72,7.54,13.22,13.24,18.07,4.07,3.46,10.84,7.96,16.52,7.08,1.45-.22,1.91-1.87,1.75-3.08-4.36-31.94-2.95-64.06.87-95.96,3.83-32.02,5.38-64.69,4.74-96.92-.63-31.92-2.69-63.77-3.44-95.68-.36-15.07.15-30.09.54-45.15.37-14.07.85-28.18,2.79-42.13,2.08-15.01,5.9-29.9,12.71-43.49,3.39-6.77,7.24-12.93,12.48-18.37,6.03-6.27,14.35-10.49,22.12-14.28,1.29-.63,1.44-2.28.9-3.42-.86-1.83-4-2.53-5.65-3.44-3.09-1.7-6.09-3.62-8.84-5.83-5.21-4.2-9.98-9.58-11.75-16.17-4.42-16.49,12.21-27.9,25.56-32.89,14.6-5.46,30.65-6.88,46.04-8.4,17.09-1.69,34.24-2.65,51.39-3.62,69.87-3.93,139.75-7.85,209.69-10.5,70.21-2.66,140.48-4.04,210.74-2.84,69.57,1.19,139.31,4.61,208.47,12.47,16.28,1.85,32.54,4.5,47.82,10.61,10.8,4.32,22.17,9.16,31.24,16.6,3.56,2.92,7.48,6.75,8.29,11.5.75,4.4-2.4,7.83-4.85,11.14-3.62,4.89-8.43,7.27-13.84,9.85-5.8,2.76-11.63,5.46-17.42,8.25-2.09,1.01-1.26,3.92.6,4.57,12.8,4.47,24.77,11.07,34.58,20.52,2.34,2.25,4.55,4.64,6.61,7.14s5.31,5.83,6.41,8.88c.87,2.44.85,3.67,2.41,6.01,2.34,3.49,4.17,7.31,5.64,11.24,11.68,31.27,8.44,64.65,8.09,97.32-.75,69.35-.72,138.72-2.67,208.05-1.1,39.19-2.85,78.36-5.69,117.46-.1,1.42,1.23,2.41,2.5,2.5,17.9,1.28,34.08-13.93,41.85-28.67,11.14-21.15,11.34-46.59,13.34-69.86,4.59-53.19,9.67-106.38,13.2-159.65,3.54-53.37,5.16-107.01,1.23-160.41-3.54-48.07-9.4-100.1-36.77-141.2-12.16-18.25-28.47-34.2-48.36-43.78-20.92-10.07-44.33-12.1-67.19-13.3-54.08-2.85-108.24-2.19-162.37-1.62-108.25,1.16-216.5,2.32-324.75,3.47-54.56.58-109.14.9-163.69,2.04-26.58.55-53.15,1.36-79.71,2.65-24.02,1.17-49.07,1.13-72.64,6.39-9.93,2.22-19.6,5.76-27.94,11.68-2.6,1.85-.11,6.19,2.52,4.32Z"/>
      <path d="m689.12,815.79c2.96-45.11,2.94-90.35.42-135.48l-2.5,2.5c3.81-.32,8.26.93,12.09,1.29,4.85.46,9.71.8,14.58,1.02,10.06.46,20.14.37,30.19-.17l-2.16-3.76c-10.42,14.11-1.26,33.13,8.48,44.96,9.83,11.94,25.88,21.38,40.2,10.93l-3.76-2.16c0,13.99.38,27.97.22,41.96-.09,7.36-.25,14.72-.5,22.08-.1,2.96.14,6.64-.79,9.52-1.12,3.46-6.39,3.68-9.59,4.42-29.1,6.75-59.68,8.44-88.72.49-3.11-.85-4.43,3.97-1.33,4.82,31.41,8.61,64.6,6.27,95.91-1.58,2.46-.62,6.02-.84,7.6-3.16,1.16-1.71,1-4.08,1.24-6.03,1-8.16.94-16.57,1.09-24.84.28-15.9-.14-31.77-.14-47.66,0-1.75-2.18-3.31-3.76-2.16-12.5,9.12-25.74.1-34.14-10.15s-16.69-26.71-7.7-38.9c1.12-1.52-.38-3.86-2.16-3.76-10.06.54-20.13.63-30.19.17-4.87-.22-9.73-.56-14.58-1.02-3.83-.36-8.28-1.62-12.09-1.29-1.29.11-2.58,1.06-2.5,2.5,2.52,45.13,2.54,90.37-.42,135.48-.21,3.21,4.79,3.2,5,0Z"/>
      <path d="m1059.63,219.07c11.22,43.74,18.6,88.41,21.84,133.46.8,11.14,1.35,22.29,1.66,33.46s.93,21.52.01,32.11c-.39,4.5-1.34,11.32-5.51,13.98-2.7,1.72-6.63,1.7-9.7,1.46-3.26-.25-7.18-.97-9.91-2.92-1.94-1.39-2.36-2.91-4.94-2.78l2.5,2.5c-3.03-62.04-8.75-133.46-53.52-181v3.54c19.27-20.17,18.45-57.16,2.44-78.91-10.56-14.35-25.37-24.76-40.77-33.37-16.54-9.25-33.85-17.26-51.17-24.9-69.28-30.55-142.61-51.59-217.41-63.13-74.99-11.58-151.36-13.79-226.91-6.86-75.97,6.97-151.11,23.04-223.16,48.11-35.48,12.34-70.64,26.57-104.11,43.66-31.78,16.22-64.1,40.13-71.04,77.49-1.5,8.08-1.52,16.15-.12,24.24l1.15-2.82c-12.58,9.53-18.29,22.78-20.06,38.2-2.08,18.11-1.63,36.72-2.06,54.92-.93,39.53-1.38,79.08-1.36,118.62l4.27-1.77c-14.83-16.81-27.23-35.9-35.91-56.6-9.18-21.91-12.52-44.49-12.81-68.14-.3-24.87,2.17-49.66,5.08-74.33,2.71-22.96,3.96-48.07,16.11-68.4,11.19-18.73,29.85-31.41,47.93-42.8,19.37-12.21,39.38-23.39,59.86-33.63,40.82-20.42,83.45-37.03,126.91-50.9,43.84-13.99,88.53-25.2,133.54-34.75,46.16-9.79,93.83-12.58,140.94-13.64,96.64-2.17,192.91,17.91,284.31,48.15,43.66,14.44,86.31,31.8,127.36,52.56,20.2,10.22,40.4,20.9,59.49,33.08,19.86,12.67,35.67,28.3,44.92,50.26,4.33,10.29,7.36,21.07,10.17,31.85.81,3.11,5.63,1.79,4.82-1.33-5.57-21.45-12.45-43.12-27.17-60.19-14.67-17.01-34.93-28.19-54.25-39.06-41.02-23.07-83.81-42.87-127.91-59.32C763.23,24.89,665.33,1.27,567-1.7c-24.85-.75-49.61.37-74.42,1.7s-47.96,2.92-71.72,6.44c-23.4,3.47-46.56,9.01-69.55,14.47-23.34,5.54-46.56,11.63-69.57,18.41-44.83,13.21-88.93,29.11-131.35,48.75-21.64,10.02-42.83,21.02-63.39,33.11-18.59,10.93-37.91,22.27-53.24,37.64-15.94,15.99-23.35,35.69-26.75,57.7-3.84,24.89-6.62,50.2-8.17,75.33-1.47,23.67-1.96,48.28,3.26,71.56,4.9,21.87,14.54,42.67,26.83,61.34,5.81,8.83,12.28,17.21,19.27,25.13,1.47,1.66,4.27.31,4.27-1.77-.02-36.67.36-73.33,1.16-109.99.39-17.6.68-35.21,1.46-52.8.76-17.1,3.97-33.72,18.38-44.63.98-.74,1.36-1.61,1.15-2.82-6.76-39.16,24.1-70.54,55.12-88.62,31.48-18.34,66.24-32.18,100.35-44.77,68.56-25.31,140.17-42.47,212.74-51.1s145.24-8.86,217.39-.52c72.32,8.36,143.7,25.5,211.71,51.5,17.08,6.53,33.95,13.62,50.56,21.28,16.27,7.5,32.7,15.17,47.9,24.7,14.32,8.98,29.29,20.89,36.03,36.9,5.65,13.44,6.37,29.44,2.4,43.43-1.98,6.97-5.26,13.43-10.28,18.68-.95,1-.94,2.53,0,3.54,43.78,46.47,49.1,116.85,52.06,177.46.06,1.3,1.09,2.57,2.5,2.5l1.03-.05-2.16-1.24c5.43,7.26,18.77,9.03,26.75,5.53,12.68-5.56,9.76-27.75,9.65-38.54-.4-38.61-3.81-77.18-10.09-115.27-3.63-22.04-8.27-43.9-13.83-65.53-.8-3.11-5.62-1.79-4.82,1.33Z"/>
      <path d="m1002.22,179.36c12.81,19.73,13.21,52.35-3.68,69.98h3.54c-10.64-11-23.06-20.25-37.2-26.26-15.75-6.69-32.78-9.2-49.73-10.51-3.79-.29-8.05.05-11.75-.75-4.16-.91-8.61-4.16-12.47-6.13-8.48-4.31-17.02-8.5-25.62-12.56-16.43-7.76-33.08-15.06-49.93-21.87-63.93-25.85-130.85-44.36-199.24-53.49-63.7-8.5-128.41-8.72-192.11-.14-62.99,8.48-124.69,25.49-183.32,49.97-20.96,8.75-39.78,19.52-56.28,35.44-2.94,2.84-5.79,5.79-8.53,8.83-1.44,1.6-2.74,3.46-4.29,4.94-2.08,1.99-3.99,1.68-6.86,1.83-9.38.48-18.75,1.03-28.11,1.65-15.53,1.03-31.36,1.97-46.3,6.69-6.89,2.18-13.46,5.2-19.36,9.39l3.67,1.49c-6.17-35.57,19.52-65.98,47.51-83.97,14.11-9.06,29.34-16.26,44.55-23.24,15.6-7.16,31.41-13.86,47.4-20.1,62.18-24.29,127.02-41.74,192.94-52.21,65.94-10.47,133.03-13.87,199.69-10.1s133.13,14.85,197.39,33.4c32.27,9.32,64.02,20.5,94.95,33.6,15.21,6.44,30.22,13.35,45.01,20.7,14.45,7.18,29.01,14.78,41.43,25.2,6.36,5.33,12.02,11.36,16.72,18.2,1.81,2.64,6.14.14,4.32-2.52-18.62-27.15-50.73-41.25-79.64-54.66-30.88-14.33-62.64-26.76-95.03-37.25-65.37-21.17-133.24-34.42-201.7-40.05-68.39-5.62-137.35-3.56-205.33,5.81-68.35,9.42-135.69,26.32-200.31,50.54-31.92,11.96-64.17,25.07-93.94,41.77-28.6,16.05-55.82,40.15-61.07,74.25-1.13,7.33-.99,14.64.27,21.94.26,1.51,2.43,2.37,3.67,1.49,27.64-19.62,65.38-13.47,97.08-17.34,3.21-.39,4.34-2.77,6.41-5.17,2.93-3.39,5.99-6.67,9.16-9.82,5.34-5.3,11.02-10.28,17.05-14.79,8.02-5.99,16.61-11.22,25.69-15.45,25.97-12.11,53.41-21.76,80.77-30.2,29.64-9.14,59.86-16.38,90.43-21.61,62.43-10.68,126.24-12.76,189.27-6.64,66.86,6.49,132.66,22.27,195.73,45.27,34.4,12.54,67.99,27.24,100.68,43.72,4.14,2.09,8.27,4.21,12.38,6.35,3.21,1.67,5.26,1.79,8.88,2.01,9.12.54,18.24,1.26,27.26,2.72,16.46,2.67,32.14,8,45.97,17.46,6.66,4.55,12.69,9.88,18.3,15.67.92.96,2.61.96,3.54,0,18.41-19.21,18.52-54.39,4.46-76.04-1.75-2.69-6.08-.19-4.32,2.52Z"/>
      <g>
        <path d="m294.31,729.52c-.17,22.67-1.24,45.32-1.6,67.99l4.91-.66-.09-.22c-1.02-2.5-4.81-2.34-4.91.66-.26,8.02.1,16.08.1,24.1,0,1.28,1.15,2.6,2.5,2.5,19.94-1.49,39.92-1.46,59.89-2.29,9.94-.41,19.88-1.06,29.76-2.26,3.08-.37,7.86-.11,10.24-2.29,2.12-1.95,2.02-4.59,1.92-7.24-1.62-41.34-1.96-82.75-4.71-124.04-.29-4.3-1.03-5.53-5.19-7.29-3.6-1.53-7.6-1.78-11.46-1.36-10.91,1.19-21.81,2.7-32.74,3.85-1.71.18-2.72,1.44-2.41,3.16,2.69,14.83,4.36,30.65-8.26,41.46-9.88,8.45-23.51,8.96-34.18,1.78-2.68-1.8-5.18,2.53-2.52,4.32,12.18,8.2,27.92,7.48,39.34-1.81,14.81-12.04,13.55-30.01,10.45-47.08l-2.41,3.16c8.15-.86,16.29-1.72,24.44-2.58,7.36-.78,14.39-3.17,20.99,1.57l-1.24-2.16c2.63,38.32,2.96,76.74,4.42,115.11.09,2.32.18,4.63.28,6.95.07,1.66.98,5.48.31,6.95-1.5,3.24-9.4,2.82-13.04,3.19-9.55.96-19.14,1.47-28.74,1.8-18.38.64-36.77.73-55.12,2.11l2.5,2.5c0-8.02-.36-16.08-.1-24.1l-4.91.66.09.22c1.01,2.48,4.86,2.36,4.91-.66.36-22.67,1.43-45.32,1.6-67.99.02-3.22-4.98-3.22-5,0Z"/>
        <path d="m190.21,935c-14.16-22.13-13.56-49.9-14.06-75.21-.6-29.81-.99-59.63-1.19-89.44-.4-59.64-.01-119.28,1.16-178.9.67-33.79,1.59-67.57,2.76-101.35.03-.79-.48-1.83-1.24-2.16l-.14-.06.9,3.42c1.78-4.11,2.72-9.78,6.34-12.67,4.97-3.97,12.85-6.06,18.83-7.91,12.25-3.78,24.97-5.72,37.69-7.09,27.38-2.96,54.92-4.81,82.41-6.33,27.55-1.52,55.19-2.78,82.78-2.69,23.17.07,49.5-.3,70.95,9.82,9.83,4.64,18.05,12.08,21.78,22.49,4.31,12.05,3.41,25.55,3.33,38.14-.19,27.98-1.25,55.94-2.53,83.89-2.55,55.51-6,111.04-5.24,166.64.42,30.79,2.16,61.58,6.06,92.14,3.08,24.17,9.7,53.47-4.82,75.3l2.16-1.24c-2.85,0-4.9,4.83-6.77,6.65-3.74,3.65-8.29,6.45-13.15,8.36-9.06,3.55-18.92,4.41-28.56,4.73-23.23.77-46.53.6-69.77.86s-47.26.54-70.89.8c-20.78.23-41.83,1.42-62.56-.45-21.78-1.96-43.43-8.85-56.24-27.74-1.8-2.65-6.13-.15-4.32,2.52,23.42,34.55,69.38,31.27,106.14,30.86,50.44-.57,100.88-1.01,151.32-1.72,21.17-.3,43.62-2.52,56.93-21.11l-2.16,1.24c3.15,0,5.29-6.41,6.33-8.8,2.27-5.2,3.62-10.68,4.4-16.29,1.55-11.19.85-22.55-.41-33.73-3.23-28.65-6.84-57-8-85.85-2.39-59.14.94-118.3,3.79-177.37,1.42-29.6,2.74-59.21,3.16-88.84.34-23.39,3.81-52.39-16.51-68.93-17.19-14-41.61-15.74-62.82-16.82-29.48-1.5-59.16-.05-88.62,1.34-32.46,1.54-64.98,3.6-97.31,7.04-14.32,1.52-28.7,3.63-42.42,8.17-5.79,1.92-13.53,4.19-18.32,8.13-4.2,3.45-5.27,9.19-7.32,13.95-.48,1.12-.46,2.84.9,3.42l.14.06-1.24-2.16c-4.19,121.19-5.15,242.49-2.84,363.73.53,27.95-.82,59.17,14.86,83.69,1.73,2.7,6.06.2,4.32-2.52Z"/>
      </g>
      <path d="m297.09,818.75l-1.87.14,2.5,2.5c0-30.64,1.36-61.23,1.59-91.87l-3.76,2.16c12.18,8.2,27.92,7.48,39.34-1.81,14.81-12.04,13.55-30.01,10.45-47.08l-2.41,3.16c8.15-.86,16.29-1.72,24.44-2.58,7.36-.78,14.39-3.17,20.99,1.57l-1.24-2.16c2.61,37.99,2.96,76.07,4.38,114.12.09,2.32.18,4.63.27,6.95.08,1.84,1.11,6.31.35,7.94-1.51,3.24-9.53,2.84-13.04,3.19-8.92.9-17.87,1.4-26.83,1.73-18.39.68-36.8.7-55.16,2.04-3.19.23-3.22,5.23,0,5,19.63-1.43,39.32-1.34,58.98-2.19,10.27-.44,20.54-1.16,30.74-2.46,2.78-.36,6.47-.11,8.56-2.25s1.74-5.27,1.62-8.04c-1.82-41.01-1.93-82.08-4.66-123.05-.3-4.46-1.14-5.67-5.49-7.42-3.53-1.42-7.41-1.65-11.16-1.24-10.91,1.19-21.81,2.7-32.74,3.85-1.71.18-2.72,1.44-2.41,3.16,2.69,14.83,4.36,30.65-8.26,41.46-9.88,8.45-23.51,8.96-34.18,1.78-1.61-1.09-3.75.36-3.76,2.16-.23,30.64-1.59,61.23-1.59,91.87,0,1.28,1.15,2.6,2.5,2.5l1.87-.14c3.19-.24,3.21-5.24,0-5Z"/>
      <path d="m292.8,798.18s.01.05.02.07l-.09-.66s0,.04,0,.07l.09-.66s0,.04-.02.06l.25-.6h0c1.55.43,3.11.85,4.66,1.27,0-.07,0-.14,0-.21.01-.34-.06-.67-.22-.96-.1-.31-.27-.58-.52-.8-.23-.24-.49-.42-.8-.52-.3-.16-.62-.23-.96-.22l-.66.09c-.42.12-.79.33-1.1.64l-.39.51c-.23.39-.34.81-.34,1.26,0,.07,0,.14,0,.21l.09.66c.08.33.23.61.45.85.11.19.26.34.45.45.24.22.52.37.85.45l.66.09.66-.09c.33-.08.61-.23.85-.45.27-.18.49-.41.64-.7.1-.21.21-.42.27-.64,0-.01,0-.02,0-.03l.09-.66s0-.01,0-.02c0,0,0-.02,0-.03,0,0,0-.01,0-.02l-.09-.66s-.01-.05-.02-.07c-.08-.33-.23-.61-.45-.85-.18-.27-.41-.49-.7-.64-.29-.18-.6-.28-.93-.3-.33-.07-.66-.06-1,.04l-.6.25c-.38.22-.67.52-.9.9l-.25.6c-.12.44-.12.89,0,1.33Z"/>
      <path d="m292.71,797.51c0,.07,0,.14,0,.21l.09-.66s0,.05-.02.07l.25-.6s-.02.04-.04.06l.39-.51s-.03.04-.05.05l4.27,1.77c0-.2,0-.41.02-.61l-4.66,1.26s.04.07.06.11l-.25-.6s.02.07.03.11c.08.33.23.61.45.85.18.27.41.49.7.64.29.18.6.28.93.3.33.07.66.06,1-.04l.6-.25c.38-.22.67-.52.9-.9l.25-.6c.12-.44.12-.89,0-1.33-.03-.14-.1-.28-.16-.4-.06-.14-.11-.28-.19-.41l-.39-.51c-.23-.24-.49-.42-.8-.52-.19-.11-.41-.17-.63-.17-.33-.07-.66-.06-1,.04l-.6.25-.51.39c-.24.23-.42.49-.52.8-.16.3-.23.62-.22.96-.03.2-.02.41-.02.61l.09.66.25.6.39.51c.23.24.49.42.8.52.19.11.41.17.63.17.22.06.44.06.66,0,.23,0,.44-.06.63-.17.31-.1.58-.27.8-.52.33-.3.64-.82.75-1.25.03-.12.04-.24.05-.37.04-.12.06-.25.04-.37,0-.06,0-.11,0-.17.01-.34-.06-.67-.22-.96-.1-.31-.27-.58-.52-.8-.23-.24-.49-.42-.8-.52-.3-.16-.62-.23-.96-.22l-.66.09c-.42.12-.79.33-1.1.64l-.39.51c-.23.39-.34.81-.34,1.26Z"/>
      <path d="m297.26,799.16l.11-.18-4.66-1.26c-.05,3.01-.08,6.03-.09,9.04h5c-.02-2.95-.05-5.91-.02-8.86.04-3.22-4.96-3.22-5,0-.03,2.95,0,5.91.02,8.86.02,3.22,4.99,3.22,5,0,.01-3.01.04-6.03.09-9.04.04-2.53-3.39-3.34-4.66-1.26l-.11.18c-1.68,2.75,2.64,5.27,4.32,2.52Z"/>
    </g>
    <g>
      <path d="m500.29,945.55c12.67-19.04,10.05-43.93,7.18-65.42-3.85-28.87-6.44-57.74-7.34-86.86-1.81-58.52,1.66-117.01,4.43-175.44,1.4-29.59,2.63-59.2,2.92-88.83.22-22.6,1.91-48.14-18.17-63.25-18.12-13.64-43.43-14.89-65.17-15.78-29.17-1.19-58.51.24-87.65,1.66-32.35,1.58-64.81,3.57-97.01,7.19-14.3,1.61-28.65,3.89-42.26,8.74-5.33,1.9-12.57,3.98-16.71,8.04-3.6,3.53-4.6,8.98-6.55,13.42-1.28,2.92,3.02,5.47,4.32,2.52,1.67-3.79,2.54-8.51,5.22-11.71,3.84-4.59,12.91-6.81,18.39-8.59,12.47-4.04,25.48-6.09,38.48-7.53,27.01-2.98,54.2-4.79,81.33-6.31,27.55-1.55,55.19-2.8,82.79-2.81,13.75,0,27.54.44,41.22,1.9,10.57,1.13,21.35,3.16,31.07,7.63,10.09,4.64,18.6,12.12,22.41,22.78,4.31,12.05,3.41,25.55,3.33,38.14-.19,27.65-1.23,55.28-2.49,82.9-2.55,55.84-6.06,111.7-5.29,167.63.43,30.79,2.16,61.58,6.06,92.14,3.08,24.17,9.7,53.47-4.82,75.3-1.79,2.69,2.54,5.19,4.32,2.52h0Z"/>
      <path d="m173.87,490.1c-3.84,111.26-4.98,222.61-3.34,333.92.37,25.29-.6,51.21,2.85,76.32,2.97,21.63,11.32,42.71,30.46,54.85,17.27,10.96,38.66,13,58.64,13.36,26.47.48,53.01-.43,79.48-.73,30.95-.35,61.9-.7,92.85-1.06,23.6-.27,50.26.04,65.48-21.21,1.88-2.62-2.46-5.12-4.32-2.52-14.15,19.76-40.47,18.5-62.16,18.74-26.62.3-53.25.61-79.87.91-26.45.3-52.91.65-79.37.9-20.25.19-41.85,0-60.62-8.59-21.49-9.82-31.71-30.26-35.27-52.69-3.86-24.34-2.71-49.74-3.09-74.31-.81-53-.99-106.02-.56-159.03.49-59.64,1.78-119.26,3.84-178.87.11-3.22-4.89-3.21-5,0h0Z"/>
      <path d="m297.62,806.76c.12-25.81,1.69-51.61,1.69-77.42,0-3.22-5-3.22-5,0,0,25.81-1.57,51.61-1.69,77.42-.01,3.22,4.99,3.22,5,0h0Z"/>
      <path d="m297.61,810c0-1.05,0-2.09.01-3.14.01-1.31-1.16-2.56-2.5-2.5s-2.49,1.1-2.5,2.5c0,1.05,0,2.09-.01,3.14,0,1.31,1.15,2.56,2.5,2.5s2.5-1.1,2.5-2.5h0Z"/>
      <path d="m297.72,821.13c-.02-1.04-.03-2.08-.05-3.12-.02-1.31-1.13-2.56-2.5-2.5s-2.53,1.1-2.5,2.5c.02,1.04.03,2.08.05,3.12.02,1.31,1.13,2.56,2.5,2.5s2.53-1.1,2.5-2.5h0Z"/>
      <path d="m300,818.05c-1.56.54-3.13.78-4.78.84-3.21.13-3.22,5.13,0,5,2.06-.08,4.15-.35,6.1-1.02,1.28-.44,2.12-1.71,1.75-3.08-.34-1.24-1.79-2.19-3.08-1.75h0Z"/>
      <path d="m294.89,731.21c12.04,8.57,27.91,8.15,39.54-.97,15.24-11.94,14.04-30.19,10.91-47.44l-2.41,3.16c8.15-.86,16.29-1.72,24.44-2.58,7.36-.78,14.39-3.17,20.99,1.57l-1.24-2.16c2.63,38.32,2.96,76.74,4.42,115.11.09,2.32.18,4.63.28,6.95.07,1.66.98,5.48.31,6.95-1.5,3.24-9.4,2.82-13.04,3.19-9.55.96-19.14,1.47-28.74,1.8-18.38.64-36.77.73-55.12,2.11l2.5,2.5c0-8.02-.36-16.08-.1-24.1.11-3.22-4.89-3.21-5,0-.26,8.02.1,16.08.1,24.1,0,1.28,1.15,2.6,2.5,2.5,19.94-1.49,39.92-1.46,59.89-2.29,9.94-.41,19.88-1.06,29.76-2.26,3.08-.37,7.86-.11,10.24-2.29,2.12-1.95,2.02-4.59,1.92-7.24-1.62-41.34-1.96-82.75-4.71-124.04-.29-4.3-1.03-5.53-5.19-7.29-3.6-1.53-7.6-1.78-11.46-1.36-10.91,1.19-21.81,2.7-32.74,3.85-1.71.18-2.72,1.44-2.41,3.16,2.72,15,4.34,31.14-8.71,41.84-10.12,8.31-23.85,8.43-34.4.92-2.63-1.87-5.13,2.46-2.52,4.32h0Z"/>
      <path d="m175.87,790.95c25.25,2.07,50.5,4.13,75.75,6.19,11.57.94,23.3,1.43,34.81,2.94,2.12.28,13.46,2.31,11.1-3.46-1.2-2.94-6.04-1.65-4.82,1.33-.73-1.78,1.3-1.36-.48-2.22-.53-.25-1.66-.13-2.25-.19-1.48-.15-2.94-.4-4.41-.58-4.41-.53-8.86-.78-13.28-1.14-10.82-.88-21.65-1.77-32.47-2.65-21.31-1.74-42.63-3.48-63.94-5.23-3.21-.26-3.19,4.74,0,5h0Z"/>
      <path d="m395.12,796.79c34.33.98,68.66-1.7,103-1,3.22.07,3.22-4.93,0-5-34.34-.7-68.67,1.98-103,1-3.22-.09-3.22,4.91,0,5h0Z"/>
      <path d="m574.62,486.29c-3.93,114.22-1.76,228.53.7,342.76.54,24.88-.53,50.48,3.45,75.12,3.24,20.08,11.73,39.24,29.23,50.7s41.12,13.64,62.24,13.84c28.17.27,56.38-.55,84.54-.87,28.62-.32,57.24-.65,85.85-.97,21.83-.25,47.52.15,62.54-18.59,13.71-17.1,12.33-41.39,9.92-61.85-3.18-26.97-6.46-53.71-7.67-80.88-2.55-57.49.45-115.02,3.24-172.44,1.37-28.13,2.7-56.27,3.33-84.43.31-13.97.8-28.04.25-42.01-.45-11.41-2.41-23.04-9.51-32.34-12.11-15.85-33.41-20.69-52.2-22.7-28.04-3.01-56.42-1.95-84.55-.92s-57.87,2.74-86.74,5.06c-25.73,2.07-52.66,3.18-77.19,11.92-9.64,3.43-21.53,7.85-26.69,17.34-1.54,2.83,2.78,5.35,4.32,2.52,2.96-5.44,8.34-8.3,13.73-10.9,6.16-2.97,12.63-5.24,19.22-7.04,12.38-3.38,25.15-5.05,37.89-6.31,26.59-2.65,53.27-4.53,79.95-5.99s55.19-2.77,82.78-2.57c22.56.16,48.13-.08,68.99,9.82,9.83,4.66,18.04,12.07,21.78,22.49,4.32,12.03,3.42,25.51,3.33,38.08-.18,26.84-1.17,53.67-2.38,80.48-2.47,54.56-5.91,109.13-5.46,163.78.22,27.04,1.4,54.08,4.13,80.99,2.34,23.04,8.24,46.91,5.21,70.14-1.42,10.91-5.41,21.53-13.74,29.05-8.89,8.03-21.08,10.7-32.69,11.64-12.53,1.02-25.21.7-37.77.84-13.64.16-27.29.31-40.93.46-27.62.31-55.24.62-82.86.94-22.76.26-46.47,1.93-68.74-3.74-21.59-5.5-37.74-19.38-44.74-40.74s-6.11-45.14-6.59-67.56c-2.35-108.42-4.77-216.88-2.32-325.32.3-13.27.68-26.54,1.14-39.81.11-3.22-4.89-3.21-5,0h0Z"/>
      <path d="m786.66,734.92c0,13.99.38,27.97.22,41.96-.09,7.36-.25,14.72-.5,22.08-.1,2.96.14,6.64-.79,9.52-1.12,3.46-6.39,3.68-9.59,4.42-29.1,6.75-59.68,8.44-88.72.49l1.84,2.41c2.96-45.11,2.94-90.35.42-135.48-.18-3.2-5.18-3.22-5,0,2.52,45.13,2.54,90.37-.42,135.48-.07,1.08.83,2.13,1.84,2.41,31.41,8.61,64.6,6.27,95.91-1.58,2.46-.62,6.02-.84,7.6-3.16,1.16-1.71,1-4.08,1.24-6.03,1-8.16.94-16.57,1.09-24.84.28-15.9-.14-31.77-.14-47.66,0-3.22-5-3.22-5,0h0Z"/>
      <path d="m791.99,736.28c-.23-.56-.32-1.25-.41-1.85l.09.66s0-.09-.01-.13c-.08-1.3-1.1-2.56-2.5-2.5-1.29.06-2.58,1.1-2.5,2.5.03.56.15,1.13.27,1.67.07.32.12.67.24.97.25.63.54,1.14,1.15,1.49.54.31,1.33.45,1.93.25s1.19-.57,1.49-1.15.5-1.32.25-1.93h0Z"/>
      <path d="m687.51,682.77c18.71,2.46,37.55,3.19,56.39,2.18l-2.16-3.76c-10.42,14.11-1.26,33.13,8.48,44.96,9.83,11.94,25.88,21.38,40.2,10.93l-3.67-1.49c-.03-.15.33,2.62.33,1.37,0,3.22,5,3.22,5,0,0-.85-.34-1.9-.51-2.69-.32-1.47-2.4-2.42-3.67-1.49-12.5,9.12-25.74.1-34.14-10.15s-16.69-26.71-7.7-38.9c1.12-1.52-.38-3.86-2.16-3.76-18.84,1.01-37.68.28-56.39-2.18-3.18-.42-3.15,4.59,0,5h0Z"/>
      <path d="m577.12,787.79c35.23-1.11,70.61-1.57,105.82.39,3.22.18,3.2-4.82,0-5-35.21-1.96-70.59-1.5-105.82-.39-3.21.1-3.22,5.1,0,5h0Z"/>
      <path d="m788.46,790.7c18.18,3.03,37.16,3.34,55.54,4.07,19.36.77,38.75,1.16,58.12,1.02,3.22-.02,3.22-5.02,0-5-18.85.14-37.71-.23-56.55-.96-18.44-.71-37.54-.91-55.78-3.95-3.15-.52-4.5,4.29-1.33,4.82h0Z"/>
      <path d="m189.39,934.13c-11.93-5.11-22.6-10.45-32.64-18.88-10.76-9.04-20.17-19.67-28.3-31.1-17.08-24-28.69-51.3-32.78-80.54-2.49-17.79-3.21-35.93-2.6-53.87.6-17.73,3.05-35.22,4.59-52.87,3.14-35.92,4.17-71.73,3.26-107.78-.91-35.79-4.27-71.5-2.88-107.32,1.19-30.81.61-62.51,13-91.42,3.01-7.02,6.67-15.01,11.7-20.85,5.15-5.97,11.59-10.27,18.45-14.1,14.68-8.2,30.84-13.31,47.35-16.27,33.79-6.06,69.16-4.16,103.33-3.74,72.49.89,144.9,4.56,217.37,6.21,72.36,1.65,144.87,1.24,217.25.81,35.83-.21,71.58-.95,107.37-2.4,33.68-1.37,69.5-1.08,100.98,12.57,12.81,5.56,24.3,13.79,33.21,24.59,2.02,2.44,5.31,5.82,6.41,8.88.32.9.14,1.89.44,2.8.55,1.67,1.94,3.09,2.85,4.56,4.29,6.93,6.71,14.91,8.74,22.75,4.35,16.78,4.82,33.4,4.55,50.61-.28,18.25-.48,36.5-.65,54.75-.66,73.01-.76,146.03-3.51,219-.69,18.26-1.55,36.51-2.62,54.75-.99,16.92-1.49,34.11-4.18,50.87-4.78,29.73-17.23,57.79-41.24,76.79-10.99,8.69-23.69,16.54-37.39,19.96-3.12.78-1.8,5.6,1.33,4.82,13.61-3.4,26.15-10.96,37.2-19.39,11.51-8.78,20.96-19.11,28.21-31.68,16.04-27.79,18.41-59.13,20.4-90.42,4.81-75.55,5.73-151.28,6.34-226.96.3-37.83.53-75.66,1.12-113.48.27-17-.34-33.48-4.53-50.07-1.96-7.79-4.36-15.69-8.25-22.76-.78-1.41-1.67-2.73-2.53-4.09-1.07-1.7-.77-1.79-1.23-3.5-.81-3.01-3.32-5.79-5.16-8.24-18.37-24.39-47.17-35.24-76.49-39.76-35.2-5.43-70.74-1.42-106.11-.74-75.08,1.44-150.18.77-225.27.67-75.12-.09-150.16-3.96-225.24-5.93-37.01-.97-74.11-1.77-111.14-.97-32.97.71-66.77,5.61-95.42,22.99-6.34,3.84-12.5,8.19-16.77,14.3-4.57,6.54-8.4,13.55-11.52,20.89-5.87,13.83-9.03,28.52-10.78,43.4-1.83,15.61-1.98,31.3-2.48,46.99-.59,18.55-.45,37,.37,55.54,1.63,37.15,3.76,74.28,2.43,111.48-.67,18.61-1.86,37.28-3.73,55.81s-4.05,36.29-4.32,54.62c-.48,33.12,3.24,66.64,17.05,97.03,11.46,25.22,28.36,49.17,49.95,66.72,9.91,8.06,20.35,13.29,31.96,18.27,2.93,1.25,5.48-3.05,2.52-4.32h0Z"/>
      <path d="m498.12,946.79c17.02,0,34.08-1.58,51.12-1.71,9.22-.07,18.44.02,27.65.47,4.21.21,8.42.48,12.61.89,3.46.34,7.16,1.35,10.62,1.35,3.22,0,3.22-5,0-5s-6.72-.96-9.95-1.28c-4.17-.42-8.36-.7-12.55-.92-9.45-.48-18.92-.58-28.38-.51-17.04.13-34.1,1.71-51.12,1.71-3.22,0-3.22,5,0,5h0Z"/>
      <path d="m148.39,347.13c-11.46-5.46-25.45-14.89-25.96-29-.59-16.2,17.58-25.73,30.83-29.8,14.91-4.58,30.85-5.9,46.32-7.31,17.14-1.56,34.32-2.47,51.5-3.44,69.65-3.92,139.31-7.8,209.03-10.39,69.65-2.59,139.37-3.89,209.07-2.63,69.57,1.26,139.45,4.54,208.58,12.74,15.77,1.87,31.37,4.74,46.15,10.72,10.78,4.36,22.23,9.27,31.1,16.95,3.47,3.01,7.25,7.03,7.5,11.89.2,3.93-3.08,7.52-5.36,10.51-3.73,4.88-8.99,7.21-14.43,9.79s-11.23,5.32-16.85,7.98c-2.9,1.38-.37,5.69,2.52,4.32,8.91-4.23,19.22-7.76,27.27-13.59,4.5-3.26,10.4-10.14,11.54-15.54,2.01-9.57-6-17.26-13.03-22.31-9.92-7.14-21.65-12.17-33.07-16.42-15.92-5.93-32.91-8.18-49.71-10-18.28-1.98-36.59-3.64-54.92-5.09-37.49-2.97-75.07-4.93-112.66-6.09-74.61-2.29-149.29-1.41-223.88,1.09-75.01,2.51-149.96,6.65-224.9,10.86-18.5,1.04-37.01,1.98-55.46,3.66-15.87,1.45-32.34,2.78-47.64,7.49-12.68,3.9-27.26,11.42-32.65,24.36-5,12.03.76,24.47,9.83,32.69,4.97,4.51,10.71,8.02,16.75,10.9,2.89,1.38,5.43-2.93,2.52-4.32h0Z"/>
      <path d="m93.79,801.88c-12-1.64-20.03-12.04-25.03-22.28-6.54-13.38-6.74-27.5-7.61-42.08-2.13-35.76-3.86-71.54-5.21-107.34-2.71-71.95-3.82-143.95-3.38-215.95.22-36.21.85-72.41,1.89-108.61.46-16.24-.77-34.47,6.29-49.55,6.67-14.24,20.94-21.78,35.54-25.6,15.65-4.1,32.03-4.68,48.1-5.68,17.67-1.1,35.35-1.94,53.04-2.61,35.87-1.35,71.77-1.96,107.66-2.39,72.59-.88,145.18-1.57,217.77-2.34,72.28-.77,144.56-1.55,216.83-2.32,35.87-.38,71.75-.82,107.62-.22,17.93.3,35.85.86,53.75,1.79,16.47.85,33.11,1.99,49.05,6.48,31.16,8.78,55.16,32.08,70.34,60.09,16.25,29.97,22.39,64.28,26.21,97.8,8.07,70.76,5.15,142.22-.21,213.06-2.68,35.5-5.9,70.95-8.96,106.41-1.53,17.76-2.92,35.55-4.63,53.3-1.54,16.01-3.92,32.81-12.41,46.81-7.26,11.97-19.04,21.68-33.32,23.15-3.17.32-3.2,5.33,0,5,30.43-3.12,44.81-33.17,48.94-60.11,2.65-17.31,3.55-34.94,5.06-52.38,1.59-18.39,3.18-36.77,4.77-55.16,6.42-74.1,12.96-148.48,10.05-222.92-1.38-35.09-4.15-70.78-12.09-105.07-7.36-31.79-20.66-62.86-44.1-86.17-10.68-10.62-23.24-19.26-37.24-24.87-15.33-6.14-31.9-8.37-48.27-9.6-36.48-2.73-73.22-2.94-109.78-2.88-75.22.11-150.45,1.43-225.66,2.23-75.28.81-150.55,1.61-225.83,2.42-74.72.8-149.53,1.25-224.1,6.55-27.35,1.94-62.01,6.62-73.73,35.63-6.07,15.03-5.2,32.27-5.66,48.17-.54,18.93-.98,37.86-1.3,56.79-1.28,75-.84,150.02,1.31,225,1.08,37.47,2.58,74.92,4.51,112.36.96,18.55,1.98,37.1,3.19,55.63.78,12.07,4.28,23.86,10.82,34.1,5.59,8.76,13.75,16.73,24.45,18.2,3.15.43,4.51-4.39,1.33-4.82h0Z"/>
      <path d="m74.77,238.64c-7.56-38.78,23.29-70.71,53.9-88.76,31.64-18.65,66.76-32.59,101.13-45.29,68.72-25.39,140.49-42.6,213.23-51.23,72.33-8.59,145.68-8.83,218.04-.4,72.48,8.44,144,25.72,212.14,51.89,17.29,6.64,34.36,13.86,51.16,21.66,16.11,7.47,32.39,15.11,47.37,24.69,14.06,8.99,28.71,20.98,35.04,36.92,5.47,13.75,5.99,29.97,1.58,44.08-2.01,6.42-5.22,12.55-10.01,17.34-2.28,2.28,1.26,5.81,3.54,3.54,19.64-19.64,18.53-57.35,2.8-78.84-10.41-14.22-24.94-24.59-40.14-33.17-16.59-9.36-34.01-17.41-51.43-25.11-69.24-30.6-142.53-51.68-217.31-63.28-75.24-11.67-151.87-13.91-227.68-6.96-75.64,6.94-150.46,22.93-222.24,47.81-35.69,12.37-71.05,26.67-104.72,43.84-32.01,16.32-64.82,40.52-71.39,78.32-1.4,8.07-1.4,16.24.17,24.28.61,3.16,5.43,1.82,4.82-1.33h0Z"/>
      <path d="m51.89,446.52c-16.85-20.22-31.21-41.81-39.92-66.85-9.12-26.22-9.83-53.96-8.48-81.45,1.4-28.6,4.19-57.9,9.3-86.09,2.42-13.35,6.44-26.42,14.26-37.66,7.11-10.21,16.55-18.62,26.53-25.95,21.26-15.61,44.73-28.68,68.1-40.82,23.83-12.39,48.34-23.47,73.31-33.38,49.66-19.72,101-34.97,152.93-47.47,26.15-6.3,52.53-12.67,79.2-16.3,27.58-3.76,55.43-5.07,83.2-6.47,56.71-2.87,113.17,1.27,169.02,11.43,107.96,19.63,213.78,56.98,308.96,111.71,22.9,13.17,45,27.63,57.39,51.82s17.54,52.44,22.87,78.78c5.84,28.85,9.97,58.05,12.36,87.39,1.16,14.26,1.92,28.55,2.27,42.85.17,6.98.25,13.96.22,20.93s.48,15.2-3.68,20.88-19.08,4.96-23.44-.86c-1.91-2.55-6.25-.06-4.32,2.52,4.54,6.07,13.72,7.63,20.85,6.93,9.99-.99,13.87-8.6,15.07-17.98,1.79-13.99.51-28.84-.03-42.89-.59-15.34-1.65-30.67-3.17-45.95-2.97-29.74-7.68-59.3-14.13-88.48-5.84-26.4-11.55-55.22-27.21-77.83-15.35-22.16-39.91-35.49-62.9-48.32-24.86-13.88-50.37-26.61-76.45-38.05-52.27-22.95-106.74-41.05-162.08-54.97C684.37,9.53,625.35-.03,565.98-1.73c-29.17-.84-58.31.73-87.41,2.53-28.79,1.78-57.31,4.82-85.55,10.78-109.93,23.18-219.57,56.57-315.98,115.58-20.84,12.75-42.92,26.57-56.22,47.71-14.81,23.55-15.67,54.02-18.69,80.89-3.44,30.62-6.21,62.03-2.56,92.76,3.06,25.77,13.14,50.43,26.86,72.33,6.53,10.41,14.08,19.81,21.93,29.22,2.06,2.47,5.58-1.08,3.54-3.54h0Z"/>
      <path d="m172.89,223.06c13.74-16.83,30.17-31.42,49.42-41.67,17.73-9.44,37.14-16.28,56.01-23.04,46.03-16.48,93.7-28.38,142.12-35.22,101.71-14.37,205.66-5.57,304.35,22.31,29.68,8.38,58.88,18.43,87.49,29.93,30.3,12.18,59.4,26.49,88.58,41.07,2.87,1.43,5.41-2.88,2.52-4.32-25.87-12.93-51.63-25.74-78.34-36.89-26.39-11.02-53.29-20.82-80.63-29.22-50.77-15.6-103.05-26.35-155.94-31.43-100.27-9.62-201.95,2.04-297.45,34.07-22.74,7.63-45.85,15.82-67.39,26.44-21.2,10.45-39.4,26.19-54.29,44.42-2.02,2.47,1.5,6.03,3.54,3.54h0Z"/>
    </g>
  </g>
</svg>