<?xml version="1.0" encoding="UTF-8"?>
<svg id="Layer_1" data-name="Layer 1" xmlns="http://www.w3.org/2000/svg" viewBox="0 0 112 112">
  <defs>
    <style>
      .cls-1 {
        fill: #fff;
      }

      .cls-2 {
        fill: #5abced;
      }

      .cls-3 {
        fill: #0279ad;
      }

      .cls-4 {
        fill: #a9f7ed;
        opacity: .5;
      }

      .cls-5 {
        fill: #bbdff9;
      }

      .cls-6 {
        fill: #308ac1;
      }
    </style>
  </defs>
  <g id="DIVE_BALL" data-name="DIVE BALL">
    <circle id="blackoutline" cx="56" cy="56" r="56"/>
    <circle id="ballblue" class="cls-6" cx="56" cy="56" r="52.07"/>
    <path id="shadowbottom" class="cls-3" d="m104.99,76.92c-8.42,17.41-28.36,31.15-48.99,31.15-11.57,0-22.37-3.76-31.01-10.15l17-5c19,9,23,8,40.52-.47l22.48-15.53Z"/>
    <path id="ballhighlight" class="cls-2" d="m4.29,53.49c8.79,9.78,21.53,15.93,35.71,15.93,26.51,0,29-6.5,45-21.5.87-.82,11-11,19-6,2.34,1.46.08-7.39-5-15-4.31-6.45-11.41-11.7-11.47-12.18-8.72-6.67-19.62-10.64-31.45-10.64C28.26,4.1,5.57,26,4.29,53.49Z"/>
    <path id="bluedetail" class="cls-5" d="m101.99,35.92c1.2,2.39,1.75,1.12,1.23-1.83-6.87-14.77-20.45-25.79-36.83-29.11-2.43,4.23-11.82,19.78-18.12,18.46-6.99-1.46-8.88-12.58-8.25-17-10.6,3.41-19.7,10.12-26.12,18.93-.26,5.51-.64,25.2,7.08,28.6,7.35,3.23,18.03-10.84,21.7-16.12,1.19-1.71,3.16-2.79,5.25-2.69.79.04,1.54.25,2.05.77,1.71,1.74,1.01.61,5.01,6.3,3.99,5.7,7.73,12.75,14.86,12.22,6.22-.46,12.33-7.36,17.11-16.41,1.74-3.29,5.13-5.48,8.85-5.42,2.45.04,4.92.8,6.17,3.3Z"/>
    <ellipse id="tealshine" class="cls-4" cx="30.1" cy="35.17" rx="30.08" ry="18.09" transform="translate(-15.91 40.25) rotate(-55.74)"/>
    <ellipse id="shine" class="cls-1" cx="32.59" cy="31.73" rx="14.33" ry="12" transform="translate(-10.41 46.57) rotate(-63.27)"/>
    <path id="blackdivide" d="m54.99,76.61c-.06.02-.11.05-.17.07-1.09-7.78-7.75-13.77-15.83-13.77-6.06,0-11.33,3.37-14.05,8.33h0c-11.05-.67-22.95-10.33-22.95-10.33l2.29,13.74c10.92,4.52,16.48,6.32,18.96,7.01,1.31,7.52,7.85,13.25,15.75,13.25,6.34,0,11.8-3.69,14.39-9.04,0,0,.01.02.01.02,35.4,2.98,48.6-7.98,51.86-9.06,3.26-1.08,3.74-15.92,3.74-15.92-21.22,19-54,15.7-54,15.7Z"/>
    <circle id="outerwhite" class="cls-1" cx="38.99" cy="78.92" r="12"/>
    <circle id="blackring" cx="38.99" cy="78.92" r="8"/>
    <circle id="centerwhite" class="cls-1" cx="38.99" cy="78.92" r="6"/>
  </g>
</svg>