<?xml version="1.0" encoding="UTF-8"?>
<svg id="Dive_Ball" data-name="Dive Ball" xmlns="http://www.w3.org/2000/svg" viewBox="0 0 141.7 141.7">
  <defs>
    <style>
      .cls-1 {
        fill: #2c53a5;
      }

      .cls-2 {
        fill: #d8d8d8;
      }

      .cls-3 {
        fill: #43beee;
      }

      .cls-4 {
        fill: #2c77bd;
      }

      .cls-5 {
        fill: #171717;
      }

      .cls-6 {
        fill: #f0f9f9;
      }
    </style>
  </defs>
  <path id="black_dive" class="cls-5" d="M132.26,75.57h-9.45v-9.45h9.45v9.45Zm0,0h-9.45v9.45h9.45v-9.45Zm-9.45,0h-9.45v9.45h9.45v-9.45Zm-9.45,0h-9.45v9.45h9.45v-9.45Zm0,9.45h-9.45v9.45h9.45v-9.45Zm9.45,0h-9.45v9.45h9.45v-9.45Zm-18.89,0h-9.45v9.45h9.45v-9.45Zm-56.68-18.89h-9.45v9.45h9.45v-9.45Zm-9.45,9.45h-9.45v9.45h9.45v-9.45Zm-9.45,18.89h9.45v-9.45h-9.45v9.45Zm0,9.45h9.45v-9.45h-9.45v9.45Zm9.45,9.45h9.45v-9.45h-9.45v9.45Zm-18.89-18.89h9.45v-9.45h-9.45v9.45Zm0-9.45h9.45v-9.45h-9.45v9.45Zm-9.45,0h9.45v-9.45H9.45v9.45Zm0-9.45h9.45v-9.45H9.45v9.45Zm56.68-9.45h-9.45v9.45h9.45v-9.45Zm9.45,9.45h-9.45v9.45h9.45v-9.45Zm0,18.89v-9.45h-9.45v9.45h9.45Zm9.45,0v-9.45h-9.45v9.45h9.45Zm0,9.45v-9.45h-9.45v9.45h9.45Zm9.45,0v-9.45h-9.45v9.45h9.45Zm9.45,0v-9.45h-9.45v9.45h9.45Zm-9.45-9.45v-9.45h-9.45v9.45h9.45Zm-18.89,9.45v-9.45h-9.45v9.45h9.45Zm-9.45,9.45v-9.45h-9.45v9.45h9.45Zm-9.45,0v-9.45h-9.45v9.45h9.45Zm0-47.23h-9.45v9.45h9.45v-9.45Zm0-66.13h-9.45V9.45h9.45V0Zm-9.45,9.45h-9.45v9.45h9.45V9.45Zm-9.45,0h-9.45v9.45h9.45V9.45Zm-9.45,9.45h-9.45v9.45h9.45v-9.45Zm-9.45,9.45H9.45v9.45h9.45v-9.45Zm0,9.45H9.45v9.45h9.45v-9.45Zm-9.45,9.45H0v9.45H9.45v-9.45Zm0,9.45H0v9.45H9.45v-9.45Zm0,9.45H0v9.45H9.45v-9.45Zm0,9.45H0v9.45H9.45v-9.45Zm0,9.45H0v9.45H9.45v-9.45Zm9.45,9.45H9.45v9.45h9.45v-9.45Zm0,9.45H9.45v9.45h9.45v-9.45Zm9.45,9.45h-9.45v9.45h9.45v-9.45Zm9.45,9.45h-9.45v9.45h9.45v-9.45Zm9.45,0h-9.45v9.45h9.45v-9.45Zm9.45,9.45h-9.45v9.45h9.45v-9.45Zm9.45,0h-9.45v9.45h9.45v-9.45Zm9.45,0h-9.45v9.45h9.45v-9.45Zm9.45,0h-9.45v9.45h9.45v-9.45Zm9.45,0h-9.45v9.45h9.45v-9.45Zm9.45-9.45h-9.45v9.45h9.45v-9.45Zm9.45,0h-9.45v9.45h9.45v-9.45Zm9.45-9.45h-9.45v9.45h9.45v-9.45Zm9.45-9.45h-9.45v9.45h9.45v-9.45Zm0-9.45h-9.45v9.45h9.45v-9.45Zm9.45-9.45h-9.45v9.45h9.45v-9.45Zm0-9.45h-9.45v9.45h9.45v-9.45Zm0-9.45h-9.45v9.45h9.45v-9.45Zm0-9.45h-9.45v9.45h9.45v-9.45Zm0-9.45h-9.45v9.45h9.45v-9.45Zm-9.45-9.45h-9.45v9.45h9.45v-9.45Zm0-9.45h-9.45v9.45h9.45v-9.45Zm-9.45-9.45h-9.45v9.45h9.45v-9.45Zm-9.45-9.45h-9.45v9.45h9.45V9.45Zm-9.45,0h-9.45v9.45h9.45V9.45ZM66.13,0h-9.45V9.45h9.45V0Zm9.45,0h-9.45V9.45h9.45V0Zm9.45,0h-9.45V9.45h9.45V0Zm9.45,0h-9.45V9.45h9.45V0Z"/>
  <path id="grey_dive" class="cls-2" d="M85.02,66.13v-9.45h9.45v9.45h-9.45Zm-37.79,9.45h-9.45v9.45h9.45v-9.45Zm18.89,0h-9.45v9.45h9.45v-9.45Zm0,18.89h-9.45v9.45h9.45v-9.45Zm-18.89,0h-9.45v9.45h9.45v-9.45ZM94.47,18.89h-9.45v9.45h9.45v-9.45Zm-56.68,0h-9.45v9.45h9.45v-9.45Zm9.45,18.89h-9.45v9.45h9.45v-9.45Zm37.79,18.89h-9.45v9.45h9.45v-9.45Zm0-9.45h-9.45v9.45h9.45v-9.45Zm-9.45-9.45h-9.45v9.45h9.45v-9.45Zm18.89,0h-9.45v9.45h9.45v-9.45Zm9.45,0h-9.45v9.45h9.45v-9.45Zm0-9.45h-9.45v9.45h9.45v-9.45Zm-9.45,0h-9.45v9.45h9.45v-9.45Zm-66.13,0h-9.45v9.45h9.45v-9.45Zm9.45,18.89h-9.45v9.45h9.45v-9.45ZM94.47,9.45h-9.45v9.45h9.45V9.45Zm9.45,9.45h-9.45v9.45h9.45v-9.45Zm9.45,9.45h-9.45v9.45h9.45v-9.45Zm0,9.45h-9.45v9.45h9.45v-9.45Zm-9.45,9.45h-9.45v9.45h9.45v-9.45Zm-9.45,0h-9.45v9.45h9.45v-9.45Z"/>
  <path id="white_dive" class="cls-6" d="M56.68,85.02h-9.45v-9.45h9.45v9.45Zm0,0h-9.45v9.45h9.45v-9.45Zm-9.45,0h-9.45v9.45h9.45v-9.45Zm18.89,0h-9.45v9.45h9.45v-9.45Zm-9.45,9.45h-9.45v9.45h9.45v-9.45ZM47.23,18.89h-9.45v9.45h9.45v-9.45Zm37.79,0h-9.45v9.45h9.45v-9.45Zm-47.23,9.45h-9.45v9.45h9.45v-9.45Zm0,9.45h-9.45v9.45h9.45v-9.45Zm18.89,0h-9.45v9.45h9.45v-9.45Zm28.34,0h-9.45v9.45h9.45v-9.45Zm0-9.45h-9.45v9.45h9.45v-9.45Zm-9.45,0h-9.45v9.45h9.45v-9.45Zm-9.45,0h-9.45v9.45h9.45v-9.45Zm-9.45,0h-9.45v9.45h9.45v-9.45Zm-9.45,0h-9.45v9.45h9.45v-9.45Zm-18.89,9.45h-9.45v9.45h9.45v-9.45Zm0,9.45h-9.45v9.45h9.45v-9.45Z"/>
  <path id="lightblue_dive" class="cls-3" d="M103.91,28.34v-9.45h9.45v9.45h-9.45Zm18.89,9.45v-9.45h-9.45v9.45h9.45Zm0,9.45v-9.45h-9.45v9.45h9.45Zm-9.45,9.45v-9.45h-9.45v9.45h9.45Zm-9.45,9.45v-9.45h-9.45v9.45h9.45ZM56.68,9.45h-9.45v9.45h9.45V9.45Zm0,9.45h-9.45v9.45h9.45v-9.45Zm9.45,0h-9.45v9.45h9.45v-9.45Zm9.45,0h-9.45v9.45h9.45v-9.45Zm-28.34,28.34h-9.45v9.45h9.45v-9.45Zm28.34,9.45h-9.45v9.45h9.45v-9.45Zm0-9.45h-9.45v9.45h9.45v-9.45Zm-9.45-9.45h-9.45v9.45h9.45v-9.45Zm-28.34,18.89h-9.45v9.45h9.45v-9.45Zm-9.45,0h-9.45v9.45h9.45v-9.45ZM66.13,9.45h-9.45v9.45h9.45V9.45Zm9.45,0h-9.45v9.45h9.45V9.45Zm9.45,0h-9.45v9.45h9.45V9.45Z"/>
  <path id="blue_dive" class="cls-4" d="M9.45,56.68v-9.45h9.45v9.45H9.45Zm9.45,9.45v-9.45H9.45v9.45h9.45Zm9.45,9.45v-9.45h-9.45v9.45h9.45Zm9.45,0v-9.45h-9.45v9.45h9.45Zm85.02-18.89v-9.45h-9.45v9.45h9.45Zm-37.79,18.89v-9.45h-9.45v9.45h9.45Zm-9.45,0v-9.45h-9.45v9.45h9.45Zm18.89,0v-9.45h-9.45v9.45h9.45Zm9.45,0v-9.45h-9.45v9.45h9.45Zm9.45-9.45v-9.45h-9.45v9.45h9.45Zm-66.13-9.45h-9.45v9.45h9.45v-9.45Zm9.45,0h-9.45v9.45h9.45v-9.45Zm9.45,0h-9.45v9.45h9.45v-9.45Zm0-9.45h-9.45v9.45h9.45v-9.45Zm-9.45,0h-9.45v9.45h9.45v-9.45Zm28.34,56.68h-9.45v9.45h9.45v-9.45Zm-9.45,0h-9.45v9.45h9.45v-9.45Zm-18.89,9.45h-9.45v9.45h9.45v-9.45Zm-37.79-28.34H9.45v9.45h9.45v-9.45Zm9.45,9.45h-9.45v9.45h9.45v-9.45Z"/>
  <path id="darkblue_dive" class="cls-1" d="M122.81,56.68v-9.45h9.45v9.45h-9.45Zm-37.79,28.34v-9.45h-9.45v9.45h9.45Zm9.45,0v-9.45h-9.45v9.45h9.45Zm9.45,0v-9.45h-9.45v9.45h9.45Zm9.45-9.45v-9.45h-9.45v9.45h9.45Zm9.45-9.45v-9.45h-9.45v9.45h9.45Zm9.45,0v-9.45h-9.45v9.45h9.45Zm-9.45,9.45v-9.45h-9.45v9.45h9.45Zm0,18.89h-9.45v9.45h9.45v-9.45Zm9.45-9.45h-9.45v9.45h9.45v-9.45Zm-9.45,18.89h-9.45v9.45h9.45v-9.45Zm-18.89,0h-9.45v9.45h9.45v-9.45Zm-9.45,9.45h-9.45v9.45h9.45v-9.45Zm-9.45,0h-9.45v9.45h9.45v-9.45Zm-9.45,9.45h-9.45v9.45h9.45v-9.45Zm9.45,0h-9.45v9.45h9.45v-9.45Zm9.45,0h-9.45v9.45h9.45v-9.45Zm-28.34,0h-9.45v9.45h9.45v-9.45Zm-9.45,0h-9.45v9.45h9.45v-9.45Zm-18.89-9.45h-9.45v9.45h9.45v-9.45Zm-9.45-9.45h-9.45v9.45h9.45v-9.45Zm9.45,0h-9.45v9.45h9.45v-9.45Zm66.13,9.45h-9.45v9.45h9.45v-9.45Zm9.14,0h-9.45v9.45h9.45v-9.45Zm.31-9.45h-9.45v9.45h9.45v-9.45Zm0-9.45h-9.45v9.45h9.45v-9.45Zm-18.89,9.45h-9.45v9.45h9.45v-9.45Zm-18.89,9.45h-9.45v9.45h9.45v-9.45Zm-9.45,0h-9.45v9.45h9.45v-9.45Zm-18.89,0h-9.45v9.45h9.45v-9.45Z"/>
</svg>