<?xml version="1.0" encoding="UTF-8"?>
<svg id="mudkip" xmlns="http://www.w3.org/2000/svg" viewBox="0 0 406 426.94">
  <defs>
    <style>
      .cls-1 {
        fill: #fff;
      }

      .cls-2 {
        fill: #66c7ff;
      }

      .cls-3 {
        fill: #ffb65b;
      }

      .cls-4 {
        fill: #e8feff;
      }

      .cls-5 {
        fill: none;
        stroke: #000;
        stroke-miterlimit: 10;
        stroke-width: 2px;
      }

      .cls-6 {
        fill: #351c00;
      }
    </style>
  </defs>
  <g>
    <path class="cls-4" d="m403.66,200.4c1.8,3.17,1.93,7.01,1.81,10.66-.29,8.81-1.73,17.46-4.04,25.92l-.33-.09c-12.91-3.98-26.69,1.87-38.41,8.58-28.87,16.53-55.89,41.24-75.52,68.1l-.4.18c-3.8-8.39-7.26-16.94-10.35-25.62-.39-1.12-.79-2.31-.5-3.46.26-1.04,1.05-1.85,1.78-2.63,7.77-8.18,13.96-17.84,18.17-28.3,11.07-12.94,25.92-27.57,39.36-37.74,13.73-10.4,29.46-18.5,46.39-21.69,8.01-1.51,18.02-1.01,22.04,6.09Z"/>
    <path class="cls-4" d="m401.1,236.89l.33.09c-4.73,17.39-13.09,33.97-22.56,49.42-10.63,17.36-22.77,33.79-36.26,49.05l-.82-.72c-16.28,11.6-37.5,16-57.05,11.84l-2.2-.02c-.34-9.96-1.89-19.96-4.36-28.93,3.43-.15,6.85-.21,10.28-.21-.57-1.21-1.13-2.43-1.69-3.66l.4-.18c19.63-26.86,46.65-51.57,75.52-68.1,11.72-6.71,25.5-12.56,38.41-8.58Z"/>
    <path class="cls-4" d="m341.79,334.73l.82.72c-3.87,4.4-7.86,8.69-11.95,12.89-7.81,8.01-16.06,15.69-25.45,21.78-7.38,4.8-17.25,8.94-26.04,8.45l-.36-.11c.68-2.19,1.25-4.4,1.72-6.6,1.71-7.94,2.32-16.61,2.01-25.31l2.2.02c19.55,4.16,40.77-.24,57.05-11.84Z"/>
    <path class="cls-3" d="m257.29,262.19c13.29-4.04,26.59-8.02,39.91-11.95-.42,1.18-.86,2.35-1.33,3.5-4.21,10.46-10.4,20.12-18.17,28.3-.73.78-1.52,1.59-1.78,2.63-.29,1.15.11,2.34.5,3.46,3.09,8.68,6.55,17.23,10.35,25.62.56,1.23,1.12,2.45,1.69,3.66-3.43,0-6.85.06-10.28.21-7.88.3-15.75.97-23.58,2.02-1.79,8.47-4.99,16.65-9.45,24.07-6.46-7.89-13.55-15.24-21.2-21.96-2.09,1.66-5.89,4.58-8.13,5.75-8.94,4.66-18.4,8.34-28.15,10.95l-.06-.22c-.31,0-1.08-.44-2.97-1.33-10.13-4.78-9.56-20.11-7.95-31.71.1-.73.2-1.44.31-2.14,1.81-11.78,7.03-22.73,12.77-33.17,8.6-15.63,18.94-30.98,33.89-40.7,6.19-4.03,13.82-7.06,20.86-4.84,7.66,2.41,12.16,10.12,15.93,17.2l.14-.02c.1.92.18,1.84.24,2.76.38,5.97-.1,12.42-3.78,17.13l.24.78Z"/>
    <path class="cls-2" d="m244.04,382.37c-1.77,1.21-3.61,2.23-5.49,3.03-.69,1.78-1.42,3.53-2.16,5.27-3.95,9.22-8.5,18.43-15.63,25.48-7.14,7.06-17.34,11.68-27.21,9.91-2.76-.5-5.53-1.54-7.43-3.59-4.41-4.75-2.53-12.28-.84-18.53,2.24-8.28,3.63-16.79,4.17-25.35.28-4.51.33-9.03.14-13.53l-.51.02c-4.86-7.47-8.21-15.9-9.81-24.66,2.82-.56,5.62-1.22,8.4-1.97,9.75-2.61,19.21-6.29,28.15-10.95,2.24-1.17,6.04-4.09,8.13-5.75,7.65,6.72,14.74,14.07,21.2,21.96,4.46-7.42,7.66-15.6,9.45-24.07,7.83-1.05,15.7-1.72,23.58-2.02,2.47,8.97,4.02,18.97,4.36,28.93.31,8.7-.3,17.37-2.01,25.31-.47,2.2-1.04,4.41-1.72,6.6-4.19,13.59-12.36,26.44-25.55,30.93-2.57.87-5.67,1.3-7.75-.43-1.51-1.26-2.05-3.31-2.39-5.24-1.05-5.95-.18-15.23,1.05-21.15l-.13-.2Z"/>
    <path class="cls-2" d="m157.18.76c3.13.3,6.2.93,9.11,2.08,8.26,3.29,14.42,10.6,18.07,18.71,3.65,8.1,5.06,17.02,6.14,25.84,4.27,34.65,3.93,70.36-6.03,103.83l1.12.98c17.13,1.9,31.54,13.63,43.17,26.35,16.15,17.66,29.45,39.25,31.83,62.97l-.14.02c-3.77-7.08-8.27-14.79-15.93-17.2-7.04-2.22-14.67.81-20.86,4.84-14.95,9.72-25.29,25.07-33.89,40.7-5.74,10.44-10.96,21.39-12.77,33.17-.11.7-.21,1.41-.31,2.14l-2.29-.31c-31.68-13.45-67.27-13.11-101.69-12.51-8.43-23.06-18.81-45.4-31-66.72l-1.37-.14c2.09-6.12,4.8-12.03,8.03-17.6,10.48-18.09,26.02-32.81,42.99-45.01,5.58-4,11.43-7.81,17.97-9.93l1.35-.28c-5.85-27.73-8.95-55.99-8.36-84.3.28-13.23,1.42-26.7,6.5-38.91,5.08-12.22,14.66-23.13,27.31-27.02,4.55-1.41,9.35-1.87,14.11-1.95,2.31-.04,4.64,0,6.94.25Zm10.89,250.53c.28-1.97.4-3.89.37-5.72-.1-7.79-2.86-13.83-7.08-14.44-3.9-.56-7.93,3.73-10.32,10.3-.79,2.17-1.4,4.58-1.77,7.16-1.49,10.39,1.51,19.41,6.71,20.16,5.19.74,10.61-7.08,12.09-17.46Zm-69-5.37c.26-1.84.39-3.64.38-5.35-.02-7.97-2.81-14.19-7.09-14.81-3.96-.56-8.04,3.84-10.42,10.57-.74,2.1-1.32,4.42-1.67,6.89-1.49,10.39,1.51,19.41,6.71,20.16,5.19.74,10.61-7.08,12.09-17.46Z"/>
    <path class="cls-4" d="m156.11,367.72c-13.37-7.26-25.55-17.37-33.94-28.15l.05-.36c-8.5-1.19-16.93-2.97-25.04-5.62-5.93-1.93-11.7-4.32-17.21-7.27h0s.06-.11.06-.11c.9-9.3-1.92-18.53-5-27.35-.75-2.17-1.53-4.33-2.32-6.49,34.42-.6,70.01-.94,101.69,12.51l2.29.31c-1.61,11.6-2.18,26.93,7.95,31.71,1.89.89,2.66,1.33,2.97,1.33l.06.22c-2.78.75-5.58,1.41-8.4,1.97,1.6,8.76,4.95,17.19,9.81,24.66l.51-.02c.19,4.5.14,9.02-.14,13.53l-.28-.02c-10.89-1.05-22.36-5.03-33.06-10.85Z"/>
    <path class="cls-6" d="m168.44,245.57c.03,1.83-.09,3.75-.37,5.72-1.48,10.38-6.9,18.2-12.09,17.46-5.2-.75-8.2-9.77-6.71-20.16.37-2.58.98-4.99,1.77-7.16l.56.21c-.42,1.08-.06,2.35.69,3.23.74.88,1.81,1.43,2.89,1.82,3.7,1.35,9.47.65,12.99-1.12h.27Z"/>
    <path class="cls-1" d="m168.44,245.57h-.27c-3.52,1.77-9.29,2.47-12.99,1.12-1.08-.39-2.15-.94-2.89-1.82-.75-.88-1.11-2.15-.69-3.23l-.56-.21c2.39-6.57,6.42-10.86,10.32-10.3,4.22.61,6.98,6.65,7.08,14.44Z"/>
    <path class="cls-2" d="m122.17,339.57c8.39,10.78,20.57,20.89,33.94,28.15-3.13,8.09-8.22,19.88-13.58,26.65-5.4,6.81-13.32,12.12-22,12.33-4.29.1-9.34-1.79-10.22-5.98-.46-2.17.33-4.37.88-6.52,2.8-11.03-.86-22.57-4.57-33.34-2.96-8.57-6.43-18.7-9.44-27.27,8.11,2.65,16.54,4.43,25.04,5.62l-.05.36Z"/>
    <path class="cls-6" d="m99.45,240.57c.01,1.71-.12,3.51-.38,5.35-1.48,10.38-6.9,18.2-12.09,17.46-5.2-.75-8.2-9.77-6.71-20.16.35-2.47.93-4.79,1.67-6.89l.47.16c.62,3.1,2.95,5.79,5.92,6.85s8.41-.76,10.84-2.77h.28Z"/>
    <path class="cls-1" d="m99.45,240.57h-.28c-2.43,2.01-7.87,3.83-10.84,2.77s-5.3-3.75-5.92-6.85l-.47-.16c2.38-6.73,6.46-11.13,10.42-10.57,4.28.62,7.07,6.84,7.09,14.81Z"/>
    <path class="cls-3" d="m35.76,247.96c.5-7.61,2.09-15.17,4.58-22.45l1.37.14c12.19,21.32,22.57,43.66,31,66.72.79,2.16,1.57,4.32,2.32,6.49,3.08,8.82,5.9,18.05,5,27.35l-.06.1s-.07-.03-.1-.05c-6.35-3.42-12.34-7.67-17.61-12.62l-1.7.6-10.89,14.1c-.79,1.02-1.78,2.14-3.07,2.07-1.36-.07-2.24-1.41-2.89-2.6-3.51-6.37-7.01-12.75-10.51-19.12-.77-1.39-1.62-2.87-3.05-3.54-1.03-.49-2.2-.49-3.33-.48-6.04.04-12.07.08-18.11.12-.97,0-2.05-.04-2.71-.74s-.64-1.78-.53-2.73c1.02-9.63,6.18-18.24,10.31-27,.72-1.51,1.42-3.11,1.37-4.78-.05-1.82-.99-3.49-1.9-5.08-4.63-8.03-9.25-16.07-13.88-24.1-.9-1.58-1.49-4.15.23-4.75.52-.18,1.09-.07,1.63.04,11.19,2.33,22.01,6.49,31.87,12.27l.66.04Z"/>
  </g>
  <g>
    <path class="cls-5" d="m123.27,199.77c-4.99-15.46-9.25-31.18-12.59-47.08-5.85-27.73-8.95-55.99-8.36-84.3.28-13.23,1.42-26.7,6.5-38.91,5.08-12.22,14.66-23.13,27.31-27.02,4.55-1.41,9.35-1.87,14.11-1.95,2.31-.04,4.64,0,6.94.25,3.13.3,6.2.93,9.11,2.08,8.26,3.29,14.42,10.6,18.07,18.71,3.65,8.1,5.06,17.02,6.14,25.84,4.27,34.65,3.93,70.36-6.03,103.83"/>
    <path class="cls-5" d="m109.33,152.97c-6.54,2.12-12.39,5.93-17.97,9.93-16.97,12.2-32.51,26.92-42.99,45.01-3.23,5.57-5.94,11.48-8.03,17.6-2.49,7.28-4.08,14.84-4.58,22.45-.45,6.76-.04,13.56,1.37,20.22"/>
    <path class="cls-5" d="m35.1,247.92c-9.86-5.78-20.68-9.94-31.87-12.27-.54-.11-1.11-.22-1.63-.04-1.72.6-1.13,3.17-.23,4.75,4.63,8.03,9.25,16.07,13.88,24.1.91,1.59,1.85,3.26,1.9,5.08.05,1.67-.65,3.27-1.37,4.78-4.13,8.76-9.29,17.37-10.31,27-.11.95-.13,2.03.53,2.73s1.74.74,2.71.74c6.04-.04,12.07-.08,18.11-.12,1.13-.01,2.3-.01,3.33.48,1.43.67,2.28,2.15,3.05,3.54,3.5,6.37,7,12.75,10.51,19.12.65,1.19,1.53,2.53,2.89,2.6,1.29.07,2.28-1.05,3.07-2.07l10.89-14.1"/>
    <path class="cls-5" d="m44.93,287.66c3.49,9.95,9.64,18.73,17.33,25.98,5.27,4.95,11.26,9.2,17.61,12.62.03.02.07.04.1.05h0c5.51,2.96,11.28,5.35,17.21,7.28,8.11,2.65,16.54,4.43,25.04,5.62,2.89.42,5.79.76,8.69,1.05"/>
    <path class="cls-5" d="m224.17,321.57c-.07.06-.14.11-.22.18-2.09,1.66-5.89,4.58-8.13,5.75-8.94,4.66-18.4,8.34-28.15,10.95-2.78.75-5.58,1.41-8.4,1.97-7.18,1.46-14.48,2.35-21.8,2.65"/>
    <path class="cls-5" d="m218.88,317.45c1.71,1.4,3.4,2.83,5.07,4.3,7.65,6.72,14.74,14.07,21.2,21.96,4.46-7.42,7.66-15.6,9.45-24.07,7.83-1.05,15.7-1.72,23.58-2.02,3.43-.15,6.85-.21,10.28-.21-.57-1.21-1.13-2.43-1.69-3.66-3.8-8.39-7.26-16.94-10.35-25.62-.39-1.12-.79-2.31-.5-3.46.26-1.04,1.05-1.85,1.78-2.63,7.77-8.18,13.96-17.84,18.17-28.3.47-1.15.91-2.32,1.33-3.5-13.32,3.93-26.62,7.91-39.91,11.95-4.56,1.38-9.13,2.77-13.69,4.17"/>
    <path class="cls-5" d="m185.59,152.2c17.13,1.9,31.54,13.63,43.17,26.35,16.15,17.66,29.45,39.25,31.83,62.97.1.92.18,1.84.24,2.76.38,5.97-.1,12.42-3.78,17.13"/>
    <path class="cls-5" d="m80.03,326.21c.9-9.3-1.92-18.53-5-27.35-.75-2.17-1.53-4.33-2.32-6.49-8.43-23.06-18.81-45.4-31-66.72"/>
    <path class="cls-5" d="m260.45,241.54c-3.77-7.08-8.27-14.79-15.93-17.2-7.04-2.22-14.67.81-20.86,4.84-14.95,9.72-25.29,25.07-33.89,40.7-5.74,10.44-10.96,21.39-12.77,33.17-.11.7-.21,1.41-.31,2.14-1.61,11.6-2.18,26.93,7.95,31.71,1.89.89,2.66,1.33,2.97,1.33.27,0,.2-.33.22-.99"/>
    <path class="cls-5" d="m97.17,333.57s0,.01.01.02c3.01,8.57,6.48,18.7,9.44,27.27,3.71,10.77,7.37,22.31,4.57,33.34-.55,2.15-1.34,4.35-.88,6.52.88,4.19,5.93,6.08,10.22,5.98,8.68-.21,16.6-5.52,22-12.33,5.36-6.77,10.45-18.56,13.58-26.65l.06-.15"/>
    <path class="cls-5" d="m122.17,339.57c8.39,10.78,20.57,20.89,33.94,28.15,10.7,5.82,22.17,9.8,33.06,10.85"/>
    <path class="cls-5" d="m189.08,365.08c-4.86-7.47-8.21-15.9-9.81-24.66l-.03-.15"/>
    <path class="cls-5" d="m189.14,358.47c.21,2.19.36,4.39.45,6.59.19,4.5.14,9.02-.14,13.53-.54,8.56-1.93,17.07-4.17,25.35-1.69,6.25-3.57,13.78.84,18.53,1.9,2.05,4.67,3.09,7.43,3.59,9.87,1.77,20.07-2.85,27.21-9.91,7.13-7.05,11.68-16.26,15.63-25.48.74-1.74,1.47-3.49,2.16-5.27,3.39-8.66,5.9-17.73,5.04-26.91"/>
    <path class="cls-5" d="m238.17,385.57c.13-.05.25-.11.38-.17,1.88-.8,3.72-1.82,5.49-3.03,8.65-5.88,15.51-16.03,16.61-25.96"/>
    <path class="cls-5" d="m244.17,382.57c-1.23,5.92-2.1,15.2-1.05,21.15.34,1.93.88,3.98,2.39,5.24,2.08,1.73,5.18,1.3,7.75.43,13.19-4.49,21.36-17.34,25.55-30.93.68-2.19,1.25-4.4,1.72-6.6,1.71-7.94,2.32-16.61,2.01-25.31-.34-9.96-1.89-19.96-4.36-28.93,0-.02-.01-.03-.01-.05"/>
    <path class="cls-5" d="m279.17,378.57c8.79.49,18.66-3.65,26.04-8.45,9.39-6.09,17.64-13.77,25.45-21.78,4.09-4.2,8.08-8.49,11.95-12.89,13.49-15.26,25.63-31.69,36.26-49.05,9.47-15.45,17.83-32.03,22.56-49.42,2.31-8.46,3.75-17.11,4.04-25.92.12-3.65,0-7.49-1.81-10.66-4.02-7.1-14.03-7.6-22.04-6.09-16.93,3.19-32.66,11.29-46.39,21.69-13.44,10.17-28.29,24.8-39.36,37.74-.23.28-.47.56-.7.83"/>
    <path class="cls-5" d="m401.1,236.89c-12.91-3.98-26.69,1.87-38.41,8.58-28.87,16.53-55.89,41.24-75.52,68.1"/>
    <path class="cls-5" d="m284.74,346.57c19.55,4.16,40.77-.24,57.05-11.84"/>
    <path class="cls-5" d="m174.4,304.88c-31.68-13.45-67.27-13.11-101.69-12.51-.11.01-.22.01-.33.01"/>
    <path class="cls-5" d="m105.23,280.8c-1.09-1.51-2.46-2.83-4.01-3.85"/>
    <path class="cls-5" d="m127.03,277.88c-1.63,1.03-3.17,2.19-4.61,3.47.2-.19.4-.39.6-.58"/>
    <path class="cls-5" d="m81.94,236.33c-.74,2.1-1.32,4.42-1.67,6.89-1.49,10.39,1.51,19.41,6.71,20.16,5.19.74,10.61-7.08,12.09-17.46.26-1.84.39-3.64.38-5.35-.02-7.97-2.81-14.19-7.09-14.81-3.96-.56-8.04,3.84-10.42,10.57Z"/>
    <path class="cls-5" d="m151.04,241.43c2.39-6.57,6.42-10.86,10.32-10.3,4.22.61,6.98,6.65,7.08,14.44.03,1.83-.09,3.75-.37,5.72-1.48,10.38-6.9,18.2-12.09,17.46-5.2-.75-8.2-9.77-6.71-20.16.37-2.58.98-4.99,1.77-7.16Z"/>
    <path class="cls-5" d="m122.17,12.57c6.34,10.65,5.85,21.86,7.5,34.15,5.83,43.53,8.94,70.93,8.5,114.85"/>
    <path class="cls-5" d="m157.17.57c0,.06,0,.13.01.19,1.74,53.02.2,103.54-1.05,156.59"/>
    <path class="cls-5" d="m82.41,236.49c.62,3.1,2.95,5.79,5.92,6.85s8.41-.76,10.84-2.77"/>
    <path class="cls-5" d="m151.6,241.64c-.42,1.08-.06,2.35.69,3.23.74.88,1.81,1.43,2.89,1.82,3.7,1.35,9.47.65,12.99-1.12"/>
  </g>
</svg>