<?xml version="1.0" encoding="UTF-8"?>
<svg id="skitty" xmlns="http://www.w3.org/2000/svg" viewBox="0 0 970.55 816.08">
  <defs>
    <style>
      .cls-1 {
        fill: none;
        stroke: #000;
        stroke-miterlimit: 10;
        stroke-width: 4px;
      }

      .cls-2 {
        fill: #ffbadf;
      }

      .cls-3 {
        fill: #ad60aa;
      }

      .cls-4 {
        fill: #fffbba;
      }
    </style>
  </defs>
  <g>
    <path class="cls-4" d="m347.49,702.41l-2.58.04c-61.16-4.47-120.58-44.37-150.85-97.74,2.86-1.12,4.46-3,5.28-5.31l1.38.17c18.29,23.16,38.37,45.27,62.43,62.37,24.05,17.11,52.43,29.04,81.93,30.14l2.26.08c-.06,1.39-.09,2.8-.08,4.2.01,2.02.09,4.04.23,6.05Z"/>
    <path class="cls-4" d="m44.52,105.93c10.54,9.16,12.13,26.67,3.88,37.93-.69.94-1.45,1.89-1.85,2.96-11.16,2.17-23.49,4.17-33.28-1.61-12.03-7.09-14.98-25.54-6.18-36.39,8.8-10.84,26.88-12.04,37.43-2.89Z"/>
    <path class="cls-4" d="m109.27,124.02c-9.88,0-19.25-7.3-22-16.81-2.82-9.76,1.24-20.98,9.36-27.08,8.11-6.11,19.69-6.99,28.86-2.64,3.64,1.72,6.93,4.2,9.45,7.33,6.19,7.66,7.09,19.18,2.16,27.7-4.92,8.52-15.35,13.5-25.07,11.97l-2.76-.47Z"/>
    <path class="cls-4" d="m212.48,86.25c11.61,3.27,19.68,15.89,18.07,27.85-1.61,11.96-12.48,21.91-24.52,22.76-1.68.12-3.49.13-4.84,1.14-.2.15-.39.32-.55.51-10.61-2.41-17.7-13.28-18.91-24.11-.5-4.47-.19-9.08,1.35-13.31,4.14-11.33,17.78-18.11,29.4-14.84Z"/>
    <path class="cls-3" d="m413.74,242.49c.4,1.17,1.66,2.32,2.76,1.75.07-.03.12-.08.17-.12l.98,1.01c-14.68,14.49-27.11,31.16-36.42,49.59-1.15,2.28-2.25,4.58-3.3,6.91l-2.24-.61c-6.34-10.12-10.48-21.46-14.04-32.86-5.35-17.13-9.52-34.79-9.98-52.73-.47-17.94,2.94-36.27,11.91-51.81,12.47,27.36,29.01,52.86,48.9,75.41.82.93.86,2.28,1.26,3.46Z"/>
    <path class="cls-2" d="m413.74,242.49c-.4-1.18-.44-2.53-1.26-3.46-19.89-22.55-36.43-48.05-48.9-75.41-8.97,15.54-12.38,33.87-11.91,51.81.46,17.94,4.63,35.6,9.98,52.73,3.56,11.4,7.7,22.74,14.04,32.86l2.24.61c1.05-2.33,2.15-4.63,3.3-6.91,9.31-18.43,21.74-35.1,36.42-49.59l-.98-1.01s-.1.09-.17.12c-1.1.57-2.36-.58-2.76-1.75Zm377.13,91.34c5.14-3.74,9.66-8.38,13.97-13.09,20.33-22.24,31.16-44.5,40.07-73.29,8.91-28.79,15.2-64.46,1.23-91.16-7.55,11.82-17.45,21.91-27.27,31.91-31.75,32.32-63.5,64.64-95.25,96.96l.29.29c12.02.53,32.8,10.14,42.26,17.57,9.46,7.44,16.93,17.17,22.91,27.62.61,1.06,1.2,2.12,1.79,3.19Zm-394.17,140.79c-9.09-13.62-17.48-27.79-23.49-43.02-13.36-33.89-13.96-72.11-3.71-107.14l-2.36-.69c-26.77-35.55-33.05-83.37-25.75-127.26,1.44-8.63,3.36-17.22,3.77-25.95,1.08-23.15-9.21-46.56-27-61.41-8.84-7.38-19.23-12.62-29.51-17.8,9.48-4.54,19.63-7.69,30.01-9.34l-.16-.99c-.41,0-.61-.48-.7-.88-3.01-12.86-6.03-25.71-9.04-38.57-1.06-4.52-1.88-9.94,1.4-13.23,10.11,9.1,20.23,18.19,30.34,27.29,2.52,2.27,5.15,4.59,8.32,5.76.13-16.07,7.89-32.04,20.72-41.78,3.1,22.87,6.48,46.54,18.85,66.03,15.57,24.54,42.92,38.68,69.44,50.56,26.22,11.74,53.83,23.04,73.22,44.16,40.71-9.42,84.18-7.92,126.26-4.86l.37.24h.01c3.71-5.94,8.83-11.32,14.02-15.96,35.88-32.15,81.77-50.69,127.58-65.6,17.28-5.62,35.91-11.64,46.76-26.23,6.13-8.25,9.07-18.43,11.04-28.53,2.31-11.89,3.44-24.01,3.35-36.12,16.63,8.59,26.64,28.43,23.69,46.91l.98,1.21c14.87-12.24,32.14-21.86,49.09-31.21,2.11,6.64.14,13.82-1.82,20.5-1.13,3.82-2.25,7.64-3.38,11.46-2.17,7.38-4.46,14.98-9.09,21.05,5.72-.83,11.46-1.21,17.21-.71,11.66,1.03,23.56,6.32,29.65,16.32-29.51-2.72-57.78,13.86-78.49,35.05-6.3,6.44-12.21,13.5-15.71,21.8-4.06,9.64-4.63,20.33-5.26,30.77-1.88,31.28-4.85,62.9-15.31,92.44-9.01,25.46-23.59,48.92-42.33,68.35l1.24,1.21c10.88,28.37,14.64,59.2,3,87.26-13.85,33.38-35.72,61.04-63,84.74-7.58,6.58-17.81,14.2-26,20-13.41,9.5-28.13,16.45-43.68,21.44l-.23-.72c28.22-19.35,51.4-45.99,66.67-76.62,4.6-9.23,8.53-18.93,10.06-29.13,1.28-8.52.86-17.2-.04-25.77-3.41-32.2-14.25-64.42-35.74-88.63-21.49-24.22-54.67-39.24-86.62-34.01l-.65.4c10.43,18.73,18.54,46.7,4.88,65.65-11.97,16.6-29.39,30.77-48.97,37.15-11.53,3.76-23.61,4.2-35.63,3.9-11.65-.29-23.37-1.22-34.7-4.04-20.44-5.08-38.25-17.29-49.37-35.32-11.69-18.95-14.47-42.79-7.68-63.99.73-2.27,1.42-4.9,3.17-6.63l-.11-.43c-41.92,10.32-73.87,46.29-83.86,88.25-7.68,35-.06,71.47,19.72,100.09l-.23.16c-1.77-2.51-3.51-5.04-5.2-7.58Z"/>
    <path class="cls-3" d="m766.17,303.02c-9.46-7.43-30.24-17.04-42.26-17.57l-.29-.29c31.75-32.32,63.5-64.64,95.25-96.96,9.82-10,19.72-20.09,27.27-31.91,13.97,26.7,7.68,62.37-1.23,91.16-8.91,28.79-19.74,51.05-40.07,73.29-4.31,4.71-8.83,9.35-13.97,13.09-.59-1.07-1.18-2.13-1.79-3.19-5.98-10.45-13.45-20.18-22.91-27.62Z"/>
    <path class="cls-4" d="m382.41,381.95c9.99-41.96,41.94-77.93,83.86-88.25l.11.43c-1.75,1.73-2.44,4.36-3.17,6.63-6.79,21.2-4.01,45.04,7.68,63.99,11.12,18.03,28.93,30.24,49.37,35.32,11.33,2.82,23.05,3.75,34.7,4.04,12.02.3,24.1-.14,35.63-3.9,19.58-6.38,37-20.55,48.97-37.15,13.66-18.95,5.55-46.92-4.88-65.65l.65-.4c31.95-5.23,65.13,9.79,86.62,34.01,21.49,24.21,32.33,56.43,35.74,88.63.9,8.57,1.32,17.25.04,25.77-1.53,10.2-5.46,19.9-10.06,29.13-15.27,30.63-38.45,57.27-66.67,76.62l.23.72c-15.43,4.97-31.68,8-48.29,9.68-32.88,3.32-67.17,1.37-99.3-1.4-16.86-1.45-33.87-3.3-49.87-8.8-.08-.03-.15-.05-.23-.08-34.27-11.85-60.63-39.25-81.64-69.09l.23-.16c-19.78-28.62-27.4-65.09-19.72-100.09Z"/>
    <path class="cls-4" d="m382.59,714.8c7.72,13.48,17.43,25.99,28.21,36.96,5.6,5.69,11.57,11.14,18.2,15.54l-1.96,1.27c-8.03,7.14-16.06,14.27-24.09,21.4-1.91,1.71-3.9,3.45-6.32,4.28-5.46,1.88-11.34-1.35-15.66-5.19-12.98-11.53-19.23-28.69-24.42-45.26-4.23-13.51-8.09-27.32-9.06-41.39-.14-2.01-.22-4.03-.23-6.05-.01-1.4.02-2.81.08-4.2.76-19.29,7.59-37.94,18-54.42-3.73,26.67,3.69,53.37,17.25,77.06Z"/>
    <path class="cls-4" d="m545.1,775c-2.61,10.61-6.26,20.87-12.71,29.58-3.49,4.72-8.3,9.13-14.16,9.48-5.1.3-9.83-2.55-13.91-5.62-11.38-8.58-20.67-19.88-27.03-32.62l-.4.2c-12.72,3.16-26.47,1.92-38.42-3.45-3.31-1.49-6.46-3.27-9.47-5.27-6.63-4.4-12.6-9.85-18.2-15.54-10.78-10.97-20.49-23.48-28.21-36.96,11.56,10.82,29.62,11.79,45.63,10.35,16.38-1.46,32.97-4.74,47.15-13.06,23.1-13.55,36.89-38.5,57.02-56.17,10.54-9.24,22.78-16.43,35.66-21.96,17.38-7.47,37.17-11.95,55.19-6.18,14.11,4.52,25.74,14.97,34.23,27.12,8.42,12.06,14.06,25.82,19.37,39.55-4.92,35.55-21.99,69.41-47.97,94.22-1.73,1.65-3.57,3.31-5.84,4.09-3.98,1.36-8.34-.26-12.07-2.21-10.91-5.72-20.21-14.49-26.53-25.07-11.96,5.08-24.61,8.49-37.52,9.97l-1.81-.45Z"/>
    <path class="cls-2" d="m222.41,570.95c2,4,1,8-2,9-5.96.99-16.4,1.09-22.39-1.45.4,6.32,3.41,15.02,1.32,20.9-.82,2.31-2.42,4.19-5.28,5.31-.21.09-.43.17-.65.24-8-4-14.07-13.99-19.5-20.5l-.48-.08c-1,5.61-3.36,10.59-5.02,15.58-2,3-7,5-10,3-8.91-4.95-4.1-17.73-4.63-26.89-1.54-1.44-3.35-3.13-3.87-3.61l-.02.02c-18.98-18.03-35.78-38.35-49.98-60.35-15-23.23-27.8-48.66-35.89-75.16-8.33-27.28-9.78-55.91-9.81-84.25-.03-27.92.93-56.55,10.7-83.04,7.99-21.67,22.1-42.23,42.79-53.41,6.72-3.62,14.1-6.2,21.69-7.54,12.18-2.17,24.89-1.17,36.2,3.72,2.84,1.22,5.59,2.69,8.22,4.42,20.06,13.17,28.68,37.25,34.95,59.26,8,28.09,15.53,56.44,20.93,85.16,5.51,29.34,8.47,58.34,1.9,87.77-6.53,29.21-15.75,57.96-23.9,86.76-1.66,5.86-3.3,11.72-4.95,17.59l.17.05c6.2,4.93,14.5,11.5,19.5,17.5Z"/>
    <path class="cls-2" d="m632.94,561.57c29.31,30.06,46.02,72.04,45.36,114.01-.1,6.31-.59,12.62-1.46,18.87-5.31-13.73-10.95-27.49-19.37-39.55-8.49-12.15-20.12-22.6-34.23-27.12-18.02-5.77-37.81-1.29-55.19,6.18-12.88,5.53-25.12,12.72-35.66,21.96-20.13,17.67-33.92,42.62-57.02,56.17-14.18,8.32-30.77,11.6-47.15,13.06-16.01,1.44-34.07.47-45.63-10.35-13.56-23.69-20.98-50.39-17.25-77.06,4.37-6.94,9.39-13.49,14.85-19.54,19.4-21.46,44.17-37.33,69.49-51.31,10.96-6.04,22.16-11.83,34.09-15.52,16,5.5,33.01,7.35,49.87,8.8,32.13,2.77,66.42,4.72,99.3,1.4Z"/>
  </g>
  <g>
    <path class="cls-1" d="m349.21,68.16c-.29-2.25-.42-4.51-.39-6.77.13-16.07,7.89-32.04,20.72-41.78,3.1,22.87,6.48,46.54,18.85,66.03,15.57,24.54,42.92,38.68,69.44,50.56,26.22,11.74,53.83,23.04,73.22,44.16.25.25.48.51.71.76"/>
    <path class="cls-1" d="m349.58,61.64c-.26-.08-.51-.16-.76-.25-3.17-1.17-5.8-3.49-8.32-5.76-10.11-9.1-20.23-18.19-30.34-27.29-3.28,3.29-2.46,8.71-1.4,13.23,3.01,12.86,6.03,25.71,9.04,38.57.09.4.29.88.7.88.41-.01.17-.86-.07-.54"/>
    <path class="cls-1" d="m337.11,80.67c-6.17-.08-12.35.37-18.45,1.34-10.38,1.65-20.53,4.8-30.01,9.34,10.28,5.18,20.67,10.42,29.51,17.8,17.79,14.85,28.08,38.26,27,61.41-.41,8.73-2.33,17.32-3.77,25.95-7.3,43.89-1.02,91.71,25.75,127.26"/>
    <path class="cls-1" d="m483.23,201.14c-24.29,10.46-46.77,25.43-65.58,43.99-14.68,14.49-27.11,31.16-36.42,49.59-1.15,2.28-2.25,4.58-3.3,6.91-3.33,7.39-6.15,15.03-8.43,22.83-10.25,35.03-9.65,73.25,3.71,107.14,6.01,15.23,14.4,29.4,23.49,43.02,1.69,2.54,3.43,5.07,5.2,7.58,21.01,29.84,47.37,57.24,81.64,69.09.08.03.15.05.23.08,16,5.5,33.01,7.35,49.87,8.8,32.13,2.77,66.42,4.72,99.3,1.4,16.61-1.68,32.86-4.71,48.29-9.68,15.55-4.99,30.27-11.94,43.68-21.44,8.19-5.8,18.42-13.42,26-20,27.28-23.7,49.15-51.36,63-84.74,11.64-28.06,7.88-58.89-3-87.26"/>
    <path class="cls-1" d="m657.31,175.5c-42.08-3.06-85.55-4.56-126.26,4.86-12.35,2.85-24.44,6.71-36.16,11.83"/>
    <path class="cls-1" d="m884.13,50.21c2.95-18.48-7.06-38.32-23.69-46.91.09,12.11-1.04,24.23-3.35,36.12-1.97,10.1-4.91,20.28-11.04,28.53-10.85,14.59-29.48,20.61-46.76,26.23-45.81,14.91-91.7,33.45-127.58,65.6-5.19,4.64-10.31,10.02-14.02,15.96h-.01c-3.99,6.36-6.38,13.36-5.53,20.78"/>
    <path class="cls-1" d="m918.77,74.63c.39-.46.77-.93,1.14-1.41,4.63-6.07,6.92-13.67,9.09-21.05,1.13-3.82,2.25-7.64,3.38-11.46,1.96-6.68,3.93-13.86,1.82-20.5-16.95,9.35-34.22,18.97-49.09,31.21-6.83,5.61-13.14,11.78-18.69,18.73"/>
    <path class="cls-1" d="m796.83,349.37c4.47-3.84,8.75-7.89,12.84-12.13,18.74-19.43,33.32-42.89,42.33-68.35,10.46-29.54,13.43-61.16,15.31-92.44.63-10.44,1.2-21.13,5.26-30.77,3.5-8.3,9.41-15.36,15.71-21.8,20.71-21.19,48.98-37.77,78.49-35.05-6.09-10-17.99-15.29-29.65-16.32-5.75-.5-11.49-.12-17.21.71-5.88.84-11.72,2.16-17.5,3.48"/>
    <path class="cls-1" d="m415.48,242.73c.44-1.08,1.92.69,1.19,1.39-.05.04-.1.09-.17.12-1.1.57-2.36-.58-2.76-1.75-.4-1.18-.44-2.53-1.26-3.46-19.89-22.55-36.43-48.05-48.9-75.41-8.97,15.54-12.38,33.87-11.91,51.81.46,17.94,4.63,35.6,9.98,52.73,3.56,11.4,7.7,22.74,14.04,32.86"/>
    <path class="cls-1" d="m785.16,337.43c1.99-1.06,3.89-2.27,5.71-3.6,5.14-3.74,9.66-8.38,13.97-13.09,20.33-22.24,31.16-44.5,40.07-73.29,8.91-28.79,15.2-64.46,1.23-91.16-7.55,11.82-17.45,21.91-27.27,31.91-31.75,32.32-63.5,64.64-95.25,96.96-.75.76-1.49,1.52-2.24,2.28-1.53,1.57-3.18,3.2-5.3,3.76-3.45.93-6.92-1.23-9.76-3.4-25.83-19.63-43.88-49.22-49.53-81.16"/>
    <path class="cls-1" d="m791.49,334.96c-.21-.38-.42-.75-.62-1.13-.59-1.07-1.18-2.13-1.79-3.19-5.98-10.45-13.45-20.18-22.91-27.62-9.46-7.43-30.24-17.04-42.26-17.57"/>
    <path class="cls-1" d="m466.39,293.67l-.12.03c-41.92,10.32-73.87,46.29-83.86,88.25-7.68,35-.06,71.47,19.72,100.09,3.39,4.9,7.13,9.57,11.22,13.97"/>
    <path class="cls-1" d="m466.38,294.13c-1.75,1.73-2.44,4.36-3.17,6.63-6.79,21.2-4.01,45.04,7.68,63.99,11.12,18.03,28.93,30.24,49.37,35.32,11.33,2.82,23.05,3.75,34.7,4.04,12.02.3,24.1-.14,35.63-3.9,19.58-6.38,37-20.55,48.97-37.15,13.66-18.95,5.55-46.92-4.88-65.65"/>
    <path class="cls-1" d="m681,551.17c28.22-19.35,51.4-45.99,66.67-76.62,4.6-9.23,8.53-18.93,10.06-29.13,1.28-8.52.86-17.2-.04-25.77-3.41-32.2-14.25-64.42-35.74-88.63-21.49-24.22-54.67-39.24-86.62-34.01"/>
    <path class="cls-1" d="m481.07,467.35c-3.82-10.39-7.82-20.83-13.92-30.07-6.09-9.25-14.52-17.31-24.93-21.08-10.42-3.76-22.94-2.61-31.38,4.56"/>
    <path class="cls-1" d="m674.37,421.18c-32.48-1.36-65.22,13.99-84.94,39.83-3.07,4.01-5.88,8.37-7.08,13.28"/>
    <path class="cls-1" d="m522.58,486.91c1.85.16,3.74-.13,5.46-.83"/>
    <path class="cls-1" d="m481.44,500.13c1.35,5.2,5.77,9.17,10.7,11.29,4.94,2.12,10.38,2.67,15.73,3.13,18.34,1.55,36.74,2.29,55.14,2.21,4.31-.01,8.7-.09,12.77-1.5,4.95-1.7,9.18-5.4,11.54-10.08"/>
    <path class="cls-1" d="m487.2,550.36c-1.15.31-2.29.65-3.43,1.01-11.93,3.69-23.13,9.48-34.09,15.52-25.32,13.98-50.09,29.85-69.49,51.31-5.46,6.05-10.48,12.6-14.85,19.54-10.41,16.48-17.24,35.13-18,54.42-.06,1.39-.09,2.8-.08,4.2.01,2.02.09,4.04.23,6.05.97,14.07,4.83,27.88,9.06,41.39,5.19,16.57,11.44,33.73,24.42,45.26,4.32,3.84,10.2,7.07,15.66,5.19,2.42-.83,4.41-2.57,6.32-4.28,8.03-7.13,16.06-14.26,24.09-21.4"/>
    <path class="cls-1" d="m365.65,635.65c-.11.7-.22,1.4-.31,2.09-3.73,26.67,3.69,53.37,17.25,77.06,7.72,13.48,17.43,25.99,28.21,36.96,5.6,5.69,11.57,11.14,18.2,15.54,3.01,2,6.16,3.78,9.47,5.27,11.95,5.37,25.7,6.61,38.42,3.45"/>
    <path class="cls-1" d="m470.07,755.95c1.62,6.88,4.06,13.55,7.22,19.87,6.36,12.74,15.65,24.04,27.03,32.62,4.08,3.07,8.81,5.92,13.91,5.62,5.86-.35,10.67-4.76,14.16-9.48,6.45-8.71,10.1-18.97,12.71-29.58,1.35-5.45,2.42-10.99,3.47-16.46"/>
    <path class="cls-1" d="m546.91,775.45c12.91-1.48,25.56-4.89,37.52-9.97,26.17-11.1,49.03-30.15,64.07-54.31"/>
    <path class="cls-1" d="m584.08,764.91c.11.19.23.38.35.57,6.32,10.58,15.62,19.35,26.53,25.07,3.73,1.95,8.09,3.57,12.07,2.21,2.27-.78,4.11-2.44,5.84-4.09,25.98-24.81,43.05-58.67,47.97-94.22.87-6.25,1.36-12.56,1.46-18.87.66-41.97-16.05-83.95-45.36-114.01-.17-.19-.36-.37-.54-.56"/>
    <path class="cls-1" d="m676.95,694.74c-.04-.1-.07-.19-.11-.29-5.31-13.73-10.95-27.49-19.37-39.55-8.49-12.15-20.12-22.6-34.23-27.12-18.02-5.77-37.81-1.29-55.19,6.18-12.88,5.53-25.12,12.72-35.66,21.96-20.13,17.67-33.92,42.62-57.02,56.17-14.18,8.32-30.77,11.6-47.15,13.06-16.01,1.44-34.07.47-45.63-10.35-.58-.55-1.14-1.11-1.69-1.71"/>
    <path class="cls-1" d="m200.72,599.57c18.29,23.16,38.37,45.27,62.43,62.37,24.05,17.11,52.43,29.04,81.93,30.14"/>
    <path class="cls-1" d="m193.65,603.99c.14.24.27.48.41.72,30.27,53.37,89.69,93.27,150.85,97.74"/>
    <path class="cls-1" d="m197.91,578.45s.07.03.11.05c5.99,2.54,16.43,2.44,22.39,1.45,3-1,4-5,2-9-5-6-13.3-12.57-19.5-17.5"/>
    <path class="cls-1" d="m173.91,584.45c5.43,6.51,11.5,16.5,19.5,20.5.22-.07.44-.15.65-.24,2.86-1.12,4.46-3,5.28-5.31,2.09-5.88-.92-14.58-1.32-20.9-.05-.8-.06-1.57-.01-2.28"/>
    <path class="cls-1" d="m153.76,575.77c.01.1.01.19.02.29.53,9.16-4.28,21.94,4.63,26.89,3,2,8,0,10-3,1.66-4.99,4.02-9.97,5.02-15.58.2-1.14.35-2.3.43-3.49"/>
    <path class="cls-1" d="m201.66,557.25c.36-1.28.72-2.57,1.08-3.85,1.65-5.87,3.29-11.73,4.95-17.59,8.15-28.8,17.37-57.55,23.9-86.76,6.57-29.43,3.61-58.43-1.9-87.77-5.4-28.72-12.93-57.07-20.93-85.16-6.27-22.01-14.89-46.09-34.95-59.26-2.63-1.73-5.38-3.2-8.22-4.42-11.31-4.89-24.02-5.89-36.2-3.72-7.59,1.34-14.97,3.92-21.69,7.54-20.69,11.18-34.8,31.74-42.79,53.41-9.77,26.49-10.73,55.12-10.7,83.04.03,28.34,1.48,56.97,9.81,84.25,8.09,26.5,20.89,51.93,35.89,75.16,14.2,22,31,42.32,49.98,60.35.89.85,1.78,1.69,2.68,2.52"/>
    <path class="cls-1" d="m149.91,572.45c.52.48,2.33,2.17,3.87,3.61,1.01.94,1.9,1.77,2.25,2.09"/>
    <path class="cls-1" d="m131.34,231.79c-.53-7.7-1.18-15.39-1.95-23.07-2.38-23.89-5.89-47.66-10.54-71.21-.97-4.97-2.41-10.52-6.82-13.02,9.72,1.53,20.15-3.45,25.07-11.97,4.93-8.52,4.03-20.04-2.16-27.7-2.52-3.13-5.81-5.61-9.45-7.33-9.17-4.35-20.75-3.47-28.86,2.64-8.12,6.1-12.18,17.32-9.36,27.08,2.75,9.51,12.12,16.81,22,16.81.25,0,.5,0,.75-.01"/>
    <path class="cls-1" d="m46.55,146.82h.02"/>
    <path class="cls-1" d="m46.55,146.82c.4-1.07,1.16-2.02,1.85-2.96,8.25-11.26,6.66-28.77-3.88-37.93-10.55-9.15-28.63-7.95-37.43,2.89-8.8,10.85-5.85,29.3,6.18,36.39,9.79,5.78,22.12,3.78,33.28,1.61Z"/>
    <path class="cls-1" d="m92.71,226.65c-19.1-22.21-34.54-47.55-45.54-74.7-.55-1.37-1.1-2.83-.86-4.28.05-.29.13-.58.24-.85"/>
    <path class="cls-1" d="m200.64,138.51c.07.02.14.03.21.05"/>
    <path class="cls-1" d="m200.64,138.51c.16-.19.35-.36.55-.51,1.35-1.01,3.16-1.02,4.84-1.14,12.04-.85,22.91-10.8,24.52-22.76,1.61-11.96-6.46-24.58-18.07-27.85-11.62-3.27-25.26,3.51-29.4,14.84-1.54,4.23-1.85,8.84-1.35,13.31,1.21,10.83,8.3,21.7,18.91,24.11Z"/>
    <path class="cls-1" d="m165.39,212.72c.07-.09.13-.19.2-.28,15.23-21.05,26.57-44.89,33.29-69.98.37-1.41.8-2.9,1.76-3.95"/>
  </g>
</svg>