<?xml version="1.0" encoding="UTF-8"?>
<svg id="jirachi" xmlns="http://www.w3.org/2000/svg" viewBox="0 0 1020.39 764.12">
  <defs>
    <style>
      .cls-1 {
        stroke: #000;
      }

      .cls-1, .cls-2 {
        fill: none;
        stroke-miterlimit: 10;
        stroke-width: 4px;
      }

      .cls-3 {
        fill: #fff;
      }

      .cls-4 {
        fill: #38ced6;
      }

      .cls-5 {
        fill: #e8feff;
      }

      .cls-6 {
        fill: #fffbba;
      }

      .cls-7 {
        fill: #bcbcbc;
      }

      .cls-2 {
        stroke: #38ced6;
      }
    </style>
  </defs>
  <g>
    <path class="cls-4" d="m902.05,373.44c-.17.03-.34.04-.52.05-.48.02-1.2.17-2.17.33-1.35.22-2.72.41-4.09.45-2.72.09-5-2.35-5-5,0-1.52.71-2.85,1.8-3.76.36-1.16,1.13-2.16,2.14-2.8.76-.49,1.67-.78,2.62-.78h7.83c6.27,0,6.43,9.47.49,9.97-.81.84-1.91,1.38-3.1,1.54Z"/>
    <path class="cls-4" d="m874.76,375.15c1.93.93,3.31,2.95,2.63,5.63-.03.11-.05.21-.08.32.28.82.34,1.76.08,2.81-.5,2.06-.96,4.13-1.43,6.2-.05.55-.16,1.06-.35,1.51-.19.82-.37,1.64-.57,2.46-.41,1.66-1.45,2.71-2.71,3.21-1.47.58-3.24.43-4.65-.36-.2.03-.39.04-.59.04-1.98,0-4.52-1.54-4.82-3.67-.19-1.34-.31-2.65-.26-3.96.05-1.22.24-2.42.68-3.64.23-.65.51-1.29.8-1.93.1-.58.21-1.16.35-1.74.14-.63.43-1.19.81-1.67.15-.57.41-1.09.75-1.54t0-.02c.68-.89,1.68-1.52,2.77-1.81.33-.64.76-1.14,1.26-1.52h.01c1.5-1.13,3.62-1.15,5.31-.32Z"/>
    <path class="cls-6" d="m1010.82,676.85c3.92,2.52,8.33,6.2,7.46,10.77-.57,3-3.29,5.05-5.83,6.76-12.2,8.21-26.47,15.88-40.91,13.07-8.42-1.64-16.08-6.77-24.65-7.05-9.11-.31-17.39,4.86-25.01,9.84-14.41,9.41-28.82,18.82-43.23,28.23-6.61,4.32-13.55,8.76-21.41,9.6-16.3,1.73-29.91-12.18-45.82-16.15-22.76-5.69-49.86,8.89-68.84-4.88-11.37-8.26-14.62-23.46-21.46-35.73-5.93-10.65-15.02-19.5-25.81-25.15l.05-.46c3.86.56,7.79.74,11.58.64v-1c-11.5-11.53-23.31-23.11-34.81-34.64-20.37-20.44-40.74-40.87-61.11-61.3-9-9.03-18.07-18.32-27.85-26.66,100.06,39.99,203.07,75.59,310.22,86.78,14.51,1.51,29.21,2.6,43.12,6.99,11.1,3.49,21.45,9,31.6,14.7,14.49,8.12,28.73,16.67,42.71,25.64Z"/>
    <path class="cls-4" d="m898.4,375.06h-.26c-.54,1.07-1.54,1.9-3.11,2.17-.65.1-1.29.22-1.93.33-.23,1.71-1.33,3.19-3.55,3.58-2.79.49-5.22,1.08-7.29,2.04,0,.06.01.12.01.18v13.31c0,5.5-8.88,6.98-9.83,1.33l-.11-.71c1.26-.5,2.3-1.55,2.71-3.21.2-.82.38-1.64.57-2.46.19-.45.3-.96.35-1.51.47-2.07.93-4.14,1.43-6.2.26-1.05.2-1.99-.08-2.81.03-.11.05-.21.08-.32.68-2.68-.7-4.7-2.63-5.63.1-1.88,1.22-3.72,3.52-4.44.46-.14.91-.25,1.37-.38.46-1.95,2-3.62,4.66-3.71.25-.01.5-.03.76-.05.6-.91,1.48-1.64,2.57-2.01.84-1.09,2.1-1.85,3.71-1.85h2.86c-1.01.64-1.78,1.64-2.14,2.8-1.09.91-1.8,2.24-1.8,3.76,0,2.65,2.28,5.09,5,5,1.37-.04,2.74-.23,4.09-.45.97-.16,1.69-.31,2.17-.33.18-.01.35-.02.52-.05-.81.97-2.01,1.62-3.65,1.62Z"/>
    <path class="cls-4" d="m869.44,375.47c-.5.38-.93.88-1.26,1.52-1.09.29-2.09.92-2.77,1.81.54-1.98,2.21-3.09,4.03-3.33Z"/>
    <path class="cls-4" d="m887.64,364.56c-1.09.37-1.97,1.1-2.57,2.01-.26.02-.51.04-.76.05-2.66.09-4.2,1.76-4.66,3.71-.46.13-.91.24-1.37.38-2.3.72-3.42,2.56-3.52,4.44-1.69-.83-3.81-.81-5.31.32h-.01c-1.82.24-3.49,1.35-4.03,3.33t0,.02c-.34.45-.6.97-.75,1.54-.38.48-.67,1.04-.81,1.67-.14.58-.25,1.16-.35,1.74-.29.64-.57,1.28-.8,1.93-.44,1.22-.63,2.42-.68,3.64-.01.01-.03.02-.04.03.58-8.37,1.24-17,1.97-26.03v-.15c11.55-.25,23.23-2.03,35.24-2.39-.44.38-.88.75-1.32,1.13h-1.03c-.95,0-1.86.29-2.62.78h-2.86c-1.61,0-2.87.76-3.71,1.85Z"/>
    <path class="cls-4" d="m882.26,383.18c2.07-.96,4.5-1.55,7.29-2.04,2.22-.39,3.32-1.87,3.55-3.58.64-.11,1.28-.23,1.93-.33,1.57-.27,2.57-1.1,3.11-2.17h.26c1.64,0,2.84-.65,3.65-1.62,1.19-.16,2.29-.7,3.1-1.54,5.94-.5,5.78-9.97-.49-9.97h-6.8c.44-.38.88-.75,1.32-1.13h.01c6.32-.19,12.73,0,19.25,1.04,2,1,4,2,5,4,10,58,13,113,18,170,2,10,2,20,2,30,0,3-1,7-3,7-25,5-49,3-73,3-1,0-2-1-2-2-6-18-4.5-52.5-5.5-70.5-1.64-41.95-.67-75.18,2.03-113.97.01-.01.03-.02.04-.03-.05,1.31.07,2.62.26,3.96.3,2.13,2.84,3.67,4.82,3.67.2,0,.39-.01.59-.04,1.41.79,3.18.94,4.65.36l.11.71c.95,5.65,9.83,4.17,9.83-1.33v-13.31c0-.06-.01-.12-.01-.18Z"/>
    <path class="cls-6" d="m481.99,44.08c-14.83,71.71-2.89,146.14-8.59,219.14,23.7.86,47.42.98,71.12.36.91-68.55,1.83-137.11,2.75-205.66.04-2.86,0-5.97-1.77-8.23-2.26-2.88-6.42-3.25-10.08-3.39-17.27-.63-34.54-1.26-51.82-1.89l-1.61-.33Zm419.45,314.76c-.75.66-1.5,1.31-2.25,1.96h-.01c-12.01.36-23.69,2.14-35.24,2.39v.15c-.73,9.03-1.39,17.66-1.97,26.03-3.1,2.14-6.26,4.29-9.53,6.47-33,21-62,41-94.78,57.33l-.18.09,1.53,3.03.49.99c1.22,2.48,2.4,4.98,3.51,7.52,4.75,10.89,7.71,22.17,7.88,34.1.17,12.73-.79,26.69-4.66,38.87-6.02,18.98-25.14,33.09-45.4,30.89-23.86-2.6-36.55-26.4-42.35-47.07-5.37-19.13-9.15-38.89-12.17-58.64-1.08-7.04-2.06-14.08-2.99-21.1-1.8-13.67-3.21-27.38-4.23-41.13-.97-12.99-.62-26.71-7.9-38.09-16.31-9.56-33.97-16.77-52.29-21.37-1.88-.47-3.88-.92-5.73-.33-1.66.51-2.95,1.78-4.19,2.99-8.42,8.18-17.6,15.73-28.05,21.09-10.68,5.48-22.44,8.55-34.26,10.62-21.63,3.77-44.15,4.26-65.32-1.57-21.17-5.84-40.93-18.4-52.86-36.83-15.31,10.58-31.77,19.48-49.01,26.51,2.46,16.59,1.11,33.49-.42,50.19-1.82,19.86-3.96,39.96-8.08,59.47-3.8,18.05-9.28,35.59-17.77,51.97-4.64,8.95-10.24,17.58-17.88,24.15-7.64,6.58-17.55,10.94-27.61,10.38-14.15-.8-26.36-11.25-32.96-23.8-13.83-26.33-6.31-58.44,2.97-86.69.23-.7.46-1.41.7-2.11l-.21-.07c-9.46-4.19-18.79-8.65-27.99-13.38-32.49-16.73-63.26-36.82-91.66-59.83-.18-7.17-.37-14.34-.55-21.51-6.97.68-13.9,1.67-20.78,2.98-8.51-7.08-19.83-14.01-20.8-25.65-1-8,5-15,11-20,78-59,170.57-90.76,261.5-114.5l.34.12c24.95-66.94,66.62-127.62,120.32-174.77,9.74-8.56,20.62-17.01,33.45-18.63l.24,1.8c9.03-2.4,17.81,4.78,24.35,11.6,51.23,53.43,89.53,119.15,110.92,190.01,27.68,9.75,54.29,22.56,81.88,35.37,4,2,8,4,12,7,47,24,90,47,136,78,8,5,17,12,18,22,0,4-2,8-5,11Z"/>
    <path class="cls-5" d="m416.36,370.2c-2.46-1.14-5.1-1.9-7.81-2.21-2.2-.25-4.42-.2-6.6.13-7.64,1.14-14.8,5.64-18.87,12.23-3.71,5.99-4.88,13.2-5.18,20.24-.42,10.06.86,20.41,5.47,29.36,2.67,5.19,7.2,10.2,12.79,11.09l-.13.89c2.03,9.05,5.95,17.68,11.43,25.17,2.09-.61,3.03-2.98,3.69-5.05,2.37-7.47,4.75-14.94,7.11-22.4l-1.91-.61c3.21-1.82,6.06-4.3,8.21-7.23,6.52-8.86,7.9-20.46,7.9-31.45-.01-4.94-.26-9.95-1.85-14.62-2.34-6.85-7.7-12.52-14.25-15.54Zm188.86-5.64c-2.04.21-4.04.7-5.95,1.47-7.42,2.99-12.8,9.85-15.48,17.38-2.69,7.53-2.96,15.71-2.5,23.7.44,7.61,1.57,15.35,5.03,22.15,2.58,5.08,6.64,9.58,11.64,12.17l-.25.48c3.22,7.54,6.45,15.09,9.67,22.64.31.72.66,1.5,1.34,1.89,1.54.9,3.32-.7,4.28-2.19,4.65-7.22,6.35-15.89,7.97-24.33l-2.19-.28c5.21-2.56,9.57-6.79,11.8-12.16,1.87-4.49,2.35-9.43,2.81-14.28.23-2.43.46-4.87.69-7.3.57-6.1,1.14-12.3-.02-18.32-1.47-7.65-5.91-14.8-12.43-19.06-.33-.22-.67-.43-1.02-.62-4.61-2.71-10.11-3.92-15.39-3.34Zm-49.91,159.19c10.14,5.06,19.27,11.67,27.86,18.99,9.78,8.34,18.85,17.63,27.85,26.66,20.37,20.43,40.74,40.86,61.11,61.3,11.5,11.53,23.31,23.11,34.81,34.64v1c-3.79.1-7.72-.08-11.58-.64-8.12-1.21-15.95-4.13-21.62-9.77,3.49,4.35,8.99,6.02,13.73,8.58,3.97,2.33,8.97,6.33,8.97,11.33-5.54,2.01-10.57.73-15.27-1.86-3.89-3.79-8.66-6.85-13.11-9.64,4.16,3.23,8.47,7.07,13.11,9.64,3.24,3.16,5.86,6.82,7.19,11.25-8.73.36-17.54-2.31-24.65-7.37l.15-.12c-1.47-1.13-2.94-2.26-4.41-3.4,1.33,1.27,2.76,2.45,4.26,3.52-9.26,7.4-19.53,13.71-30.41,18.43-3.3,1.43-5.29,1.56-8.08-.84-2.19-1.89-4.24-3.99-6.24-6.08-3.95-4.12-7.61-8.51-10.96-13.14-3.87-5.35-7.32-11.01-10.29-16.91l-.49.05c1.61,17.37.61,34.9-4.22,51.61-4.14,14.35-10.99,27.74-17.8,41.03-1.46,2.85-3,5.79-5.53,7.76-6.25,4.85-15.75,1.58-21.28-4.09-5.53-5.66-8.74-13.21-13.94-19.18-1.96-2.26-4.29-4.33-7.12-5.32-2.51-.87-5.23-.84-7.89-.8-13.08.2-26.16.4-39.24.6-7,.11-14.67.47-19.86,5.16-3.87,3.5-5.55,8.72-7.79,13.43s-5.77,9.5-10.93,10.31c-2.24.35-4.54-.12-6.67-.9-6.6-2.41-11.76-7.68-15.93-13.34-10.89-14.77-16.43-32.98-18.23-51.24-1.24-12.54-.79-25.16.45-37.72l-.43-.04c-7.45,10.46-14.91,20.91-22.37,31.37-1.59,2.24-3.46,4.66-6.16,5.16-2.99.57-5.81-1.42-8.21-3.29-8.12-6.33-16.24-12.66-24.35-18.99-2.9-2.26-6.01-4.61-9.67-4.96-5.02-.48-9.47,2.86-13.89,5.27-4.43,2.42-10.58,3.75-14.01.06,1.15-1.85,2.51-3.57,4.06-5.11,2.87-1.17,5.48-2.98,7.49-5.36-2.77,1.35-5.31,3.18-7.49,5.36-1.98.82-4.1,1.33-6.24,1.53-3.89.36-7.87-.34-11.32-2.21,1.73-2.86,3.86-5.48,6.28-7.79,4.89-2.07,9.45-4.92,13.46-8.41-5.01,1.83-9.61,4.73-13.46,8.41-.97.42-1.95.8-2.94,1.15-2.16.76-4.72,1.33-6.59.01-3.89-2.73-.22-8.7,3.44-11.73,32.84-27.25,65.68-54.51,98.53-81.76,8.74-7.26,17.49-14.52,26.7-21.17.75-.55,1.5-1.09,2.25-1.62,15.11-10.67,32.34-19.8,50.84-20.04l.14-1.65c-20.8-1.7-41.15-7.14-60.93-13.79-20.77-6.98-42.14-16.1-55.25-33.65l-.16-.03c4.12-19.51,6.26-39.61,8.08-59.47,1.53-16.7,2.88-33.6.42-50.19,17.24-7.03,33.7-15.93,49.01-26.51,11.93,18.43,31.69,30.99,52.86,36.83,21.17,5.83,43.69,5.34,65.32,1.57,11.82-2.07,23.58-5.14,34.26-10.62,10.45-5.36,19.63-12.91,28.05-21.09,1.24-1.21,2.53-2.48,4.19-2.99,1.85-.59,3.85-.14,5.73.33,18.32,4.6,35.98,11.81,52.29,21.37,7.28,11.38,6.93,25.1,7.9,38.09,1.02,13.75,2.43,27.46,4.23,41.13.93,7.02,1.91,14.06,2.99,21.1-28.24,32.55-68.44,54.36-111,60.8Z"/>
    <path class="cls-7" d="m622.56,387.15c2.61,9.3,2.91,19.24.88,28.69-.67,3.16-1.67,6.37-3.86,8.74-3.68,3.97-10.16,4.53-14.97,2.06s-8-7.44-9.32-12.69c-1.32-5.24-.97-10.77-.13-16.11.32-2.06.73-4.14,1.67-6.01l.17-.22c6.14,4.65,15.66,4.57,21.51-.56,1.37-1.19,2.48-2.62,3.35-4.19l.7.29Z"/>
    <path class="cls-3" d="m620.61,367.9c4.18,5.28,4.46,13.12,1.25,18.96-.87,1.57-1.98,3-3.35,4.19-5.85,5.13-15.37,5.21-21.51.56-.66-.5-1.27-1.05-1.84-1.65-1.35-1.41-2.45-3.09-3.04-4.95-.99-3.12-.46-6.57.84-9.57,2.25-5.17,6.87-9.24,12.26-10.88,5.28-.58,10.78.63,15.39,3.34Z"/>
    <path class="cls-4" d="m598.18,441.55l.46-.91c6.44,2.69,13.89,2.05,20.14-1l2.19.28c-1.62,8.44-3.32,17.11-7.97,24.33-.96,1.49-2.74,3.09-4.28,2.19-.68-.39-1.03-1.17-1.34-1.89-3.22-7.55-6.45-15.1-9.67-22.64l.25-.48c.07.05.14.08.22.12Z"/>
    <path d="m583.79,383.41c2.68-7.53,8.06-14.39,15.48-17.38,1.91-.77,3.91-1.26,5.95-1.47-5.39,1.64-10.01,5.71-12.26,10.88-1.3,3-1.83,6.45-.84,9.57.59,1.86,1.69,3.54,3.04,4.95.57.6,1.18,1.15,1.84,1.65l-.17.22c-.94,1.87-1.35,3.95-1.67,6.01-.84,5.34-1.19,10.87.13,16.11,1.32,5.25,4.51,10.22,9.32,12.69s11.29,1.91,14.97-2.06c2.19-2.37,3.19-5.58,3.86-8.74,2.03-9.45,1.73-19.39-.88-28.69l-.7-.29c3.21-5.84,2.93-13.68-1.25-18.96.35.19.69.4,1.02.62,6.52,4.26,10.96,11.41,12.43,19.06,1.16,6.02.59,12.22.02,18.32-.23,2.43-.46,4.87-.69,7.3-.46,4.85-.94,9.79-2.81,14.28-2.23,5.37-6.59,9.6-11.8,12.16-6.25,3.05-13.7,3.69-20.14,1l-.46.91c-.08-.04-.15-.07-.22-.12-5-2.59-9.06-7.09-11.64-12.17-3.46-6.8-4.59-14.54-5.03-22.15-.46-7.99-.19-16.17,2.5-23.7Z"/>
    <path class="cls-4" d="m545.5,49.69c1.77,2.26,1.81,5.37,1.77,8.23-.92,68.55-1.84,137.11-2.75,205.66-23.7.62-47.42.5-71.12-.36,5.7-73-6.24-147.43,8.59-219.14l1.61.33c17.28.63,34.55,1.26,51.82,1.89,3.66.14,7.82.51,10.08,3.39Z"/>
    <path d="m398.29,441.17c-.73.02-1.44-.02-2.13-.13-5.59-.89-10.12-5.9-12.79-11.09-4.61-8.95-5.89-19.3-5.47-29.36.3-7.04,1.47-14.25,5.18-20.24,4.07-6.59,11.23-11.09,18.87-12.23l.2,1.29c-3.2,1.72-6.51,3.52-8.69,6.43-2.85,3.79-2.98,9.05-1.04,13.35l-1.62,1.09c-1.66,5.56-3.28,11.2-3.5,17-.22,5.8,1.09,11.85,4.74,16.36s9.93,7.12,15.48,5.43c4.72-1.43,8.2-5.65,9.92-10.28s1.94-9.66,1.99-14.6c.05-3.88-.02-7.88-1.46-11.48l-1.87-.62c.41-.45.8-.92,1.16-1.42,4.26-5.97,3.68-14.75-.9-20.47,6.55,3.02,11.91,8.69,14.25,15.54,1.59,4.67,1.84,9.68,1.85,14.62,0,10.99-1.38,22.59-7.9,31.45-2.15,2.93-5,5.41-8.21,7.23-5.61,3.18-12.28,4.31-18.06,2.13Z"/>
    <path class="cls-7" d="m417.97,392.71c1.44,3.6,1.51,7.6,1.46,11.48-.05,4.94-.27,9.97-1.99,14.6s-5.2,8.85-9.92,10.28c-5.55,1.69-11.83-.92-15.48-5.43s-4.96-10.56-4.74-16.36c.22-5.8,1.84-11.44,3.5-17l1.62-1.09c1.09,2.43,2.84,4.55,5.13,5.92,5.82,3.48,13.93,1.91,18.55-3.02l1.87.62Z"/>
    <path class="cls-3" d="m416.36,370.2c4.58,5.72,5.16,14.5.9,20.47-.36.5-.75.97-1.16,1.42-4.62,4.93-12.73,6.5-18.55,3.02-2.29-1.37-4.04-3.49-5.13-5.92-1.94-4.3-1.81-9.56,1.04-13.35,2.18-2.91,5.49-4.71,8.69-6.43l-.2-1.29c2.18-.33,4.4-.38,6.6-.13,2.71.31,5.35,1.07,7.81,2.21Z"/>
    <path class="cls-4" d="m396.03,441.93l.13-.89c.69.11,1.4.15,2.13.13,5.78,2.18,12.45,1.05,18.06-2.13l1.91.61c-2.36,7.46-4.74,14.93-7.11,22.4-.66,2.07-1.6,4.44-3.69,5.05-5.48-7.49-9.4-16.12-11.43-25.17Z"/>
    <path class="cls-6" d="m288.67,665.47c3.45,1.87,7.43,2.57,11.32,2.21v.12c-17.83,10.47-20.44,37.59-38.62,47.43-18.61,10.06-41.12-3.69-62.25-2.74-20.69.94-38.04,15.87-58.11,20.99-14.92,3.81-31.22,1.87-44.83-5.31-11.13-5.87-20.2-14.9-30.07-22.71-9.87-7.8-21.37-14.67-33.95-14.88-5.83-.1-11.68,1.24-17.47.5-5.78-.73-11.88-4.45-12.61-10.23-.77-6.11,4.5-11.13,9.34-14.92,15.34-11.99,31.39-23.06,48.06-33.13,12.76-7.71,25.93-14.86,39.91-20.04,24.98-9.25,51.83-11.96,78.34-14.59,20.34-2.02,40.68-4.04,61.03-6.06,60.9-6.05,124.9-13.23,174.7-48.8l.63.87c-9.21,6.65-17.96,13.91-26.7,21.17-32.85,27.25-65.69,54.51-98.53,81.76-3.66,3.03-7.33,9-3.44,11.73,1.87,1.32,4.43.75,6.59-.01.99-.35,1.97-.73,2.94-1.15-2.42,2.31-4.55,4.93-6.28,7.79Z"/>
    <path class="cls-4" d="m117.24,355.49c6.88-1.31,13.81-2.3,20.78-2.98.18,7.17.37,14.34.55,21.51.86,33.27,1.71,66.54,2.57,99.8.73,28.21,1.43,56.7-4.18,84.34-.38,1.84-.82,3.76-2.06,5.17-1.37,1.56-3.48,2.23-5.48,2.77-18.8,5.14-38.75,6.02-57.93,2.56,1.72-8.31,2.95-16.72,3.78-25.17,5.59-56.95-6.84-114.62-.29-171.47.23-1.97.57-4.1,1.61-5.73h1.98c12.55-4.69,25.51-8.31,38.67-10.8Z"/>
  </g>
  <g>
    <path class="cls-2" d="m597.71,441.91c3.22,7.54,6.45,15.09,9.67,22.64.31.72.66,1.5,1.34,1.89,1.54.9,3.32-.7,4.28-2.19,4.65-7.22,6.35-15.89,7.97-24.33"/>
    <path class="cls-2" d="m396.03,441.93c2.03,9.05,5.95,17.68,11.43,25.17,2.09-.61,3.03-2.98,3.69-5.05,2.37-7.47,4.75-14.94,7.11-22.4.03-.07.05-.14.07-.21"/>
    <path class="cls-1" d="m522.77,4.01c.17-.05.35-.1.52-.15,9.03-2.4,17.81,4.78,24.35,11.6,51.23,53.43,89.53,119.15,110.92,190.01,2,6.63,3.86,13.31,5.56,20.03"/>
    <path class="cls-1" d="m137.74,373.35c.28.22.55.45.83.67,28.4,23.01,59.17,43.1,91.66,59.83,9.2,4.73,18.53,9.19,27.99,13.38"/>
    <path class="cls-1" d="m368.94,195.34c-90.93,23.74-183.5,55.5-261.5,114.5-6,5-12,12-11,20,.97,11.64,12.29,18.57,20.8,25.65.26.23.52.45.78.67"/>
    <path class="cls-1" d="m899.19,360.8c.75-.65,1.5-1.3,2.25-1.96,3-3,5-7,5-11-1-10-10-17-18-22-46-31-89-54-136-78-4-3-8-5-12-7-27.59-12.81-54.2-25.62-81.88-35.37-.41-.15-.83-.3-1.24-.44"/>
    <path class="cls-1" d="m897.86,361.93c.44-.38.88-.75,1.32-1.13"/>
    <path class="cls-1" d="m757.66,453.17c32.78-16.33,61.78-36.33,94.78-57.33,3.27-2.18,6.43-4.33,9.53-6.47.01-.01.03-.02.04-.03"/>
    <path class="cls-1" d="m282.48,392.82c-10.66,16.8-17.78,35.57-24.05,54.48-.24.7-.47,1.41-.7,2.11-9.28,28.25-16.8,60.36-2.97,86.69,6.6,12.55,18.81,23,32.96,23.8,10.06.56,19.97-3.8,27.61-10.38,7.64-6.57,13.24-15.2,17.88-24.15,8.49-16.38,13.97-33.92,17.77-51.97,4.12-19.51,6.26-39.61,8.08-59.47,1.53-16.7,2.88-33.6.42-50.19-.03-.25-.07-.51-.11-.76"/>
    <path class="cls-1" d="m651.62,362.87c-.14-.08-.29-.17-.43-.24-16.31-9.56-33.97-16.77-52.29-21.37-1.88-.47-3.88-.92-5.73-.33-1.66.51-2.95,1.78-4.19,2.99-8.42,8.18-17.6,15.73-28.05,21.09-10.68,5.48-22.44,8.55-34.26,10.62-21.63,3.77-44.15,4.26-65.32-1.57-21.17-5.84-40.93-18.4-52.86-36.83-15.31,10.58-31.77,19.48-49.01,26.51-.09.04-.19.08-.28.12"/>
    <path class="cls-1" d="m739.1,414.49c3.88,11.89,10.01,22.86,15.83,33.88"/>
    <path class="cls-1" d="m759.01,456.29l-1.53-3.03c-.59-1.14-1.18-2.28-1.77-3.41"/>
    <path class="cls-1" d="m651.19,362.63c7.28,11.38,6.93,25.1,7.9,38.09,1.02,13.75,2.43,27.46,4.23,41.13.93,7.02,1.91,14.06,2.99,21.1,3.02,19.75,6.8,39.51,12.17,58.64,5.8,20.67,18.49,44.47,42.35,47.07,20.26,2.2,39.38-11.91,45.4-30.89,3.87-12.18,4.83-26.14,4.66-38.87-.17-11.93-3.13-23.21-7.88-34.1-1.11-2.54-2.29-5.04-3.51-7.52"/>
    <path class="cls-1" d="m482.07,43.71c-.03.12-.05.25-.08.37-14.83,71.71-2.89,146.14-8.59,219.14,23.7.86,47.42.98,71.12.36.91-68.55,1.83-137.11,2.75-205.66.04-2.86,0-5.97-1.77-8.23-2.26-2.88-6.42-3.25-10.08-3.39-17.27-.63-34.54-1.26-51.82-1.89"/>
    <path class="cls-1" d="m77.89,364.86c-.53.4-.95.89-1.3,1.43-1.04,1.63-1.38,3.76-1.61,5.73-6.55,56.85,5.88,114.52.29,171.47-.83,8.45-2.06,16.86-3.78,25.17,19.18,3.46,39.13,2.58,57.93-2.56,2-.54,4.11-1.21,5.48-2.77,1.24-1.41,1.68-3.33,2.06-5.17,5.61-27.64,4.91-56.13,4.18-84.34-.86-33.26-1.71-66.53-2.57-99.8-.18-7.17-.37-14.34-.55-21.51-6.97.68-13.9,1.67-20.78,2.98-13.16,2.49-26.12,6.11-38.67,10.81"/>
    <path class="cls-1" d="m863.94,363.34c-.73,9.03-1.39,17.66-1.97,26.03-2.7,38.79-3.67,72.02-2.03,113.97,1,18-.5,52.5,5.5,70.5,0,1,1,2,2,2,24,0,48,2,73-3,2,0,3-4,3-7,0-10,0-20-2-30-5-57-8-112-18-170-1-2-3-3-5-4-6.52-1.03-12.93-1.23-19.25-1.04h-.01c-12.01.36-23.69,2.14-35.24,2.39-.06.01-.13.01-.19.01"/>
    <path class="cls-1" d="m395.61,439.88c.87.52,1.76.95,2.68,1.29,5.78,2.18,12.45,1.05,18.06-2.13,3.21-1.82,6.06-4.3,8.21-7.23,6.52-8.86,7.9-20.46,7.9-31.45-.01-4.94-.26-9.95-1.85-14.62-2.34-6.85-7.7-12.52-14.25-15.54-2.46-1.14-5.1-1.9-7.81-2.21-2.2-.25-4.42-.2-6.6.13-7.64,1.14-14.8,5.64-18.87,12.23-3.71,5.99-4.88,13.2-5.18,20.24-.42,10.06.86,20.41,5.47,29.36,2.67,5.19,7.2,10.2,12.79,11.09.69.11,1.4.15,2.13.13h.03"/>
    <path class="cls-1" d="m598.64,440.64c6.44,2.69,13.89,2.05,20.14-1,5.21-2.56,9.57-6.79,11.8-12.16,1.87-4.49,2.35-9.43,2.81-14.28.23-2.43.46-4.87.69-7.3.57-6.1,1.14-12.3-.02-18.32-1.47-7.65-5.91-14.8-12.43-19.06-.33-.22-.67-.43-1.02-.62-4.61-2.71-10.11-3.92-15.39-3.34-2.04.21-4.04.7-5.95,1.47-7.42,2.99-12.8,9.85-15.48,17.38-2.69,7.53-2.96,15.71-2.5,23.7.44,7.61,1.57,15.35,5.03,22.15,2.58,5.08,6.64,9.58,11.64,12.17.07.05.14.08.22.12,1.63.82,3.37,1.44,5.18,1.81"/>
    <path class="cls-1" d="m402.15,369.41c-3.2,1.72-6.51,3.52-8.69,6.43-2.85,3.79-2.98,9.05-1.04,13.35,1.09,2.43,2.84,4.55,5.13,5.92,5.82,3.48,13.93,1.91,18.55-3.02.41-.45.8-.92,1.16-1.42,4.26-5.97,3.68-14.75-.9-20.47-.04-.06-.08-.11-.13-.17"/>
    <path class="cls-1" d="m606.38,364.24c-.39.09-.78.2-1.16.32-5.39,1.64-10.01,5.71-12.26,10.88-1.3,3-1.83,6.45-.84,9.57.59,1.86,1.69,3.54,3.04,4.95.57.6,1.18,1.15,1.84,1.65,6.14,4.65,15.66,4.57,21.51-.56,1.37-1.19,2.48-2.62,3.35-4.19,3.21-5.84,2.93-13.68-1.25-18.96-.03-.05-.07-.1-.11-.15"/>
    <path class="cls-1" d="m390.8,390.28c-1.66,5.56-3.28,11.2-3.5,17-.22,5.8,1.09,11.85,4.74,16.36s9.93,7.12,15.48,5.43c4.72-1.43,8.2-5.65,9.92-10.28s1.94-9.66,1.99-14.6c.05-3.88-.02-7.88-1.46-11.48"/>
    <path class="cls-1" d="m596.83,391.83c-.94,1.87-1.35,3.95-1.67,6.01-.84,5.34-1.19,10.87.13,16.11,1.32,5.25,4.51,10.22,9.32,12.69s11.29,1.91,14.97-2.06c2.19-2.37,3.19-5.58,3.86-8.74,2.03-9.45,1.73-19.39-.88-28.69"/>
    <path class="cls-1" d="m465.63,458.56c3.02,3.43,7.93,4.3,12.47,4.86,12.19,1.5,24.49,2.2,36.78,2.1,9.92-.08,20.94-1.18,27.58-8.54"/>
    <path class="cls-1" d="m351.14,473.43c13.11,17.55,34.48,26.67,55.25,33.65,19.78,6.65,40.13,12.09,60.93,13.79.22.03.43.04.65.06"/>
    <path class="cls-1" d="m536.04,525.6c6.45-.26,12.89-.88,19.27-1.85,42.56-6.44,82.76-28.25,111-60.8.04-.05.08-.09.12-.14"/>
    <path class="cls-1" d="m306.23,666.15c-1.55,1.54-2.91,3.26-4.06,5.11,3.43,3.69,9.58,2.36,14.01-.06,4.42-2.41,8.87-5.75,13.89-5.27,3.66.35,6.77,2.7,9.67,4.96,8.11,6.33,16.23,12.66,24.35,18.99,2.4,1.87,5.22,3.86,8.21,3.29,2.7-.5,4.57-2.92,6.16-5.16,7.46-10.46,14.92-20.91,22.37-31.37"/>
    <path class="cls-1" d="m306.23,666.15c2.87-1.17,5.48-2.98,7.49-5.36-2.77,1.35-5.31,3.18-7.49,5.36Z"/>
    <path class="cls-1" d="m294.95,657.68c-2.42,2.31-4.55,4.93-6.28,7.79,3.45,1.87,7.43,2.57,11.32,2.21,2.14-.2,4.26-.71,6.24-1.53"/>
    <path class="cls-1" d="m294.95,657.68c4.89-2.07,9.45-4.92,13.46-8.41-5.01,1.83-9.61,4.73-13.46,8.41Z"/>
    <path class="cls-1" d="m467.18,522.52c-18.5.24-35.73,9.37-50.84,20.04-.75.53-1.5,1.07-2.25,1.62-9.21,6.65-17.96,13.91-26.7,21.17-32.85,27.25-65.69,54.51-98.53,81.76-3.66,3.03-7.33,9-3.44,11.73,1.87,1.32,4.43.75,6.59-.01.99-.35,1.97-.73,2.94-1.15"/>
    <path class="cls-1" d="m681.17,673.98c4.7,2.59,9.73,3.87,15.27,1.86,0-5-5-9-8.97-11.33-4.74-2.56-10.24-4.23-13.73-8.58,5.67,5.64,13.5,8.56,21.62,9.77,3.86.56,7.79.74,11.58.64"/>
    <path class="cls-1" d="m681.17,673.98c-3.89-3.79-8.66-6.85-13.11-9.64,4.16,3.23,8.47,7.07,13.11,9.64Z"/>
    <path class="cls-1" d="m663.71,677.86c7.11,5.06,15.92,7.73,24.65,7.37-1.33-4.43-3.95-8.09-7.19-11.25"/>
    <path class="cls-1" d="m663.71,677.86l.15-.12c-1.47-1.13-2.94-2.26-4.41-3.4,1.33,1.27,2.76,2.45,4.26,3.52Z"/>
    <path class="cls-1" d="m597.73,659.32c2.97,5.9,6.42,11.56,10.29,16.91,3.35,4.63,7.01,9.02,10.96,13.14,2,2.09,4.05,4.19,6.24,6.08,2.79,2.4,4.78,2.27,8.08.84,10.88-4.72,21.15-11.03,30.41-18.43"/>
    <path class="cls-1" d="m706.94,665.34c-11.5-11.53-23.31-23.11-34.81-34.64-20.37-20.44-40.74-40.87-61.11-61.3-9-9.03-18.07-18.32-27.85-26.66-8.59-7.32-17.72-13.93-27.86-18.99-.81-.4-1.62-.8-2.44-1.18"/>
    <path class="cls-1" d="m439.33,558.44c-10.36,13.13-20.49,26.74-26.73,42.25-4.98,12.38-7.34,25.65-9.23,38.86-.81,5.69-1.54,11.4-2.11,17.13-1.24,12.56-1.69,25.18-.45,37.72,1.8,18.26,7.34,36.47,18.23,51.24,4.17,5.66,9.33,10.93,15.93,13.34,2.13.78,4.43,1.25,6.67.9,5.16-.81,8.69-5.6,10.93-10.31s3.92-9.93,7.79-13.43c5.19-4.69,12.86-5.05,19.86-5.16,13.08-.2,26.16-.4,39.24-.6,2.66-.04,5.38-.07,7.89.8,2.83.99,5.16,3.06,7.12,5.32,5.2,5.97,8.41,13.52,13.94,19.18,5.53,5.67,15.03,8.94,21.28,4.09,2.53-1.97,4.07-4.91,5.53-7.76,6.81-13.29,13.66-26.68,17.8-41.03,4.83-16.71,5.83-34.24,4.22-51.61-.92-9.93-2.69-19.82-5.09-29.47-6.6-26.54-17.73-51.7-28.7-76.75-.22-.52-.4-1.23.07-1.55.47-.31.8.89.29.65"/>
    <path class="cls-1" d="m426.87,623.04c12.64,26.66,41.54,44.75,71.04,44.48,29.5-.26,58.06-18.87,70.22-45.75"/>
    <path class="cls-1" d="m413.46,543.31c-49.8,35.57-113.8,42.75-174.7,48.8-20.35,2.02-40.69,4.04-61.03,6.06-26.51,2.63-53.36,5.34-78.34,14.59-13.98,5.18-27.15,12.33-39.91,20.04-16.67,10.07-32.72,21.14-48.06,33.13-4.84,3.79-10.11,8.81-9.34,14.92.73,5.78,6.83,9.5,12.61,10.23,5.79.74,11.64-.6,17.47-.5,12.58.21,24.08,7.08,33.95,14.88,9.87,7.81,18.94,16.84,30.07,22.71,13.61,7.18,29.91,9.12,44.83,5.31,20.07-5.12,37.42-20.05,58.11-20.99,21.13-.95,43.64,12.8,62.25,2.74,18.18-9.84,20.79-36.96,38.63-47.43"/>
    <path class="cls-1" d="m695.31,666.16c10.79,5.65,19.88,14.5,25.81,25.15,6.84,12.27,10.09,27.47,21.46,35.73,18.98,13.77,46.08-.81,68.84,4.88,15.91,3.97,29.52,17.88,45.82,16.15,7.86-.84,14.8-5.28,21.41-9.6,14.41-9.41,28.82-18.82,43.23-28.23,7.62-4.98,15.9-10.15,25.01-9.84,8.57.28,16.23,5.41,24.65,7.05,14.44,2.81,28.71-4.86,40.91-13.07,2.54-1.71,5.26-3.76,5.83-6.76.87-4.57-3.54-8.25-7.46-10.77-13.98-8.97-28.22-17.52-42.71-25.64-10.15-5.7-20.5-11.21-31.6-14.7-13.91-4.39-28.61-5.48-43.12-6.99-107.15-11.19-210.16-46.79-310.22-86.78-.95-.37-1.89-.75-2.84-1.13"/>
    <path class="cls-1" d="m523.6,1.99c-.18.02-.37.04-.55.07-12.83,1.62-23.71,10.07-33.45,18.63-53.7,47.15-95.37,107.83-120.32,174.77-3.04,8.14-5.83,16.37-8.36,24.68"/>
  </g>
</svg>