<?xml version="1.0" encoding="UTF-8"?>
<svg id="ralts" xmlns="http://www.w3.org/2000/svg" viewBox="0 0 601.74 988.17">
  <defs>
    <style>
      .cls-1 {
        fill: none;
        stroke: #000;
        stroke-miterlimit: 10;
        stroke-width: 4px;
      }

      .cls-2 {
        fill: #ffbadf;
      }

      .cls-3 {
        fill: #e8feff;
      }

      .cls-4 {
        fill: #a9d982;
      }
    </style>
  </defs>
  <g>
    <path class="cls-3" d="m221.17,522.52v.11c.87,3.18,2.09,6.27,3.65,9.18,1.53,2.86,3.61,5.73,6.71,6.72,3.09.99,7.2-.97,7.24-4.22.03-2.36-1.93-4.22-3.74-5.75-2.79-2.36-5.73-4.8-9.29-5.66-1.49-.36-3.02-.41-4.57-.38Zm215.81,344.83l.63-.71c15.08-11.6,37.03-13.43,53.82-4.5,4.58,2.44,8.85,5.62,13.84,7.02,8.61,2.43,17.88-.88,25.35-5.79,7.48-4.91,13.81-11.4,21.22-16.4,1.06-.72,2.26-1.43,3.53-1.28,3.2.38,3.26,5,2.4,8.1-1.21,4.37-2.43,8.74-3.64,13.11,13.65,1.82,25.75-8.56,39.18-11.62,2.21-.5,5.08-.51,6.1,1.51.7,1.37.14,3.02-.44,4.44-7.25,17.63-18.6,33.55-32.91,46.14-4.39,3.86-9.19,7.6-11.68,12.88-2.5,5.28-1.7,12.69,3.41,15.53,1.81,1,4,1.36,5.51,2.77,2.4,2.23,2.04,6.35.04,8.94-2.01,2.59-5.19,3.95-8.3,4.98-19.62,6.5-40.92,3.62-61.59,4.16-34.09.89-67.12,11.21-100.5,18.25-66.94,14.12-136.63,15.01-203.91,2.62-1.78-3.59-2.62-7.53-3.02-11.56l-.22.02c-42.88,2.16-86.24-5.74-125.6-22.89-2.95-1.28-6.11-2.85-7.41-5.79-.77-1.73-.76-3.69-.67-5.58.8-15.82,6.86-30.9,14.05-45.02,22.6-44.38,56.52-81.75,87.46-120.77,30.94-39.02,59.89-81.71,69.65-130.55l-.51-.39c-19.29,25.15-46.59,43.02-74.91,57.26-13.47,6.76-27.65,12.91-42.68,14.05-7.79.59-16.78-.84-21.11-7.25l.04-.03c-1.72-16.1,5.84-31.7,14.52-45.36,24.1-37.95,58.7-69.15,98.94-89.19.19-.1.39-.19.58-.28l-.5-1.02c-35.26-9.2-69.44-28.01-89.44-58.48-8.13-12.39-13.67-26.28-19.16-40.06l.02-.06c12.33,3.36,24.77,6.29,37.31,8.78,13.63,2.71,27.68,4.9,41.36,2.44.96-.17,2.2-.76,1.96-1.72l-.09-.44c1.45-20.8,4.61-41.48,9.43-61.76,5.17,22.51,15.94,43.83,17.61,66.86l.28-.02c8.64,3.3,17.69,5.37,26.76,7.16,37.42,7.38,75.53,10.04,113.62,8.86,30.47-.95,60.93-4.36,91.01-9.79-11.84,25.92-34.02,46.07-58.85,60.09-25.05,14.14-52.84,22.6-80.55,30.31l-.02,1.21c4.5,8.42,6.51,17.9,8.46,27.25,7.48,35.73,14.98,71.62,17.39,108.03,31.77,58.14,72.69,111.7,122.23,155.54Z"/>
    <path class="cls-4" d="m428.32,484.92c-30.08,5.43-60.54,8.84-91.01,9.79l-.04-1.25c.5-31.06,10.28-61.13,19.96-90.65,7.28-22.2,14.56-44.4,22.22-66.46,6.67-19.2,13.66-38.36,22.94-56.45,17.75-34.59,43.9-64.85,75.55-87.44,43.9,58.72,69.62,130.85,72.75,204.11.73,17.29.1,35.25-6.81,51.03l-.25-.11c-8.2,5.5-16.93,10.22-26.03,14.08-11.68,4.95-23.92,8.45-36.2,11.65-17.51,4.55-35.23,8.48-53.08,11.7Z"/>
    <path class="cls-4" d="m179.04,411.85c-.4-1.68-.75-3.37-1.07-5.06-2.58-13.76-2.67-27.87-2.31-41.87.07-2.7.16-5.4.27-8.1.53-13.51,1.61-27,3.88-40.33,3.05-17.86,8.21-35.29,13.51-52.61,9.74-31.8,20.07-63.63,35.68-92.99,10.77-20.24,24.22-39.36,40.69-55.18,7.42-7.14,15.46-13.61,24.15-19.21v-.35c6.72-.16,13.46.01,20.17.51,39.29,2.87,77.82,16.69,109.51,40.14,5.66,4.2,11.11,8.67,16.35,13.38,13.51,12.15,25.64,25.88,36.63,40.37.48.63.96,1.27,1.44,1.91-31.65,22.59-57.8,52.85-75.55,87.44-9.28,18.09-16.27,37.25-22.94,56.45-7.66,22.06-14.94,44.26-22.22,66.46-9.68,29.52-19.46,59.59-19.96,90.65l.04,1.25c-38.09,1.18-76.2-1.48-113.62-8.86-9.07-1.79-18.12-3.86-26.76-7.16l-.28.02c-1.67-23.03-12.44-44.35-17.61-66.86Z"/>
    <path class="cls-2" d="m436.21,67.31c5.91,26.81,7.46,54.58,4.56,81.87l-.9,1c-5.24-4.71-10.69-9.18-16.35-13.38-31.69-23.45-70.22-37.27-109.51-40.14l.07-.93c22.13-20.86,47.69-38.07,75.34-50.72,10.23-4.67,22.47-8.65,32.29-3.19,8.81,4.91,12.33,15.64,14.5,25.49Z"/>
    <path class="cls-4" d="m293.83,96.15v.35c-8.68,5.6-16.72,12.07-24.14,19.21l-.29-.3c-4.59-4.81-9.27-9.52-14.06-14.13l.7-.73c12.44-2.66,25.1-4.11,37.79-4.4Z"/>
    <path class="cls-2" d="m269.4,115.41l.29.3c-16.47,15.82-29.92,34.94-40.69,55.18-15.61,29.36-25.94,61.19-35.68,92.99-5.3,17.32-10.46,34.75-13.51,52.61-2.27,13.33-3.35,26.82-3.88,40.33l-1.57-.06c-11.07-1.33-20.07-9.4-27.5-17.72-37.44-41.93-54.06-97.98-68.76-152.24-1.14-4.22-2.28-8.45-3.4-12.68-2.43-9.15-4.76-18.33-6.87-27.56-4.35-19.05-7.72-38.32-10.08-57.71-2.79-22.83-3.92-47.2,6.75-67.56,3.41-6.49,8.14-12.55,14.6-15.99,13.33-7.1,29.66-1.45,43.36,4.9,48.95,22.69,94.06,53.63,132.88,91.08,4.79,4.61,9.47,9.32,14.06,14.13Z"/>
    <path class="cls-2" d="m235.03,528.56c1.81,1.53,3.77,3.39,3.74,5.75-.04,3.25-4.15,5.21-7.24,4.22-3.1-.99-5.18-3.86-6.71-6.72-1.56-2.91-2.78-6-3.65-9.18v-.11c1.55-.03,3.08.02,4.57.38,3.56.86,6.5,3.3,9.29,5.66Z"/>
    <path class="cls-4" d="m177.97,406.79c.32,1.69.67,3.38,1.07,5.06-4.82,20.28-7.98,40.96-9.43,61.76l.09.44c.24.96-1,1.55-1.96,1.72-13.68,2.46-27.73.27-41.36-2.44-12.54-2.49-24.98-5.42-37.31-8.78-7.39-2.01-14.75-4.19-22.05-6.52l.2-.62c-17.09-57.75-22.2-119.01-14.92-178.78,2.3-18.86,5.81-37.54,9.31-56.2,3-15.97,6.03-32.04,11.63-47.29.22-.27.43-.54.65-.81l.81-.21c1.12,4.23,2.26,8.46,3.4,12.68,14.7,54.26,31.32,110.31,68.76,152.24,7.43,8.32,16.43,16.39,27.5,17.72l1.57.06c-.11,2.7-.2,5.4-.27,8.1-.36,14-.27,28.11,2.31,41.87Z"/>
    <path class="cls-4" d="m73.24,175.14c-5.6,15.25-8.63,31.32-11.63,47.29-3.5,18.66-7.01,37.34-9.31,56.2-7.28,59.77-2.17,121.03,14.92,178.78l-.2.62c-1.02-.32-2.05-.65-3.07-.98-19.33-6.28-38.97-14.05-53.1-28.67l-.67.25c-7.24-18.73-8.63-39.22-8.07-59.3,1.94-70.13,27.32-139.4,71.13-194.19Z"/>
  </g>
  <g>
    <path class="cls-1" d="m10.23,428.78c-.02-.05-.04-.1-.05-.15-7.24-18.73-8.63-39.22-8.07-59.3,1.94-70.13,27.32-139.4,71.13-194.19.22-.27.43-.54.65-.81"/>
    <path class="cls-1" d="m10.85,428.38c14.13,14.62,33.77,22.39,53.1,28.67,1.02.33,2.05.66,3.07.98,7.3,2.33,14.66,4.51,22.05,6.52,12.33,3.36,24.77,6.29,37.31,8.78,13.63,2.71,27.68,4.9,41.36,2.44.96-.17,2.2-.76,1.96-1.72"/>
    <path class="cls-1" d="m256.04,100.55c12.44-2.66,25.1-4.11,37.79-4.4,6.73-.16,13.47.01,20.18.51,39.29,2.87,77.82,16.69,109.51,40.14,5.66,4.2,11.11,8.67,16.35,13.38,13.51,12.15,25.64,25.88,36.63,40.37.48.63.96,1.27,1.44,1.91,43.9,58.72,69.62,130.85,72.75,204.11.73,17.29.1,35.25-6.81,51.03-.43.99-.89,1.98-1.37,2.95"/>
    <path class="cls-1" d="m196.93,478.69c8.64,3.3,17.69,5.37,26.76,7.16,37.42,7.38,75.53,10.04,113.62,8.86,30.47-.95,60.93-4.36,91.01-9.79,17.85-3.22,35.57-7.15,53.08-11.7,12.28-3.2,24.52-6.7,36.2-11.65,9.1-3.86,17.83-8.58,26.03-14.08"/>
    <path class="cls-1" d="m196.66,478.87c0-.05-.01-.11-.01-.16-1.67-23.03-12.44-44.35-17.61-66.86-.4-1.68-.75-3.37-1.07-5.06-2.58-13.76-2.67-27.87-2.31-41.87.07-2.7.16-5.4.27-8.1.53-13.51,1.61-27,3.88-40.33,3.05-17.86,8.21-35.29,13.51-52.61,9.74-31.8,20.07-63.63,35.68-92.99,10.77-20.24,24.22-39.36,40.69-55.18,7.42-7.14,15.46-13.61,24.15-19.21"/>
    <path class="cls-1" d="m269.4,115.41c-4.59-4.81-9.27-9.52-14.06-14.13C216.52,63.83,171.41,32.89,122.46,10.2c-13.7-6.35-30.03-12-43.36-4.9-6.46,3.44-11.19,9.5-14.6,15.99-10.67,20.36-9.54,44.73-6.75,67.56,2.36,19.39,5.73,38.66,10.08,57.71,2.11,9.23,4.44,18.41,6.87,27.56,1.12,4.23,2.26,8.46,3.4,12.68,14.7,54.26,31.32,110.31,68.76,152.24,7.43,8.32,16.43,16.39,27.5,17.72"/>
    <path class="cls-1" d="m94.48,18.75c-11.03,14.05-15.46,32.38-15.69,50.25-.23,17.87,3.41,35.53,7.04,53.02,1.95,9.39,3.9,18.78,5.85,28.17"/>
    <path class="cls-1" d="m73.67,173.97c-.15.39-.29.78-.43,1.17-5.6,15.25-8.63,31.32-11.63,47.29-3.5,18.66-7.01,37.34-9.31,56.2-7.28,59.77-2.17,121.03,14.92,178.78"/>
    <path class="cls-1" d="m478.78,191.86l-.84.6c-31.65,22.59-57.8,52.85-75.55,87.44-9.28,18.09-16.27,37.25-22.94,56.45-7.66,22.06-14.94,44.26-22.22,66.46-9.68,29.52-19.46,59.59-19.96,90.65"/>
    <path class="cls-1" d="m169.61,473.61c1.45-20.8,4.61-41.48,9.43-61.76.09-.43.2-.86.3-1.29"/>
    <path class="cls-1" d="m314.08,95.73c22.13-20.86,47.69-38.07,75.34-50.72,10.23-4.67,22.47-8.65,32.29-3.19,8.81,4.91,12.33,15.64,14.5,25.49,5.91,26.81,7.46,54.58,4.56,81.87"/>
    <path class="cls-1" d="m211.35,522.17c3.14.98,6.51.44,9.82.35,1.55-.03,3.08.02,4.57.38,3.56.86,6.5,3.3,9.29,5.66,1.81,1.53,3.77,3.39,3.74,5.75-.04,3.25-4.15,5.21-7.24,4.22-3.1-.99-5.18-3.86-6.71-6.72-1.56-2.91-2.78-6-3.65-9.18"/>
    <path class="cls-1" d="m84.11,699c-1.72-16.1,5.84-31.7,14.52-45.36,24.1-37.95,58.7-69.15,98.94-89.19.19-.1.39-.19.58-.28,14.74-7.29,31.06-13.14,47.3-10.67,1.39.21,2.83.51,3.9,1.42,1.46,1.24,1.89,3.3,2.07,5.21,1.45,15.25-6.6,29.68-15.18,42.36-22.76,33.62-52.18,63.84-88.99,80.96"/>
    <path class="cls-1" d="m83.8,698.62c.09.14.18.28.27.41,4.33,6.41,13.32,7.84,21.11,7.25,15.03-1.14,29.21-7.29,42.68-14.05,28.32-14.24,55.62-32.11,74.91-57.26.11-.14.23-.29.34-.44"/>
    <path class="cls-1" d="m89.05,464.61c5.49,13.78,11.03,27.67,19.16,40.06,20,30.47,54.18,49.28,89.44,58.48"/>
    <path class="cls-1" d="m288.92,575.32c27.71-7.71,55.5-16.17,80.55-30.31,24.83-14.02,47.01-34.17,58.85-60.09.12-.23.22-.46.33-.7"/>
    <path class="cls-1" d="m288.9,576.53c4.5,8.42,6.51,17.9,8.46,27.25,7.48,35.73,14.98,71.62,17.39,108.03.08,1.27.16,2.54.23,3.82,2.11,37.73-1.64,76.34-16.2,111.21-6,14.38-15.06,29.11-29.8,34.17-5.94,2.04-13.41,1.92-17.5-2.85-2.76-3.21-3.31-7.72-3.66-11.95-2.57-30.91-.87-62.17,5.04-92.63,1.51-7.76,3.29-15.47,4.65-23.26,1.96-11.31,3.04-22.76,4.11-34.19,2.48-26.38,4.95-52.77,7.43-79.15"/>
    <path class="cls-1" d="m223.28,635.36c-9.76,48.84-38.71,91.53-69.65,130.55-30.94,39.02-64.86,76.39-87.46,120.77-7.19,14.12-13.25,29.2-14.05,45.02-.09,1.89-.1,3.85.67,5.58,1.3,2.94,4.46,4.51,7.41,5.79,39.36,17.15,82.72,25.05,125.6,22.89"/>
    <path class="cls-1" d="m217.87,756.39c-16.53,66.1-33.19,133.11-32.25,201.24.04,2.75.12,5.55.4,8.31.4,4.03,1.24,7.97,3.02,11.56.09.2.19.41.3.61.3.57-.76-.05-.6-.66,0-.01,0-.03.01-.05"/>
    <path class="cls-1" d="m194.87,747.51c-.77,23.45,1.57,47,6.93,69.84"/>
    <path class="cls-1" d="m314.32,711.03c.14.26.28.52.43.78,31.77,58.14,72.69,111.7,122.23,155.54,11.43,10.12,23.32,19.72,35.67,28.74"/>
    <path class="cls-1" d="m437.61,866.64c15.08-11.6,37.03-13.43,53.82-4.5,4.58,2.44,8.85,5.62,13.84,7.02,8.61,2.43,17.88-.88,25.35-5.79,7.48-4.91,13.81-11.4,21.22-16.4,1.06-.72,2.26-1.43,3.53-1.28,3.2.38,3.26,5,2.4,8.1-1.21,4.37-2.43,8.74-3.64,13.11,13.65,1.82,25.75-8.56,39.18-11.62,2.21-.5,5.08-.51,6.1,1.51.7,1.37.14,3.02-.44,4.44-7.25,17.63-18.6,33.55-32.91,46.14-4.39,3.86-9.19,7.6-11.68,12.88-2.5,5.28-1.7,12.69,3.41,15.53,1.81,1,4,1.36,5.51,2.77,2.4,2.23,2.04,6.35.04,8.94-2.01,2.59-5.19,3.95-8.3,4.98-19.62,6.5-40.92,3.62-61.59,4.16-34.09.89-67.12,11.21-100.5,18.25-66.94,14.12-136.63,15.01-203.91,2.62-.1,0-.2-.03-.3-.05-.22-.04-.45-.08-.67-.12"/>
  </g>
</svg>