<?xml version="1.0" encoding="UTF-8"?>
<svg id="Dream_Ball" data-name="Dream Ball" xmlns="http://www.w3.org/2000/svg" viewBox="0 0 141.7 141.7">
  <defs>
    <style>
      .cls-1 {
        fill: #f0619f;
      }

      .cls-2 {
        fill: #d8d8d8;
      }

      .cls-3 {
        fill: #d878a8;
      }

      .cls-4 {
        fill: #f6b0ce;
      }

      .cls-5 {
        fill: #8d70b2;
      }

      .cls-6 {
        fill: #171717;
      }

      .cls-7 {
        fill: #f9d0df;
      }

      .cls-8 {
        fill: #a689bf;
      }

      .cls-9 {
        fill: #f0f9f9;
      }
    </style>
  </defs>
  <path id="black_dream" class="cls-6" d="M132.26,75.57h-9.45v-9.45h9.45v9.45Zm0,0h-9.45v9.45h9.45v-9.45Zm-9.45,0h-9.45v9.45h9.45v-9.45Zm-9.45,0h-9.45v9.45h9.45v-9.45Zm0,9.45h-9.45v9.45h9.45v-9.45Zm-9.45,0h-9.45v9.45h9.45v-9.45Zm-56.68-18.89h-9.45v9.45h9.45v-9.45Zm-9.45,9.45h-9.45v9.45h9.45v-9.45Zm-9.45,18.89h9.45v-9.45h-9.45v9.45Zm0,9.45h9.45v-9.45h-9.45v9.45Zm9.45,9.45h9.45v-9.45h-9.45v9.45Zm-18.89-18.89h9.45v-9.45h-9.45v9.45Zm0-9.45h9.45v-9.45h-9.45v9.45Zm-9.45,0h9.45v-9.45H9.45v9.45Zm0-9.45h9.45v-9.45H9.45v9.45Zm56.68-9.45h-9.45v9.45h9.45v-9.45Zm9.45,9.45h-9.45v9.45h9.45v-9.45Zm0,18.89v-9.45h-9.45v9.45h9.45Zm9.45,0v-9.45h-9.45v9.45h9.45Zm0,9.45v-9.45h-9.45v9.45h9.45Zm9.45,0v-9.45h-9.45v9.45h9.45Zm0-9.45v-9.45h-9.45v9.45h9.45Zm-18.89,9.45v-9.45h-9.45v9.45h9.45Zm-9.45,9.45v-9.45h-9.45v9.45h9.45Zm-9.45,0v-9.45h-9.45v9.45h9.45Zm0-47.23h-9.45v9.45h9.45v-9.45Zm0-66.13h-9.45V9.45h9.45V0Zm-9.45,9.45h-9.45v9.45h9.45V9.45Zm-9.45,0h-9.45v9.45h9.45V9.45Zm-9.45,9.45h-9.45v9.45h9.45v-9.45Zm-9.45,9.45H9.45v9.45h9.45v-9.45Zm0,9.45H9.45v9.45h9.45v-9.45Zm-9.45,9.45H0v9.45H9.45v-9.45Zm0,9.45H0v9.45H9.45v-9.45Zm0,9.45H0v9.45H9.45v-9.45Zm0,9.45H0v9.45H9.45v-9.45Zm0,9.45H0v9.45H9.45v-9.45Zm9.45,9.45H9.45v9.45h9.45v-9.45Zm0,9.45H9.45v9.45h9.45v-9.45Zm9.45,9.45h-9.45v9.45h9.45v-9.45Zm9.45,9.45h-9.45v9.45h9.45v-9.45Zm9.45,0h-9.45v9.45h9.45v-9.45Zm9.45,9.45h-9.45v9.45h9.45v-9.45Zm9.45,0h-9.45v9.45h9.45v-9.45Zm9.45,0h-9.45v9.45h9.45v-9.45Zm9.45,0h-9.45v9.45h9.45v-9.45Zm9.45,0h-9.45v9.45h9.45v-9.45Zm9.45-9.45h-9.45v9.45h9.45v-9.45Zm9.45,0h-9.45v9.45h9.45v-9.45Zm9.45-9.45h-9.45v9.45h9.45v-9.45Zm9.45-9.45h-9.45v9.45h9.45v-9.45Zm0-9.45h-9.45v9.45h9.45v-9.45Zm9.45-9.45h-9.45v9.45h9.45v-9.45Zm0-9.45h-9.45v9.45h9.45v-9.45Zm0-9.45h-9.45v9.45h9.45v-9.45Zm0-9.45h-9.45v9.45h9.45v-9.45Zm0-9.45h-9.45v9.45h9.45v-9.45Zm-9.45-9.45h-9.45v9.45h9.45v-9.45Zm0-9.45h-9.45v9.45h9.45v-9.45Zm-9.45-9.45h-9.45v9.45h9.45v-9.45Zm-9.45-9.45h-9.45v9.45h9.45V9.45Zm-9.45,0h-9.45v9.45h9.45V9.45ZM66.13,0h-9.45V9.45h9.45V0Zm9.45,0h-9.45V9.45h9.45V0Zm9.45,0h-9.45V9.45h9.45V0Zm9.45,0h-9.45V9.45h9.45V0Z"/>
  <path id="grey_dream" class="cls-2" d="M47.23,85.02h-9.45v-9.45h9.45v9.45Zm18.89-9.45h-9.45v9.45h9.45v-9.45Zm0,18.89h-9.45v9.45h9.45v-9.45Zm-18.89,0h-9.45v9.45h9.45v-9.45Z"/>
  <path id="white_dream" class="cls-9" d="M56.68,85.02h-9.45v-9.45h9.45v9.45Zm0,0h-9.45v9.45h9.45v-9.45Zm-9.45,0h-9.45v9.45h9.45v-9.45Zm18.89,0h-9.45v9.45h9.45v-9.45Zm-9.45,9.45h-9.45v9.45h9.45v-9.45Zm-9.45-56.68h-9.45v9.45h9.45v-9.45Zm9.45,0h-9.45v9.45h9.45v-9.45Zm0-9.45h-9.45v9.45h9.45v-9.45Zm-9.45,0h-9.45v9.45h9.45v-9.45Z"/>
  <path id="lavendar_dream" class="cls-8" d="M37.79,113.36h-9.45v-9.45h9.45v9.45Zm37.79-9.45h-9.45v9.45h9.45v-9.45Zm0,9.45h-9.45v9.45h9.45v-9.45Zm-9.45,0h-9.45v9.45h9.45v-9.45Zm-9.45,0h-9.45v9.45h9.45v-9.45Zm-9.45,0h-9.45v9.45h9.45v-9.45Z"/>
  <path id="purple_dream" class="cls-5" d="M122.81,94.47h-9.45v-9.45h9.45v9.45Zm-18.89,9.45v-9.45h-9.45v9.45h9.45Zm18.89,0h-9.45v9.45h9.45v-9.45Zm-28.34,9.45h-9.45v9.45h9.45v-9.45Zm-9.45,0h-9.45v9.45h9.45v-9.45Zm-9.45,9.45h-9.45v9.45h9.45v-9.45Zm9.45,0h-9.45v9.45h9.45v-9.45Zm9.45,0h-9.45v9.45h9.45v-9.45Zm-28.34,0h-9.45v9.45h9.45v-9.45Zm-9.45,0h-9.45v9.45h9.45v-9.45Zm-18.89-9.45h-9.45v9.45h9.45v-9.45Zm-9.45-9.45h-9.45v9.45h9.45v-9.45Zm75.57,9.45h-9.45v9.45h9.45v-9.45Zm9.14,0h-9.45v9.45h9.45v-9.45Zm.31-9.45h-9.45v9.45h9.45v-9.45Zm0-9.45h-9.45v9.45h9.45v-9.45Z"/>
  <path id="lightpink_dream" class="cls-7" d="M47.23,28.34h-9.45v-9.45h9.45v9.45Zm-9.45,0h-9.45v9.45h9.45v-9.45Zm0,9.45h-9.45v9.45h9.45v-9.45Zm9.45,9.45h-9.45v9.45h9.45v-9.45Zm47.23,56.68h-9.45v9.45h9.45v-9.45Zm-9.45,0h-9.45v9.45h9.45v-9.45ZM18.89,85.02H9.45v9.45h9.45v-9.45Zm9.45,9.45h-9.45v9.45h9.45v-9.45Z"/>
  <path id="pink_dream" class="cls-4" d="M56.68,18.89h-9.45V9.45h9.45v9.45Zm28.34,0h-9.45v9.45h9.45v-9.45Zm9.45,0h-9.45v9.45h9.45v-9.45Zm-56.68,0h-9.45v9.45h9.45v-9.45Zm9.45,37.79h-9.45v9.45h9.45v-9.45Zm9.45,0h-9.45v9.45h9.45v-9.45Zm9.45,0h-9.45v9.45h9.45v-9.45Zm9.45,0h-9.45v9.45h9.45v-9.45Zm9.45,0h-9.45v9.45h9.45v-9.45Zm0-9.45h-9.45v9.45h9.45v-9.45Zm9.45-9.45h-9.45v9.45h9.45v-9.45Zm9.45,0h-9.45v9.45h9.45v-9.45Zm0-9.45h-9.45v9.45h9.45v-9.45Zm-9.45,0h-9.45v9.45h9.45v-9.45Zm-66.13,0h-9.45v9.45h9.45v-9.45Zm0,9.45h-9.45v9.45h9.45v-9.45Zm0,9.45h-9.45v9.45h9.45v-9.45Zm9.45,0h-9.45v9.45h9.45v-9.45Zm0,9.45h-9.45v9.45h9.45v-9.45Zm-9.45,0h-9.45v9.45h9.45v-9.45ZM66.13,9.45h-9.45v9.45h9.45V9.45Zm9.45,0h-9.45v9.45h9.45V9.45Zm9.45,0h-9.45v9.45h9.45V9.45Zm9.45,0h-9.45v9.45h9.45V9.45Zm9.45,9.45h-9.45v9.45h9.45v-9.45Zm9.45,9.45h-9.45v9.45h9.45v-9.45Zm0,9.45h-9.45v9.45h9.45v-9.45Zm-9.45,9.45h-9.45v9.45h9.45v-9.45Zm-9.45,0h-9.45v9.45h9.45v-9.45Z"/>
  <path id="darkpink_dream" class="cls-3" d="M9.45,56.68v-9.45h9.45v9.45H9.45Zm9.45,9.45v-9.45H9.45v9.45h9.45Zm9.45,9.45v-9.45h-9.45v9.45h9.45Zm9.45,0v-9.45h-9.45v9.45h9.45ZM113.36,28.34v-9.45h-9.45v9.45h9.45Zm9.45,9.45v-9.45h-9.45v9.45h9.45Zm0,9.45v-9.45h-9.45v9.45h9.45Zm0,9.45v-9.45h-9.45v9.45h9.45Zm9.45,0v-9.45h-9.45v9.45h9.45Zm-18.89,0v-9.45h-9.45v9.45h9.45Zm-9.45,9.45v-9.45h-9.45v9.45h9.45Zm-9.45,0v-9.45h-9.45v9.45h9.45Zm-9.45,9.45v-9.45h-9.45v9.45h9.45Zm0,9.45v-9.45h-9.45v9.45h9.45Zm9.45,0v-9.45h-9.45v9.45h9.45Zm9.45,0v-9.45h-9.45v9.45h9.45Zm-28.34-9.45v-9.45h-9.45v9.45h9.45Zm18.89,0v-9.45h-9.45v9.45h9.45Zm9.45,0v-9.45h-9.45v9.45h9.45Zm9.45,0v-9.45h-9.45v9.45h9.45Zm0-9.45v-9.45h-9.45v9.45h9.45Zm9.45,0v-9.45h-9.45v9.45h9.45Zm9.45,0v-9.45h-9.45v9.45h9.45Zm-9.45,9.45v-9.45h-9.45v9.45h9.45Zm0,18.89h-9.45v9.45h9.45v-9.45Zm9.45-9.45h-9.45v9.45h9.45v-9.45Zm-28.34,18.89h-9.45v9.45h9.45v-9.45ZM56.68,18.89h-9.45v9.45h9.45v-9.45Zm0,28.34h-9.45v9.45h9.45v-9.45Zm9.45-9.45h-9.45v9.45h9.45v-9.45Zm0-9.45h-9.45v9.45h9.45v-9.45Z"/>
  <path id="rose_dream" class="cls-1" d="M66.13,28.34h-9.45v-9.45h9.45v9.45Zm9.45-9.45h-9.45v9.45h9.45v-9.45Zm0,28.34h-9.45v9.45h9.45v-9.45Zm-9.45,0h-9.45v9.45h9.45v-9.45Zm9.45-9.45h-9.45v9.45h9.45v-9.45Zm9.45,0h-9.45v9.45h9.45v-9.45Zm0-9.45h-9.45v9.45h9.45v-9.45Zm-9.45,0h-9.45v9.45h9.45v-9.45Z"/>
</svg>