<?xml version="1.0" encoding="UTF-8"?>
<svg id="Layer_1" data-name="Layer 1" xmlns="http://www.w3.org/2000/svg" viewBox="0 0 112 112">
  <defs>
    <style>
      .cls-1 {
        fill: #f4a6e2;
      }

      .cls-2 {
        fill: #fff;
      }

      .cls-3 {
        fill: #ef5ea7;
      }

      .cls-4 {
        fill: #7b4baa;
      }

      .cls-5 {
        fill: #c679b7;
      }

      .cls-6 {
        fill: #383838;
      }
    </style>
  </defs>
  <g id="DREAM_BALL" data-name="DREAM BALL">
    <circle id="blackoutline" cx="56" cy="56" r="56"/>
    <circle id="ballpink" class="cls-5" cx="56" cy="56" r="52.07"/>
    <path id="ballhighlight" class="cls-1" d="m4.29,53.49c8.79,9.78,21.53,15.93,35.71,15.93,26.51,0,30-4.5,40-18.5.7-.97,10-19,4-36-8.72-6.67-16.09-10.82-27.92-10.82C28.26,4.1,5.57,26,4.29,53.49Z"/>
    <path id="purpledetail" class="cls-4" d="m88.99,81.92c-1.35,1.4-10.37,6.08-17,17-2.37,4.08-10.19,3.39-10.41,3.13-1.61-1.84-.97-.67-4.63-6.59-3.65-5.92-6.97-13.18-14.12-13.07-5.84.09-14.38,5.97-19.79,13.91,8.98,7.35,20.45,11.77,32.96,11.77,21.13,0,39.3-12.59,47.46-30.67l-14.47,4.52Z"/>
    <path id="pinkdetail" class="cls-3" d="m56,3.93c-9.39,0-18.2,2.5-25.81,6.85,1.02,11.75,2.83,22.49,12.8,26.13,8.76,3.2,23.95,2.08,33.63-12.93,3.8-5.89,6.48-9.28,8.59-11.09-8.33-5.66-18.39-8.97-29.22-8.97Z"/>
    <ellipse id="shine" class="cls-2" cx="27" cy="33.92" rx="9.84" ry="8.24" transform="translate(-15.44 42.78) rotate(-63.27)"/>
    <path id="greydivide" class="cls-6" d="m54.99,76.61c-.06.02-.11.05-.17.07-1.09-7.78-7.75-13.77-15.83-13.77-6.06,0-11.33,3.37-14.05,8.33h0c-11.05-.67-22.95-10.33-22.95-10.33l2.29,13.74c10.92,4.52,16.48,6.32,18.96,7.01,1.31,7.52,7.85,13.25,15.75,13.25,6.34,0,11.8-3.69,14.39-9.04,0,0,.01.02.01.02,35.4,2.98,48.6-7.98,51.86-9.06s3.74-15.92,3.74-15.92c-21.22,19-54,15.7-54,15.7Z"/>
    <circle id="outerwhite" class="cls-2" cx="38.99" cy="78.92" r="12"/>
    <circle id="greyring" class="cls-6" cx="38.99" cy="78.92" r="8"/>
    <circle id="centerwhite" class="cls-2" cx="38.99" cy="78.92" r="6"/>
  </g>
</svg>