<?xml version="1.0" encoding="UTF-8"?>
<svg id="Layer_1" data-name="Layer 1" xmlns="http://www.w3.org/2000/svg" viewBox="0 0 112 112">
  <defs>
    <style>
      .cls-1 {
        fill: #83d34f;
      }

      .cls-2 {
        fill: #c9431f;
      }

      .cls-3 {
        fill: #a32911;
      }

      .cls-4 {
        fill: #4f4f4f;
      }

      .cls-5 {
        fill: #369944;
      }
    </style>
  </defs>
  <g id="DUSK_BALL" data-name="DUSK BALL">
    <circle id="blackoutline" cx="56" cy="56" r="56"/>
    <circle id="ballgreen" class="cls-5" cx="56" cy="56" r="52.07"/>
    <ellipse id="ballhighlight" class="cls-1" cx="50.99" cy="60.92" rx="36" ry="42"/>
    <g id="greydetail">
      <path class="cls-4" d="m56,3.93c-20.99,0-39.06,12.42-47.3,30.31,1-2.17,2.14-4.25,3.42-6.25,2.97,4.68,4.88,11.86,4.88,19.92,0,12.24-4.39,22.47-10.25,24.94-.85-2.48-1.51-5.05-1.98-7.69,4.33,24.38,25.62,42.89,51.24,42.89,16.35,0,30.91-7.55,40.46-19.34-.48.12-.97.19-1.46.19-7.18,0-13-12.98-13-29s5.82-29,13-29,12.74,12.42,12.99,27.95c.05-.95.08-1.91.08-2.87,0-28.75-23.31-52.07-52.07-52.07Zm-10.51,101.98c-14.64,0-26.5-14.77-26.5-33s11.86-33,26.5-33,26.5,14.77,26.5,33-11.86,33-26.5,33Zm7.75-74.05c-14.07.76-25.79-4.44-26.18-11.61-.39-7.17,10.71-13.6,24.78-14.35,14.07-.76,25.79,4.44,26.18,11.61s-10.71,13.6-24.78,14.35Z"/>
    </g>
    <path id="reddivide" class="cls-2" d="m55.83,76.68c-1.1-8.33-8.21-14.76-16.84-14.76-6.59,0-12.29,3.75-15.11,9.23-7.72-.85-15.66-5.77-19.51-8.46.61,4.72,1.83,9.25,3.61,13.48,7.32,2.95,11.72,4.44,14.2,5.19,1.19,8.23,8.25,14.56,16.8,14.56,6.87,0,12.77-4.08,15.45-9.94,29.75,2.3,43.51-5.31,48.84-8.18,2.26-4.9,3.79-10.21,4.43-15.79-19.19,16.06-46.77,15.02-51.88,14.67Z"/>
    <path id="divideshadow" class="cls-3" d="m103.28,77.8c2.26-4.9,3.79-10.21,4.43-15.79-18.71,11.91-24.71,12.91-24.71,12.91-5,10-3,10-3,10,17-2,17.9-4.22,23.29-7.12Z"/>
    <circle id="outerblackring" cx="38.99" cy="78.92" r="12"/>
    <circle id="outerred" class="cls-2" cx="38.99" cy="78.92" r="10.29"/>
    <circle id="innerblackring" cx="38.99" cy="78.92" r="8"/>
    <circle id="centerred" class="cls-2" cx="38.99" cy="78.92" r="6"/>
  </g>
</svg>