<?xml version="1.0" encoding="UTF-8"?>
<svg id="Dusk_Ball" data-name="Dusk Ball" xmlns="http://www.w3.org/2000/svg" viewBox="0 0 141.7 141.7">
  <defs>
    <style>
      .cls-1 {
        fill: #484038;
      }

      .cls-2 {
        fill: #3f9845;
      }

      .cls-3 {
        fill: #f09958;
      }

      .cls-4 {
        fill: #f8f0a7;
      }

      .cls-5 {
        fill: #f15a22;
      }

      .cls-6 {
        fill: #d0e396;
      }

      .cls-7 {
        fill: #171717;
      }

      .cls-8 {
        fill: #8ac869;
      }

      .cls-9 {
        fill: #616058;
      }
    </style>
  </defs>
  <path id="black_dusk" class="cls-7" d="M56.68,9.45h-9.45V0h9.45V9.45Zm-9.45,0h-9.45v9.45h9.45V9.45Zm-9.45,0h-9.45v9.45h9.45V9.45Zm-9.45,9.45h-9.45v9.45h9.45v-9.45Zm-9.45,9.45H9.45v9.45h9.45v-9.45Zm0,9.45H9.45v9.45h9.45v-9.45Zm-9.45,9.45H0v9.45H9.45v-9.45Zm0,9.45H0v9.45H9.45v-9.45Zm0,9.45H0v9.45H9.45v-9.45Zm0,9.45H0v9.45H9.45v-9.45Zm0,9.45H0v9.45H9.45v-9.45Zm9.45,9.45H9.45v9.45h9.45v-9.45Zm0,9.45H9.45v9.45h9.45v-9.45Zm9.45,9.45h-9.45v9.45h9.45v-9.45Zm9.45,9.45h-9.45v9.45h9.45v-9.45Zm9.45,0h-9.45v9.45h9.45v-9.45Zm9.45,9.45h-9.45v9.45h9.45v-9.45Zm9.45,0h-9.45v9.45h9.45v-9.45Zm9.45,0h-9.45v9.45h9.45v-9.45Zm9.45,0h-9.45v9.45h9.45v-9.45Zm9.45,0h-9.45v9.45h9.45v-9.45Zm9.45-9.45h-9.45v9.45h9.45v-9.45Zm9.45,0h-9.45v9.45h9.45v-9.45Zm9.45-9.45h-9.45v9.45h9.45v-9.45Zm9.45-9.45h-9.45v9.45h9.45v-9.45Zm0-9.45h-9.45v9.45h9.45v-9.45Zm9.45-9.45h-9.45v9.45h9.45v-9.45Zm0-9.45h-9.45v9.45h9.45v-9.45Zm0-9.45h-9.45v9.45h9.45v-9.45Zm0-9.45h-9.45v9.45h9.45v-9.45Zm0-9.45h-9.45v9.45h9.45v-9.45Zm-9.45-9.45h-9.45v9.45h9.45v-9.45Zm0-9.45h-9.45v9.45h9.45v-9.45Zm-9.45-9.45h-9.45v9.45h9.45v-9.45Zm-9.45-9.45h-9.45v9.45h9.45V9.45Zm-9.45,0h-9.45v9.45h9.45V9.45ZM66.13,0h-9.45V9.45h9.45V0Zm9.45,0h-9.45V9.45h9.45V0Zm9.45,0h-9.45V9.45h9.45V0Zm9.45,0h-9.45V9.45h9.45V0Z"/>
  <path id="orange_dusk" class="cls-5" d="M9.45,66.13v-9.45h9.45v9.45H9.45Zm122.81,0h-9.45v9.45h9.45v-9.45Zm0,9.45h-9.45v9.45h9.45v-9.45Zm-9.45,0h-9.45v9.45h9.45v-9.45Zm-9.45,0h-9.45v9.45h9.45v-9.45Zm-9.45,9.45h-9.45v9.45h9.45v-9.45Zm-56.68-18.89h-9.45v9.45h9.45v-9.45Zm-9.45,9.45h-9.45v9.45h9.45v-9.45Zm-9.45,18.89h9.45v-9.45h-9.45v9.45Zm0,9.45h9.45v-9.45h-9.45v9.45Zm9.45,9.45h9.45v-9.45h-9.45v9.45Zm-18.89-28.34h9.45v-9.45h-9.45v9.45Zm-9.45-9.45h9.45v-9.45H9.45v9.45Zm56.68-9.45h-9.45v9.45h9.45v-9.45Zm9.45,9.45h-9.45v9.45h9.45v-9.45Zm0,18.89v-9.45h-9.45v9.45h9.45Zm9.45,0v-9.45h-9.45v9.45h9.45Zm0,9.45v-9.45h-9.45v9.45h9.45Zm9.45-9.45v-9.45h-9.45v9.45h9.45Zm-18.89,9.45v-9.45h-9.45v9.45h9.45Zm-9.45,9.45v-9.45h-9.45v9.45h9.45Zm-9.45,0v-9.45h-9.45v9.45h9.45Zm0-47.23h-9.45v9.45h9.45v-9.45Z"/>
  <path id="lightorange_dusk" class="cls-3" d="M113.36,94.47h-9.45v-9.45h9.45v9.45Zm9.45-9.45h-9.45v9.45h9.45v-9.45Zm-103.91,9.45h9.45v-9.45h-9.45v9.45Zm-9.45-9.45h9.45v-9.45H9.45v9.45Zm85.02,18.89v-9.45h-9.45v9.45h9.45Zm9.45,0v-9.45h-9.45v9.45h9.45Zm-56.68-28.34h-9.45v9.45h9.45v-9.45Zm18.89,0h-9.45v9.45h9.45v-9.45Zm0,18.89h-9.45v9.45h9.45v-9.45Zm-18.89,0h-9.45v9.45h9.45v-9.45Z"/>
  <path id="yellow_dusk" class="cls-4" d="M56.68,85.02h-9.45v-9.45h9.45v9.45Zm0,0h-9.45v9.45h9.45v-9.45Zm-9.45,0h-9.45v9.45h9.45v-9.45Zm18.89,0h-9.45v9.45h9.45v-9.45Zm-9.45,9.45h-9.45v9.45h9.45v-9.45ZM47.23,18.89h-9.45v9.45h9.45v-9.45Zm9.45,0h-9.45v9.45h9.45v-9.45Zm0,9.45h-9.45v9.45h9.45v-9.45Zm-9.45,0h-9.45v9.45h9.45v-9.45Z"/>
  <path id="lightgreen_dusk" class="cls-6" d="M56.68,18.89h-9.45V9.45h9.45v9.45Zm9.45,0h-9.45v9.45h9.45v-9.45Zm-9.45,18.89h-9.45v9.45h9.45v-9.45Zm9.45-9.45h-9.45v9.45h9.45v-9.45Z"/>
  <path id="green_dusk" class="cls-8" d="M28.34,75.57v-9.45h9.45v9.45h-9.45Zm47.23,0v-9.45h-9.45v9.45h9.45Zm0-56.68h-9.45v9.45h9.45v-9.45Zm9.45,0h-9.45v9.45h9.45v-9.45ZM47.23,56.68h-9.45v9.45h9.45v-9.45Zm9.45,0h-9.45v9.45h9.45v-9.45Zm9.45,0h-9.45v9.45h9.45v-9.45Zm0-18.89h-9.45v9.45h9.45v-9.45Zm9.45,0h-9.45v9.45h9.45v-9.45Zm9.45-9.45h-9.45v9.45h9.45v-9.45Zm-9.45,0h-9.45v9.45h9.45v-9.45Zm-9.45-18.89h-9.45v9.45h9.45V9.45Zm9.45,0h-9.45v9.45h9.45V9.45Z"/>
  <path id="darkgreen_dusk" class="cls-2" d="M113.36,47.23v-9.45h9.45v9.45h-9.45Zm9.45,9.45v-9.45h-9.45v9.45h9.45Zm9.45,0v-9.45h-9.45v9.45h9.45Zm-18.89,0v-9.45h-9.45v9.45h9.45Zm-28.34,18.89v-9.45h-9.45v9.45h9.45Zm0,9.45v-9.45h-9.45v9.45h9.45Zm18.89,0v-9.45h-9.45v9.45h9.45Zm0-9.45v-9.45h-9.45v9.45h9.45Zm9.45,0v-9.45h-9.45v9.45h9.45Zm0-9.45v-9.45h-9.45v9.45h9.45Zm9.45,0v-9.45h-9.45v9.45h9.45Zm9.45,0v-9.45h-9.45v9.45h9.45Zm-9.45,9.45v-9.45h-9.45v9.45h9.45Zm0,18.89h-9.45v9.45h9.45v-9.45Zm9.45-9.45h-9.45v9.45h9.45v-9.45Zm-9.45,18.89h-9.45v9.45h9.45v-9.45Zm-28.34,18.89h-9.45v9.45h9.45v-9.45Zm-56.68-18.89h-9.45v9.45h9.45v-9.45Zm75.57,0h-9.45v9.45h9.45v-9.45ZM94.47,18.89h-9.45v9.45h9.45v-9.45Zm-18.89,37.79h-9.45v9.45h9.45v-9.45Zm9.45-18.89h-9.45v9.45h9.45v-9.45Zm9.45-9.45h-9.45v9.45h9.45v-9.45Zm-9.45-18.89h-9.45v9.45h9.45V9.45Zm9.45,0h-9.45v9.45h9.45V9.45Zm9.45,9.45h-9.45v9.45h9.45v-9.45Zm9.45,75.57h-9.45v9.45h9.45v-9.45Zm-28.34,9.45h-9.45v9.45h9.45v-9.45Zm-9.45,0h-9.45v9.45h9.45v-9.45Zm0,9.45h-9.45v9.45h9.45v-9.45Zm-9.45,0h-9.45v9.45h9.45v-9.45Zm-9.45,0h-9.45v9.45h9.45v-9.45Zm-9.45,0h-9.45v9.45h9.45v-9.45Zm-28.34-28.34H9.45v9.45h9.45v-9.45Z"/>
  <path id="grey_dusk" class="cls-9" d="M18.89,75.57v-9.45h9.45v9.45h-9.45ZM113.36,28.34v-9.45h-9.45v9.45h9.45Zm-18.89,37.79v-9.45h-9.45v9.45h9.45Zm0,9.45v-9.45h-9.45v9.45h9.45Zm9.45,28.34h-9.45v9.45h9.45v-9.45Zm-18.89,9.45h-9.45v9.45h9.45v-9.45Zm-9.45,9.45h-9.45v9.45h9.45v-9.45Zm-9.45,0h-9.45v9.45h9.45v-9.45Zm-9.45,0h-9.45v9.45h9.45v-9.45Zm-28.34-18.89h-9.45v9.45h9.45v-9.45Zm84.71,9.45h-9.45v9.45h9.45v-9.45ZM37.79,18.89h-9.45v9.45h9.45v-9.45Zm0,9.45h-9.45v9.45h9.45v-9.45Zm0,9.45h-9.45v9.45h9.45v-9.45Zm9.45,0h-9.45v9.45h9.45v-9.45Zm0,9.45h-9.45v9.45h9.45v-9.45Zm37.79,9.45h-9.45v9.45h9.45v-9.45Zm0-9.45h-9.45v9.45h9.45v-9.45Zm-9.45,0h-9.45v9.45h9.45v-9.45Zm-9.45,0h-9.45v9.45h9.45v-9.45Zm-9.45,0h-9.45v9.45h9.45v-9.45Zm37.79-9.45h-9.45v9.45h9.45v-9.45Zm9.45,0h-9.45v9.45h9.45v-9.45Zm0-9.45h-9.45v9.45h9.45v-9.45ZM28.34,47.23h-9.45v9.45h9.45v-9.45Zm9.45,0h-9.45v9.45h9.45v-9.45Zm0,9.45h-9.45v9.45h9.45v-9.45ZM113.36,28.34h-9.45v9.45h9.45v-9.45Zm-9.45,18.89h-9.45v9.45h9.45v-9.45Zm-9.45,0h-9.45v9.45h9.45v-9.45Z"/>
  <path id="darkgray_dusk" class="cls-1" d="M9.45,56.68v-9.45h9.45v9.45H9.45Zm113.36-18.89v-9.45h-9.45v9.45h9.45Zm-18.89,28.34v-9.45h-9.45v9.45h9.45Zm-9.45,18.89v-9.45h-9.45v9.45h9.45Zm0,28.34h-9.45v9.45h9.45v-9.45Zm-9.45,9.45h-9.45v9.45h9.45v-9.45Zm24.52,0h-9.45v9.45h9.45v-9.45Zm-71.76-9.45h-9.45v9.45h9.45v-9.45Zm66.13,0h-9.45v9.45h9.45v-9.45ZM28.34,28.34h-9.45v9.45h9.45v-9.45Zm0,9.45h-9.45v9.45h9.45v-9.45Zm0,18.89h-9.45v9.45h9.45v-9.45Zm85.02-18.89h-9.45v9.45h9.45v-9.45Zm-18.89,66.13h-9.45v9.45h9.45v-9.45Zm-66.13-9.45h-9.45v9.45h9.45v-9.45Z"/>
</svg>