<?xml version="1.0" encoding="UTF-8"?>
<svg id="Layer_1" data-name="Layer 1" xmlns="http://www.w3.org/2000/svg" viewBox="0 0 112 112">
  <defs>
    <style>
      .cls-1 {
        fill: #fff;
      }

      .cls-2 {
        fill: #ce4141;
      }

      .cls-3 {
        fill: #3f99d1;
      }

      .cls-4 {
        fill: #2269aa;
      }

      .cls-5 {
        fill: #bdccd4;
      }
    </style>
  </defs>
  <g id="GREAT_BALL" data-name="GREAT BALL">
    <circle id="blackoutline" cx="56" cy="56" r="56"/>
    <circle id="ballblue" class="cls-4" cx="56" cy="56" r="52.07"/>
    <path id="whitebottom" class="cls-1" d="m63.96,85.92c-22.21,0-42.2-3.21-56.25-10.43,7.72,19.1,26.42,32.58,48.28,32.58,20.64,0,38.47-12.01,46.89-29.42-11.43,4.61-24.72,7.27-38.93,7.27Z"/>
    <path id="shadowbottom" class="cls-5" d="m63.96,85.92c-3.56,0-7.06-.09-10.49-.26-6.18,2.06-2.88,9.98-28.36,12.25,8.64,6.38,19.32,10.16,30.89,10.16,20.64,0,40.57-13.74,48.99-31.15-11.43,4.61-27.05,11.54-41.03,9Z"/>
    <path id="ballhighlight" class="cls-3" d="m4.29,53.49c8.79,9.78,21.53,15.93,35.71,15.93,26.51,0,48-21.49,48-48,0-2.27-.17-4.49-.47-6.68-8.72-6.67-19.62-10.64-31.45-10.64-13.46,0-25.72,5.13-34.93,13.54C11.31,26.6,4.95,39.3,4.29,53.49Z"/>
    <ellipse id="shine" class="cls-1" cx="37.43" cy="31.92" rx="12.3" ry="11.16" transform="translate(-7.92 50.99) rotate(-63.27)"/>
    <path id="blackdivide" d="m54.99,76.61c-.06.02-.11.05-.17.07-1.09-7.78-7.75-13.77-15.83-13.77-6.06,0-11.33,3.37-14.05,8.33h0c-11.05-.67-22.95-10.33-22.95-10.33l2.29,13.74c10.92,4.52,16.48,6.32,18.96,7.01,1.31,7.52,7.85,13.25,15.75,13.25,6.34,0,11.8-3.69,14.39-9.04,0,0,.01.02.01.02,35.4,2.98,48.6-7.98,51.86-9.06s3.74-15.92,3.74-15.92c-21.22,19-54,15.7-54,15.7Z"/>
    <circle id="outerwhite" class="cls-1" cx="38.99" cy="78.92" r="12"/>
    <circle id="blackring" cx="38.99" cy="78.92" r="8"/>
    <circle id="centerwhite" class="cls-1" cx="38.99" cy="78.92" r="6"/>
    <path id="reddetail" class="cls-2" d="m22.99,16.03c-2,12.11,4,34.37,4,34.37,0,0-2,8.52-11.35,5.6-5.33-1.66-8.27-8.4-9.81-13.91,2.91-10.5,9.01-19.68,17.21-26.4-.02.11-.03.21-.05.33Zm64.7-1.32c-.11.02-.17.04-.17.04-11.47,34.82-19.14,24.56-19.53,35.18s6.65,13,6.65,13c13.24,0,25.79-20.73,29.35-27.14-3.53-8.37-9.19-15.62-16.3-21.08Z"/>
  </g>
</svg>