<?xml version="1.0" encoding="UTF-8"?>
<svg id="Great_Ball" data-name="Great Ball" xmlns="http://www.w3.org/2000/svg" viewBox="0 0 141.7 141.7">
  <defs>
    <style>
      .cls-1 {
        fill: #747bbb;
      }

      .cls-2 {
        fill: #d8d8d8;
      }

      .cls-3 {
        fill: #f26761;
      }

      .cls-4 {
        fill: #d14038;
      }

      .cls-5 {
        fill: #171717;
      }

      .cls-6 {
        fill: #f7a098;
      }

      .cls-7 {
        fill: #f0f9f9;
      }

      .cls-8 {
        fill: #5a62ad;
      }

      .cls-9 {
        fill: #b0b8d0;
      }
    </style>
  </defs>
  <path id="black_great" class="cls-5" d="M132.26,75.57h-9.45v-9.45h9.45v9.45Zm0,0h-9.45v9.45h9.45v-9.45Zm-9.45,0h-9.45v9.45h9.45v-9.45Zm-9.45,0h-9.45v9.45h9.45v-9.45Zm0,9.45h-9.45v9.45h9.45v-9.45Zm9.45,0h-9.45v9.45h9.45v-9.45Zm-18.89,0h-9.45v9.45h9.45v-9.45Zm-56.68-18.89h-9.45v9.45h9.45v-9.45Zm-9.45,9.45h-9.45v9.45h9.45v-9.45Zm-9.45,18.89h9.45v-9.45h-9.45v9.45Zm0,9.45h9.45v-9.45h-9.45v9.45Zm9.45,9.45h9.45v-9.45h-9.45v9.45Zm-18.89-18.89h9.45v-9.45h-9.45v9.45Zm0-9.45h9.45v-9.45h-9.45v9.45Zm-9.45,0h9.45v-9.45H9.45v9.45Zm0-9.45h9.45v-9.45H9.45v9.45Zm56.68-9.45h-9.45v9.45h9.45v-9.45Zm9.45,9.45h-9.45v9.45h9.45v-9.45Zm0,18.89v-9.45h-9.45v9.45h9.45Zm9.45,0v-9.45h-9.45v9.45h9.45Zm0,9.45v-9.45h-9.45v9.45h9.45Zm9.45,0v-9.45h-9.45v9.45h9.45Zm9.45,0v-9.45h-9.45v9.45h9.45Zm-9.45-9.45v-9.45h-9.45v9.45h9.45Zm-18.89,9.45v-9.45h-9.45v9.45h9.45Zm-9.45,9.45v-9.45h-9.45v9.45h9.45Zm-9.45,0v-9.45h-9.45v9.45h9.45Zm0-47.23h-9.45v9.45h9.45v-9.45Zm0-66.13h-9.45V9.45h9.45V0Zm-9.45,9.45h-9.45v9.45h9.45V9.45Zm-9.45,0h-9.45v9.45h9.45V9.45Zm-9.45,9.45h-9.45v9.45h9.45v-9.45Zm-9.45,9.45H9.45v9.45h9.45v-9.45Zm0,9.45H9.45v9.45h9.45v-9.45Zm-9.45,9.45H0v9.45H9.45v-9.45Zm0,9.45H0v9.45H9.45v-9.45Zm0,9.45H0v9.45H9.45v-9.45Zm0,9.45H0v9.45H9.45v-9.45Zm0,9.45H0v9.45H9.45v-9.45Zm9.45,9.45H9.45v9.45h9.45v-9.45Zm0,9.45H9.45v9.45h9.45v-9.45Zm9.45,9.45h-9.45v9.45h9.45v-9.45Zm9.45,9.45h-9.45v9.45h9.45v-9.45Zm9.45,0h-9.45v9.45h9.45v-9.45Zm9.45,9.45h-9.45v9.45h9.45v-9.45Zm9.45,0h-9.45v9.45h9.45v-9.45Zm9.45,0h-9.45v9.45h9.45v-9.45Zm9.45,0h-9.45v9.45h9.45v-9.45Zm9.45,0h-9.45v9.45h9.45v-9.45Zm9.45-9.45h-9.45v9.45h9.45v-9.45Zm9.45,0h-9.45v9.45h9.45v-9.45Zm9.45-9.45h-9.45v9.45h9.45v-9.45Zm9.45-9.45h-9.45v9.45h9.45v-9.45Zm0-9.45h-9.45v9.45h9.45v-9.45Zm9.45-9.45h-9.45v9.45h9.45v-9.45Zm0-9.45h-9.45v9.45h9.45v-9.45Zm0-9.45h-9.45v9.45h9.45v-9.45Zm0-9.45h-9.45v9.45h9.45v-9.45Zm0-9.45h-9.45v9.45h9.45v-9.45Zm0-9.45h-9.45v9.45h9.45v-9.45Zm-9.45-9.45h-9.45v9.45h9.45v-9.45Zm-9.45-9.45h-9.45v9.45h9.45v-9.45Zm-9.45-9.45h-9.45v9.45h9.45V9.45Zm-9.45,0h-9.45v9.45h9.45V9.45ZM66.13,0h-9.45V9.45h9.45V0Zm9.45,0h-9.45V9.45h9.45V0Zm9.45,0h-9.45V9.45h9.45V0Zm9.45,0h-9.45V9.45h9.45V0Z"/>
  <path id="grey_great" class="cls-2" d="M122.81,103.91h-9.45v-9.45h9.45v9.45Zm9.45-18.89h-9.45v9.45h9.45v-9.45Zm-9.45,18.89h-9.45v9.45h9.45v-9.45Zm-18.89,0h-9.45v9.45h9.45v-9.45Zm-9.45,9.45h-9.45v9.45h9.45v-9.45Zm-9.45,0h-9.45v9.45h9.45v-9.45Zm-9.45,9.45h-9.45v9.45h9.45v-9.45Zm9.45,0h-9.45v9.45h9.45v-9.45Zm9.45,0h-9.45v9.45h9.45v-9.45Zm-28.34,0h-9.45v9.45h9.45v-9.45Zm-9.45,0h-9.45v9.45h9.45v-9.45Zm-9.45-47.23h-9.45v9.45h9.45v-9.45Zm18.89,0h-9.45v9.45h9.45v-9.45Zm0,18.89h-9.45v9.45h9.45v-9.45Zm-18.89,0h-9.45v9.45h9.45v-9.45Zm-9.45,18.89h-9.45v9.45h9.45v-9.45Zm-9.45-9.45h-9.45v9.45h9.45v-9.45Zm75.57,9.45h-9.45v9.45h9.45v-9.45Zm9.14,0h-9.45v9.45h9.45v-9.45Zm.31-9.45h-9.45v9.45h9.45v-9.45Z"/>
  <path id="white_great" class="cls-7" d="M37.79,113.36h-9.45v-9.45h9.45v9.45Zm18.89-37.79h-9.45v9.45h9.45v-9.45Zm0,9.45h-9.45v9.45h9.45v-9.45Zm-9.45,0h-9.45v9.45h9.45v-9.45Zm18.89,0h-9.45v9.45h9.45v-9.45Zm-9.45,9.45h-9.45v9.45h9.45v-9.45Zm0-56.68h-9.45v9.45h9.45v-9.45Zm9.45,0h-9.45v9.45h9.45v-9.45Zm0-9.45h-9.45v9.45h9.45v-9.45Zm-9.45,0h-9.45v9.45h9.45v-9.45Zm56.68,66.13h-9.45v9.45h9.45v-9.45Zm-18.89,9.45h-9.45v9.45h9.45v-9.45Zm-9.45,0h-9.45v9.45h9.45v-9.45Zm-9.45,0h-9.45v9.45h9.45v-9.45Zm0,9.45h-9.45v9.45h9.45v-9.45Zm-9.45,0h-9.45v9.45h9.45v-9.45Zm-9.45,0h-9.45v9.45h9.45v-9.45Zm-9.45,0h-9.45v9.45h9.45v-9.45Zm-28.34-28.34H9.45v9.45h9.45v-9.45Zm9.45,9.45h-9.45v9.45h9.45v-9.45Z"/>
  <path id="blue_great" class="cls-1" d="M56.68,18.89h-9.45V9.45h9.45v9.45Zm-9.45,0h-9.45v9.45h9.45v-9.45Zm28.34,0h-9.45v9.45h9.45v-9.45Zm9.45,0h-9.45v9.45h9.45v-9.45Zm9.45,0h-9.45v9.45h9.45v-9.45Zm-56.68,9.45h-9.45v9.45h9.45v-9.45Zm0,9.45h-9.45v9.45h9.45v-9.45Zm9.45,9.45h-9.45v9.45h9.45v-9.45Zm9.45,9.45h-9.45v9.45h9.45v-9.45Zm9.45,0h-9.45v9.45h9.45v-9.45Zm9.45,0h-9.45v9.45h9.45v-9.45Zm9.45,0h-9.45v9.45h9.45v-9.45Zm0-9.45h-9.45v9.45h9.45v-9.45Zm-9.45,0h-9.45v9.45h9.45v-9.45Zm9.45-9.45h-9.45v9.45h9.45v-9.45Zm9.45,0h-9.45v9.45h9.45v-9.45Zm9.45-9.45h-9.45v9.45h9.45v-9.45Zm-9.45,0h-9.45v9.45h9.45v-9.45Zm-9.45,0h-9.45v9.45h9.45v-9.45Zm-18.89-18.89h-9.45v9.45h9.45V9.45Zm9.45,0h-9.45v9.45h9.45V9.45Zm9.45,0h-9.45v9.45h9.45V9.45Zm9.45,0h-9.45v9.45h9.45V9.45Zm0,37.79h-9.45v9.45h9.45v-9.45Z"/>
  <path id="lightblue_great" class="cls-9" d="M56.68,28.34h-9.45v-9.45h9.45v9.45Zm9.45-9.45h-9.45v9.45h9.45v-9.45Zm-18.89,18.89h-9.45v9.45h9.45v-9.45Zm18.89,9.45h-9.45v9.45h9.45v-9.45Zm-9.45,0h-9.45v9.45h9.45v-9.45Zm18.89-9.45h-9.45v9.45h9.45v-9.45Zm0-9.45h-9.45v9.45h9.45v-9.45Zm-28.34,0h-9.45v9.45h9.45v-9.45Z"/>
  <path id="darkblue_great" class="cls-8" d="M18.89,75.57v-9.45h9.45v9.45h-9.45Zm18.89,0v-9.45h-9.45v9.45h9.45Zm47.23,0v-9.45h-9.45v9.45h9.45Zm0,9.45v-9.45h-9.45v9.45h9.45Zm9.45,0v-9.45h-9.45v9.45h9.45Zm9.45,0v-9.45h-9.45v9.45h9.45Zm-28.34-9.45v-9.45h-9.45v9.45h9.45Zm18.89,0v-9.45h-9.45v9.45h9.45Zm37.79-9.45v-9.45h-9.45v9.45h9.45Zm-9.45,9.45v-9.45h-9.45v9.45h9.45ZM37.79,18.89h-9.45v9.45h9.45v-9.45Zm9.45,37.79h-9.45v9.45h9.45v-9.45Zm-9.45-9.45h-9.45v9.45h9.45v-9.45Zm0,9.45h-9.45v9.45h9.45v-9.45ZM103.91,18.89h-9.45v9.45h9.45v-9.45Z"/>
  <path id="lightred_great" class="cls-6" d="M103.91,28.34v-9.45h9.45v9.45h-9.45Zm-9.45,37.79v-9.45h-9.45v9.45h9.45Zm9.45-28.34h-9.45v9.45h9.45v-9.45ZM28.34,28.34h-9.45v9.45h9.45v-9.45Zm75.57,18.89h-9.45v9.45h9.45v-9.45Z"/>
  <path id="red_great" class="cls-3" d="M28.34,47.23h-9.45v-9.45h9.45v9.45Zm0,9.45h-9.45v9.45h9.45v-9.45ZM113.36,28.34h-9.45v9.45h9.45v-9.45Zm0,9.45h-9.45v9.45h9.45v-9.45Z"/>
  <path id="darkred_great" class="cls-4" d="M9.45,56.68v-9.45h9.45v9.45H9.45Zm9.45,9.45v-9.45H9.45v9.45h9.45Zm103.91-28.34v-9.45h-9.45v9.45h9.45Zm0,9.45v-9.45h-9.45v9.45h9.45Zm0,9.45v-9.45h-9.45v9.45h9.45Zm9.45,0v-9.45h-9.45v9.45h9.45Zm0-9.45v-9.45h-9.45v9.45h9.45Zm-18.89,9.45v-9.45h-9.45v9.45h9.45Zm-9.45,9.45v-9.45h-9.45v9.45h9.45Zm0,9.45v-9.45h-9.45v9.45h9.45Zm9.45,0v-9.45h-9.45v9.45h9.45Zm0-9.45v-9.45h-9.45v9.45h9.45Zm9.45,0v-9.45h-9.45v9.45h9.45ZM28.34,47.23h-9.45v9.45h9.45v-9.45Z"/>
</svg>