<?xml version="1.0" encoding="UTF-8"?>
<svg id="Layer_1" data-name="Layer 1" xmlns="http://www.w3.org/2000/svg" viewBox="0 0 112 112">
  <defs>
    <style>
      .cls-1 {
        fill: #94409b;
      }

      .cls-2 {
        fill: #fff;
      }

      .cls-3 {
        fill: #6b2d7f;
      }

      .cls-4 {
        fill: #bdccd4;
      }

      .cls-5 {
        fill: #fcbefb;
      }

      .cls-6 {
        fill: #cc4ab3;
      }

      .cls-7 {
        fill: #e585de;
      }
    </style>
  </defs>
  <g id="MASTER_BALL" data-name="MASTER BALL">
    <circle id="blackoutline" cx="56" cy="56" r="56"/>
    <circle id="ballpurple" class="cls-3" cx="56" cy="56" r="52.07"/>
    <path id="whitebottom" class="cls-2" d="m63.96,85.92c-22.21,0-42.2-3.21-56.25-10.43,7.72,19.1,26.42,32.58,48.28,32.58,20.64,0,38.47-12.01,46.89-29.42-11.43,4.61-24.72,7.27-38.93,7.27Z"/>
    <path id="shadowbottom" class="cls-4" d="m63.96,85.92c-3.56,0-7.06-.09-10.49-.26-6.18,2.06-2.88,9.98-28.36,12.25,8.64,6.38,19.32,10.16,30.89,10.16,20.64,0,40.57-13.74,48.99-31.15-11.43,4.61-27.05,11.54-41.03,9Z"/>
    <path id="ballhighlight" class="cls-1" d="m4.29,53.49c8.79,9.78,21.53,15.93,35.71,15.93,26.51,0,48-21.49,48-48,0-2.27-.17-4.49-.47-6.68-8.72-6.67-19.62-10.64-31.45-10.64-13.46,0-25.72,5.13-34.93,13.54C11.31,26.6,4.95,39.3,4.29,53.49Z"/>
    <path id="blackdivide" d="m54.99,76.61c-.06.02-.11.05-.17.07-1.09-7.78-7.75-13.77-15.83-13.77-6.06,0-11.33,3.37-14.05,8.33h0c-11.05-.67-22.95-10.33-22.95-10.33l2.29,13.74c10.92,4.52,16.48,6.32,18.96,7.01,1.31,7.52,7.85,13.25,15.75,13.25,6.34,0,11.8-3.69,14.39-9.04,0,0,.01.02.01.02,35.4,2.98,48.6-7.98,51.86-9.06s3.74-15.92,3.74-15.92c-21.22,19-54,15.7-54,15.7Z"/>
    <circle id="outerwhite" class="cls-2" cx="38.99" cy="78.92" r="12"/>
    <circle id="blackring" cx="38.99" cy="78.92" r="8"/>
    <circle id="centerwhite" class="cls-2" cx="38.99" cy="78.92" r="6"/>
    <path id="M" class="cls-2" d="m52.99,43.92c-.14,1.07,1.57,6.77,1.38,8.92s-.35,3.75-.49,4.81c-.04.3-.23.43-.55.39l-5.99-.8c-.33-.04-.47-.24-.42-.58.13-.99.37-2.47.72-4.44.35-1.97.59-3.45.72-4.44.04-.28,0-.44-.09-.48-.13.04-1.09,1.45-2.88,4.24-1.04,1.64-2.09,3.27-3.13,4.89-.14.21-.3.32-.48.34-.06,0-.28-.02-.68-.08-.59-.08-.92-.22-1.01-.43-.46-1.16-1.05-2.83-1.77-5.02-.77-2.32-1.35-4-1.75-5.04-.02-.05-.06-.11-.13-.18-.09.08-.15.21-.18.41-.13.96-.29,2.4-.49,4.33-.2,1.93-.37,3.37-.5,4.33-.05.34-.23.49-.54.45l-5.65-.76c-.23-.03-.36-.08-.4-.15-.04-.07-.05-.18-.03-.34.14-1.07.42-2.66.82-4.79.41-2.12,1.68-3.72,1.82-4.79l4.58-10.19c1.25.13,1.18.24,1.8.32.12.02.27.25.44.69l3.68,10.08c.26.68.51,1.04.75,1.07.12.02.44-.32.94-1,1.41-1.91,3.52-4.78,6.3-8.62.24-.36.48-.52.7-.49.33.04.82.12,1.47.24l1.01,7.09Zm-21.64-9.51"/>
    <path id="detail" class="cls-6" d="m35.16,8.28c5.95,4.96,6.3,16.21.5,26.27-6.26,10.84-17.3,16.19-24.65,11.95-2.19-1.26-3.79-3.25-4.82-5.68,4.45-14.61,15.14-26.49,28.97-32.54Zm70.16,31.06c-4.03-11.94-12.26-21.93-22.94-28.23-3.25-.06-6.42.75-9.18,2.55-8.63,5.63-10.09,18.7-3.24,29.19,6.84,10.49,19.39,14.42,28.02,8.79,4.19-2.73,6.67-7.22,7.35-12.31Z"/>
    <ellipse id="shine" class="cls-7" cx="46.23" cy="27.79" rx="10.19" ry="8.53" transform="translate(14.44 71.37) rotate(-84.9)"/>
    <path id="detailshine" class="cls-5" d="m70.41,29.2c-2.25-5.16-.57-10.87,3.75-12.75s9.64.77,11.89,5.93c2.25,5.16.57,10.87-3.75,12.75s-9.64-.77-11.89-5.93Zm-54.79,6.27c3.26,1.88,8.19-.54,11-5.41s2.45-10.35-.81-12.23-8.19.54-11,5.41-2.45,10.35.81,12.23Z"/>
  </g>
</svg>