<?xml version="1.0" encoding="UTF-8"?>
<svg id="Layer_1" data-name="Layer 1" xmlns="http://www.w3.org/2000/svg" viewBox="0 0 112 112">
  <defs>
    <style>
      .cls-1 {
        fill: #fff;
      }

      .cls-2 {
        fill: #c1272d;
      }

      .cls-3 {
        fill: #e25749;
      }

      .cls-4 {
        fill: #bdccd4;
      }
    </style>
  </defs>
  <g id="POKEBALL">
    <circle id="blackoutline" cx="56" cy="56" r="56"/>
    <circle id="ballred" class="cls-2" cx="56" cy="56" r="52.07"/>
    <path id="whitebottom" class="cls-1" d="m63.96,85.92c-22.21,0-42.2-3.21-56.25-10.43,7.72,19.1,26.42,32.58,48.28,32.58,20.64,0,38.47-12.01,46.89-29.42-11.43,4.61-24.72,7.27-38.93,7.27Z"/>
    <path id="shadowbottom" class="cls-4" d="m63.96,85.92c-3.56,0-7.06-.09-10.49-.26-6.18,2.06-2.88,9.98-28.36,12.25,8.64,6.38,19.32,10.16,30.89,10.16,20.64,0,40.57-13.74,48.99-31.15-11.43,4.61-27.05,11.54-41.03,9Z"/>
    <path id="ballhighlight" class="cls-3" d="m4.29,53.49c8.79,9.78,21.53,15.93,35.71,15.93,26.51,0,48-21.49,48-48,0-2.27-.17-4.49-.47-6.68-8.72-6.67-19.62-10.64-31.45-10.64C28.26,4.1,5.57,26,4.29,53.49Z"/>
    <ellipse id="shine" class="cls-1" cx="32.59" cy="31.73" rx="14.33" ry="12" transform="translate(-10.41 46.57) rotate(-63.27)"/>
    <path id="blackdivide" d="m54.99,76.61c-.06.02-.11.05-.17.07-1.09-7.78-7.75-13.77-15.83-13.77-6.06,0-11.33,3.37-14.05,8.33h0c-11.05-.67-22.95-10.33-22.95-10.33l2.29,13.74c10.92,4.52,16.48,6.32,18.96,7.01,1.31,7.52,7.85,13.25,15.75,13.25,6.34,0,11.8-3.69,14.39-9.04,0,0,.01.02.01.02,35.4,2.98,48.6-7.98,51.86-9.06s3.74-15.92,3.74-15.92c-21.22,19-54,15.7-54,15.7Z"/>
    <circle id="outerwhite" class="cls-1" cx="38.99" cy="78.92" r="12"/>
    <circle id="blackring" cx="38.99" cy="78.92" r="8"/>
    <circle id="centerwhite" class="cls-1" cx="38.99" cy="78.92" r="6"/>
  </g>
</svg>