<?xml version="1.0" encoding="UTF-8"?>
<svg id="Layer_1" data-name="Layer 1" xmlns="http://www.w3.org/2000/svg" viewBox="0 0 112 112">
  <defs>
    <style>
      .cls-1 {
        fill: #fff;
      }

      .cls-2 {
        fill: #ceceef;
      }

      .cls-3 {
        fill: #c12000;
      }
    </style>
  </defs>
  <g id="PREMIER_BALL" data-name="PREMIER BALL">
    <circle id="blackoutline" cx="56" cy="56" r="56"/>
    <circle id="shadowbottom" class="cls-2" cx="56" cy="56" r="52.07"/>
    <path id="ballhighlight" class="cls-1" d="m4.36,52.8c8.79,9.78,21.53,15.93,35.71,15.93,26.51,0,48-21.49,48-48,0-2.27-.17-4.49-.47-6.68-8.72-6.67-19.62-10.64-31.45-10.64C28.33,3.41,5.64,25.31,4.36,52.8Z"/>
    <path id="reddivide" class="cls-3" d="m55.83,76.68c-1.1-8.33-8.21-14.76-16.84-14.76-6.59,0-12.29,3.75-15.11,9.23-7.72-.85-15.66-5.77-19.51-8.46.61,4.72,1.83,9.25,3.61,13.48,7.32,2.95,11.72,4.44,14.2,5.19,1.19,8.23,8.25,14.56,16.8,14.56,6.87,0,12.77-4.08,15.45-9.94,29.75,2.3,43.51-5.31,48.84-8.18,2.26-4.9,3.79-10.21,4.43-15.79-19.19,16.06-46.77,15.02-51.88,14.67Z"/>
    <circle id="outerwhite" class="cls-1" cx="38.99" cy="78.92" r="10.29"/>
    <circle id="blackring" cx="38.99" cy="78.92" r="8"/>
    <circle id="centerwhite" class="cls-1" cx="38.99" cy="78.92" r="6"/>
  </g>
</svg>