<?xml version="1.0" encoding="UTF-8"?>
<svg id="Layer_1" data-name="Layer 1" xmlns="http://www.w3.org/2000/svg" viewBox="0 0 112 112">
  <defs>
    <style>
      .cls-1 {
        fill: #fff;
      }

      .cls-2 {
        fill: #ffda00;
      }

      .cls-3 {
        fill: #1868aa;
      }

      .cls-4 {
        fill: #e9fbff;
        opacity: .53;
      }
    </style>
  </defs>
  <g id="QUICK_BALL" data-name="QUICK BALL">
    <circle id="blackoutline" cx="56" cy="56" r="56"/>
    <circle id="ballblue" class="cls-3" cx="56" cy="56" r="52.07"/>
    <path id="yellowdetail" class="cls-2" d="m76.99,76.92l-10-10c13.53-8.84,31.88-40.32,31.92-40.39-4.95-7.19-11.66-13.07-19.51-17.03l-29.07,41.5-9.34-9.08-7.46,6.15s-13.46-10.48,0-38.82c0,0-.39.1-1.06.3-9.69,4.92-17.62,12.77-22.65,22.39-1.83,16.97,9.55,27.81,9.55,27.81l-8.9,7.34,9.8,11.82-9.28,3,13.76,15.72c.11.08.22.17.33.25l8.46-2.97,7.46,9,8.52-6.39c5.04,2,21.1,8.22,24.44,7.36.7-.26,1.39-.53,2.07-.82,2.33-1.07,5.85-2.98,9.27-5.02,3.42-2.33,6.56-5.06,9.33-8.13-13.97,0-25.83-2.99-30.5-4.34l12.88-9.66Z"/>
    <path id="ballhighlight" class="cls-4" d="m4.29,53.49c8.79,9.78,21.53,15.93,35.71,15.93,26.51,0,48-21.49,48-48,0-2.27-.17-4.49-.47-6.68-8.72-6.67-19.62-10.64-31.45-10.64C28.26,4.1,5.57,26,4.29,53.49Z"/>
    <ellipse id="shine" class="cls-1" cx="32.59" cy="31.73" rx="11.61" ry="9.72" transform="translate(-10.41 46.57) rotate(-63.27)"/>
    <path id="blackdivide" d="m54.99,76.61c-.06.02-.11.05-.17.07-1.09-7.78-7.75-13.77-15.83-13.77-6.06,0-11.33,3.37-14.05,8.33h0c-11.05-.67-22.95-10.33-22.95-10.33l2.29,13.74c10.92,4.52,16.48,6.32,18.96,7.01,1.31,7.52,7.85,13.25,15.75,13.25,6.34,0,11.8-3.69,14.39-9.04,0,0,.01.02.01.02,35.4,2.98,48.6-7.98,51.86-9.06s3.74-15.92,3.74-15.92c-21.22,19-54,15.7-54,15.7Z"/>
    <circle id="outerwhite" class="cls-1" cx="38.99" cy="78.92" r="12"/>
    <circle id="blackring" cx="38.99" cy="78.92" r="8"/>
    <circle id="centerwhite" class="cls-1" cx="38.99" cy="78.92" r="6"/>
  </g>
</svg>