<?xml version="1.0" encoding="UTF-8"?>
<svg id="Ralts" xmlns="http://www.w3.org/2000/svg" viewBox="0 0 113.36 179.49">
  <defs>
    <style>
      .cls-1 {
        fill: #f4f4f5;
      }

      .cls-2 {
        fill: #9bcb4a;
      }

      .cls-3 {
        fill: #7b9c49;
      }

      .cls-4 {
        fill: #171717;
      }

      .cls-5 {
        fill: #e54b28;
      }
    </style>
  </defs>
  <path id="black_ralts" class="cls-4" d="M18.89,9.45H9.45V0h9.45V9.45ZM28.34,0h-9.45V9.45h9.45V0Zm9.45,9.45h-9.45v9.45h9.45V9.45Zm9.45,0h-9.45v9.45h9.45V9.45Zm9.45,9.45h-9.45v9.45h9.45v-9.45Zm9.45,0h-9.45v9.45h9.45v-9.45Zm9.45,0h-9.45v9.45h9.45v-9.45Zm9.45,9.45h-9.45v9.45h9.45v-9.45Zm9.45,0h-9.45v9.45h9.45v-9.45Zm9.45,9.45h-9.45v9.45h9.45v-9.45Zm0,9.45h-9.45v9.45h9.45v-9.45Zm9.45,9.45h-9.45v9.45h9.45v-9.45Zm0,9.45h-9.45v9.45h9.45v-9.45Zm0,9.45h-9.45v9.45h9.45v-9.45Zm-9.45,9.45h-9.45v9.45h9.45v-9.45ZM9.45,9.45H0v9.45H9.45V9.45Zm0,9.45H0v9.45H9.45v-9.45Zm9.45,9.45H9.45v9.45h9.45v-9.45Zm0,9.45H9.45v9.45h9.45v-9.45Zm9.45,9.45h-9.45v9.45h9.45v-9.45Zm9.45,9.45h-9.45v9.45h9.45v-9.45Zm-28.34-9.45H0v9.45H9.45v-9.45Zm0,9.45H0v9.45H9.45v-9.45Zm0,9.45H0v9.45H9.45v-9.45Zm9.45,9.45H9.45v9.45h9.45v-9.45Zm0,9.45H9.45v9.45h9.45v-9.45Zm9.38,9.45h-9.45v9.45h9.45v-9.45Zm9.45,9.45h-9.45v9.45h9.45v-9.45Zm56.74-9.45h-9.45v9.45h9.45v-9.45Zm-9.45,0h-9.45v9.45h9.45v-9.45Zm0,9.45h-9.45v9.45h9.45v-9.45Zm-9.45-9.45h-9.45v9.45h9.45v-9.45Zm-9.45,0h-9.45v9.45h9.45v-9.45Zm-9.45,0h-9.45v9.45h9.45v-9.45Zm18.96,18.89h-9.45v9.45h9.45v-9.45Zm-9.45,0h-9.45v9.45h9.45v-9.45Zm-9.45,0h-9.45v9.45h9.45v-9.45Zm-9.45,0h-9.45v9.45h9.45v-9.45Zm28.34,9.45h-9.45v9.45h9.45v-9.45Zm9.45,9.45h-9.45v9.45h9.45v-9.45Zm0,9.45h-9.45v9.45h9.45v-9.45Zm9.38,0h-9.45v9.45h9.45v-9.45Zm9.45,9.45h-9.45v9.45h9.45v-9.45Zm-18.86,9.45h-9.45v9.45h9.45v-9.45Zm9.38,0h-9.45v9.45h9.45v-9.45Zm-28.21,9.45h-9.45v9.45h9.45v-9.45Zm9.38,0h-9.45v9.45h9.45v-9.45Zm-18.83,0h-9.45v9.45h9.45v-9.45Zm-18.93-47.23h-9.45v9.45h9.45v-9.45Zm0,9.45h-9.45v9.45h9.45v-9.45Zm-9.41,9.45h-9.45v9.45h9.45v-9.45Zm0,9.45h-9.45v9.45h9.45v-9.45Zm9.45,9.45h-9.45v9.45h9.45v-9.45Zm9.45,0h-9.45v9.45h9.45v-9.45Zm28.28-9.45h-9.45v9.45h9.45v-9.45Zm-9.46-9.45h-9.45v9.45h9.45v-9.45Zm-28.36-56.68h-9.45v9.45h9.45v-9.45Z"/>
  <path id="white_ralts" class="cls-1" d="M37.85,103.91h-9.45v-9.45h9.45v9.45Zm9.45-9.45h-9.45v9.45h9.45v-9.45Zm0,9.45h-9.45v9.45h9.45v-9.45Zm9.45,0h-9.45v9.45h9.45v-9.45Zm9.45,0h-9.45v9.45h9.45v-9.45Zm9.45,0h-9.45v9.45h9.45v-9.45Zm-9.49,18.89h-9.45v9.45h9.45v-9.45Zm-9.4,0h-9.45v9.45h9.45v-9.45Zm-9.45,0h-9.45v9.45h9.45v-9.45Zm28.34,18.89h-9.45v9.45h9.45v-9.45Zm0-9.45h-9.45v9.45h9.45v-9.45Zm-9.49,0h-9.45v9.45h9.45v-9.45Zm-9.44,0h-9.45v9.45h9.45v-9.45Zm-9.43,0h-9.45v9.45h9.45v-9.45Zm37.81,18.89h-9.45v9.45h9.45v-9.45Zm9.38,0h-9.45v9.45h9.45v-9.45Zm-28.21,9.45h-9.45v9.45h9.45v-9.45Zm9.38,0h-9.45v9.45h9.45v-9.45Zm-18.8,0h-9.45v9.45h9.45v-9.45Zm9.38,0h-9.45v9.45h9.45v-9.45Zm-.05-9.46h-9.45v9.45h9.45v-9.45Zm-18.8,0h-9.45v9.45h9.45v-9.45Zm9.38,0h-9.45v9.45h9.45v-9.45Zm-.06,0h-9.45v9.45h9.45v-9.45Zm-18.8,0h-9.45v9.45h9.45v-9.45Zm9.38,0h-9.45v9.45h9.45v-9.45Zm9.4-9.43h-9.45v9.45h9.45v-9.45Zm-18.8,0h-9.45v9.45h9.45v-9.45Zm9.38,0h-9.45v9.45h9.45v-9.45Z"/>
  <path id="darkgreen_ralts" class="cls-3" d="M94.47,66.13h-9.45v-9.45h9.45v9.45Zm-9.48-9.45h-9.45v9.45h9.45v-9.45Zm-9.41,9.45h-9.45v9.45h9.45v-9.45Zm-9.45,9.45h-9.45v9.45h9.45v-9.45Zm-28.34-9.45h-9.45v9.45h9.45v-9.45Zm0,9.45h-9.45v9.45h9.45v-9.45Zm28.34,9.45h-9.45v9.45h9.45v-9.45Z"/>
  <path id="lightgreen_ralts" class="cls-2" d="M56.68,47.23h-9.45v-9.45h9.45v9.45Zm9.41-9.45h-9.45v9.45h9.45v-9.45Zm18.89,0h-9.45v9.45h9.45v-9.45Zm9.45,0h-9.45v9.45h9.45v-9.45Zm-18.86-9.45h-9.45v9.45h9.45v-9.45Zm-9.45,0h-9.45v9.45h9.45v-9.45Zm9.41,9.45h-9.45v9.45h9.45v-9.45Zm-18.89,9.45h-9.45v9.45h9.45v-9.45Zm-9.41,0h-9.45v9.45h9.45v-9.45Zm18.86,0h-9.45v9.45h9.45v-9.45Zm28.34,0h-9.45v9.45h9.45v-9.45Zm-9.45,0h-9.45v9.45h9.45v-9.45Zm-9.45,0h-9.45v9.45h9.45v-9.45Zm-18.89,9.45h-9.45v9.45h9.45v-9.45Zm-9.38,0h-9.45v9.45h9.45v-9.45Zm18.83,0h-9.45v9.45h9.45v-9.45Zm9.45,0h-9.45v9.45h9.45v-9.45Zm28.37,0h-9.45v9.45h9.45v-9.45Zm-47.23,9.45h-9.45v9.45h9.45v-9.45Zm-9.45,0h-9.45v9.45h9.45v-9.45Zm18.89,0h-9.45v9.45h9.45v-9.45Zm28.34,0h-9.45v9.45h9.45v-9.45Zm-9.45,0h-9.45v9.45h9.45v-9.45Zm18.89,0h-9.45v9.45h9.45v-9.45Zm-47.23,9.45h-9.45v9.45h9.45v-9.45Zm-9.45,0h-9.45v9.45h9.45v-9.45Zm47.23,0h-9.45v9.45h9.45v-9.45Zm-9.45,0h-9.45v9.45h9.45v-9.45Zm-9.45,0h-9.45v9.45h9.45v-9.45Zm28.34,0h-9.45v9.45h9.45v-9.45Zm-75.57-9.45h-9.45v9.45h9.45v-9.45Zm0,9.45h-9.45v9.45h9.45v-9.45Zm0,9.45h-9.45v9.45h9.45v-9.45Zm0-28.34h-9.45v9.45h9.45v-9.45Zm-9.45,0H9.45v9.45h9.45v-9.45Zm0,9.45H9.45v9.45h9.45v-9.45Zm0-18.89H9.45v9.45h9.45v-9.45Zm37.79,37.79h-9.45v9.45h9.45v-9.45Zm-9.45,0h-9.45v9.45h9.45v-9.45Zm47.23,0h-9.45v9.45h9.45v-9.45Zm-9.45,0h-9.45v9.45h9.45v-9.45Zm-9.45,0h-9.45v9.45h9.45v-9.45Z"/>
  <path id="red_ralts" class="cls-5" d="M18.89,18.89H9.45V9.45h9.45v9.45Zm9.45-9.45h-9.45v9.45h9.45V9.45Zm0,9.45h-9.45v9.45h9.45v-9.45Zm-9.45,0H9.45v9.45h9.45v-9.45Zm28.34,0h-9.45v9.45h9.45v-9.45Zm-9.45,0h-9.45v9.45h9.45v-9.45Zm0,9.45h-9.45v9.45h9.45v-9.45Zm-9.45,0h-9.45v9.45h9.45v-9.45Zm28.34,0h-9.45v9.45h9.45v-9.45Zm-9.45,0h-9.45v9.45h9.45v-9.45Zm-9.45,9.45h-9.45v9.45h9.45v-9.45Zm-9.45,0h-9.45v9.45h9.45v-9.45Zm18.89,0h-9.45v9.45h9.45v-9.45Zm-9.45,9.45h-9.45v9.45h9.45v-9.45Z"/>
</svg>