<?xml version="1.0" encoding="UTF-8"?>
<svg id="Shiny_Jirachi" data-name="Shiny Jirachi" xmlns="http://www.w3.org/2000/svg" viewBox="0 0 179.43 179.49">
  <defs>
    <style>
      .cls-1 {
        fill: #f36d4c;
      }

      .cls-2 {
        fill: #eede8b;
      }

      .cls-3 {
        fill: #d6c575;
      }

      .cls-4 {
        fill: #efd8d0;
      }

      .cls-5 {
        fill: #171717;
      }
    </style>
  </defs>
  <path id="black_shinyjirachi" class="cls-5" d="M56.68,9.45h-9.45V0h9.45V9.45ZM66.13,0h-9.45V9.45h9.45V0Zm-18.89,9.45h-9.45v9.45h9.45V9.45Zm0,9.45h-9.45v9.45h9.45v-9.45Zm0,9.45h-9.45v9.45h9.45v-9.45Zm0,9.45h-9.45v9.45h9.45v-9.45Zm18.89-28.34h-9.45v9.45h9.45V9.45Zm0,9.45h-9.45v9.45h9.45v-9.45Zm0,9.45h-9.45v9.45h9.45v-9.45Zm0,9.45h-9.45v9.45h9.45v-9.45Zm-9.45,0h-9.45v9.45h9.45v-9.45ZM75.57,0h-9.45V9.45h9.45V0Zm9.45,0h-9.45V9.45h9.45V0Zm9.45,9.45h-9.45v9.45h9.45V9.45Zm9.45,0h-9.45v9.45h9.45V9.45Zm9.45,9.45h-9.45v9.45h9.45v-9.45Zm9.45,9.45h-9.45v9.45h9.45v-9.45Zm0,9.45h-9.45v9.45h9.45v-9.45Zm9.45,0h-9.45v9.45h9.45v-9.45Zm9.45,9.45h-9.45v9.45h9.45v-9.45Zm9.45,0h-9.45v9.45h9.45v-9.45Zm9.35,9.45h-9.45v9.45h9.45v-9.45Zm0,9.45h-9.45v9.45h9.45v-9.45Zm9.45,9.45h-9.45v9.45h9.45v-9.45Zm-9.45,9.45h-9.45v9.45h9.45v-9.45Zm0,9.45h-9.45v9.45h9.45v-9.45Zm18.89-9.45h-9.45v9.45h9.45v-9.45Zm0,9.45h-9.45v9.45h9.45v-9.45Zm-18.89,9.45h-9.45v9.45h9.45v-9.45Zm0,9.45h-9.45v9.45h9.45v-9.45Zm9.45,0h-9.45v9.45h9.45v-9.45Zm9.45-9.45h-9.45v9.45h9.45v-9.45Zm0,9.45h-9.45v9.45h9.45v-9.45ZM28.34,28.34h-9.45v9.45h9.45v-9.45Zm9.45,0h-9.45v9.45h9.45v-9.45Zm-18.89,9.45H9.45v9.45h9.45v-9.45Zm0,9.45H9.45v9.45h9.45v-9.45Zm-9.45,9.45H0v9.45H9.45v-9.45Zm0,9.45H0v9.45H9.45v-9.45Zm18.89-9.45h-9.45v9.45h9.45v-9.45Zm0,9.45h-9.45v9.45h9.45v-9.45Zm-18.89,9.45H0v9.45H9.45v-9.45Zm0,9.45H0v9.45H9.45v-9.45Zm9.45,0H9.45v9.45h9.45v-9.45Zm9.45-9.45h-9.45v9.45h9.45v-9.45Zm9.37,.06h-9.45v9.45h9.45v-9.45Zm-9.37,9.38h-9.45v9.45h9.45v-9.45Zm9.47,9.45h-9.45v9.45h9.45v-9.45Zm9.36,0h-9.45v9.45h9.45v-9.45Zm0-9.45h-9.45v9.45h9.45v-9.45Zm9.45,0h-9.45v9.45h9.45v-9.45Zm0-9.45h-9.45v9.45h9.45v-9.45Zm0,28.34h-9.45v9.45h9.45v-9.45Zm-9.45,9.45h-9.45v9.45h9.45v-9.45Zm9.45,9.45h-9.45v9.45h9.45v-9.45Zm9.45-9.45h-9.45v9.45h9.45v-9.45Zm0,9.45h-9.45v9.45h9.45v-9.45Zm-18.89,0h-9.45v9.45h9.45v-9.45Zm9.51,9.45h-9.45v9.45h9.45v-9.45Zm9.38,9.45h-9.45v9.45h9.45v-9.45Zm-9.38,9.45h-9.45v9.45h9.45v-9.45Zm-9.45,0h-9.45v9.45h9.45v-9.45Zm-9.38-9.45h-9.45v9.45h9.45v-9.45Zm-9.45-9.45h-9.45v9.45h9.45v-9.45Zm9.45-9.45h-9.45v9.45h9.45v-9.45Zm37.66,9.45h-9.45v9.45h9.45v-9.45Zm0,9.45h-9.45v9.45h9.45v-9.45Zm9.45,0h-9.45v9.45h9.45v-9.45Zm9.45,0h-9.45v9.45h9.45v-9.45Zm-18.89-28.34h-9.45v9.45h9.45v-9.45Zm9.45,0h-9.45v9.45h9.45v-9.45Zm9.45,0h-9.45v9.45h9.45v-9.45Zm47.2-18.89h-9.45v9.45h9.45v-9.45Zm9.45,0h-9.45v9.45h9.45v-9.45Zm-28.36,28.34h-9.45v9.45h9.45v-9.45Zm9.45,0h-9.45v9.45h9.45v-9.45Zm9.45,0h-9.45v9.45h9.45v-9.45Zm9.43,9.45h-9.45v9.45h9.45v-9.45Zm9.51,9.45h-9.45v9.45h9.45v-9.45Zm9.45,0h-9.45v9.45h9.45v-9.45Zm9.45,9.45h-9.45v9.45h9.45v-9.45Zm-18.89,9.45h-9.45v9.45h9.45v-9.45Zm9.45,0h-9.45v9.45h9.45v-9.45Zm-28.34,9.45h-9.45v9.45h9.45v-9.45Zm9.45,0h-9.45v9.45h9.45v-9.45Zm-18.89-9.45h-9.45v9.45h9.45v-9.45Zm0-9.45h-9.45v9.45h9.45v-9.45Zm-18.89-9.45h-9.45v9.45h9.45v-9.45Zm9.45,0h-9.45v9.45h9.45v-9.45Zm-18.89,9.45h-9.45v9.45h9.45v-9.45Zm-18.89-66.13h-9.45v9.45h9.45v-9.45Zm0,9.45h-9.45v9.45h9.45v-9.45Zm28.39-47.23h-9.45v9.45h9.45v-9.45Zm-.08,56.68h-9.45v9.45h9.45v-9.45Zm0-9.45h-9.45v9.45h9.45v-9.45Zm-9.45,9.45h-9.45v9.45h9.45v-9.45Zm28.34,0h-9.45v9.45h9.45v-9.45Zm-9.45,0h-9.45v9.45h9.45v-9.45Zm-9.45,9.45h-9.45v9.45h9.45v-9.45Zm0,18.89h-9.45v9.45h9.45v-9.45Zm-9.45,0h-9.45v9.45h9.45v-9.45Z"/>
  <path id="tan_shinyjirachi" class="cls-4" d="M56.62,103.91h-9.45v-9.45h9.45v9.45Zm18.89-18.89h-9.45v9.45h9.45v-9.45Zm0-9.45h-9.45v9.45h9.45v-9.45Zm-9.45,9.45h-9.45v9.45h9.45v-9.45Zm0-9.45h-9.45v9.45h9.45v-9.45Zm28.34,9.45h-9.45v9.45h9.45v-9.45Zm-9.45-9.45h-9.45v9.45h9.45v-9.45Zm-9.45,28.34h-9.45v9.45h9.45v-9.45Zm0-9.45h-9.45v9.45h9.45v-9.45Zm-9.45,9.45h-9.45v9.45h9.45v-9.45Zm0-9.45h-9.45v9.45h9.45v-9.45Zm28.34,9.45h-9.45v9.45h9.45v-9.45Zm0-9.45h-9.45v9.45h9.45v-9.45Zm-9.45,9.45h-9.45v9.45h9.45v-9.45Zm9.45,18.89h-9.45v9.45h9.45v-9.45Zm0,9.45h-9.45v9.45h9.45v-9.45Zm-9.45,0h-9.45v9.45h9.45v-9.45Zm18.89-9.45h-9.45v9.45h9.45v-9.45Zm0-9.45h-9.45v9.45h9.45v-9.45Zm0,28.34h-9.45v9.45h9.45v-9.45Zm9.41-18.89h-9.45v9.45h9.45v-9.45Zm-47.2,9.45h-9.45v9.45h9.45v-9.45Zm-9.45-18.89h-9.45v9.45h9.45v-9.45Z"/>
  <path id="yellow_shinyjirachi" class="cls-2" d="M47.16,75.57h-9.45v-9.45h9.45v9.45Zm0,0h-9.45v9.45h9.45v-9.45Zm9.46-18.89h-9.45v9.45h9.45v-9.45Zm9.41,0h-9.45v9.45h9.45v-9.45Zm-37.68-9.45h-9.45v9.45h9.45v-9.45Zm9.41,0h-9.45v9.45h9.45v-9.45Zm18.9,0h-9.45v9.45h9.45v-9.45Zm-28.3-9.45h-9.45v9.45h9.45v-9.45Zm9.41,0h-9.45v9.45h9.45v-9.45Zm28.34,9.45h-9.45v9.45h9.45v-9.45Zm9.44,0h-9.45v9.45h9.45v-9.45Zm9.47,0h-9.45v9.45h9.45v-9.45Zm9.41,0h-9.45v9.45h9.45v-9.45Zm28.35,0h-9.45v9.45h9.45v-9.45Zm9.44,0h-9.45v9.45h9.45v-9.45Zm-94.43,9.45h-9.45v9.45h9.45v-9.45Zm47.23-18.89h-9.45v9.45h9.45v-9.45Zm-9.45,0h-9.45v9.45h9.45v-9.45Zm18.86,0h-9.45v9.45h9.45v-9.45Zm-9.43-9.45h-9.45v9.45h9.45v-9.45Zm-9.45,0h-9.45v9.45h9.45v-9.45Zm9.44-9.45h-9.45v9.45h9.45v-9.45Zm-9.45,0h-9.45v9.45h9.45v-9.45Zm9.47-9.45h-9.45v9.45h9.45V9.45Zm-9.45,0h-9.45v9.45h9.45V9.45Zm-.1,47.23h-9.45v9.45h9.45v-9.45Zm9.47,0h-9.45v9.45h9.45v-9.45Zm9.41,0h-9.45v9.45h9.45v-9.45Zm18.9,0h-9.45v9.45h9.45v-9.45Zm9.46,0h-9.45v9.45h9.45v-9.45Zm9.44,0h-9.45v9.45h9.45v-9.45Zm-47.2,9.45h-9.45v9.45h9.45v-9.45Zm9.41,0h-9.45v9.45h9.45v-9.45Zm9.46,0h-9.45v9.45h9.45v-9.45Zm9.43,0h-9.45v9.45h9.45v-9.45Zm9.46,0h-9.45v9.45h9.45v-9.45Zm9.44,0h-9.45v9.45h9.45v-9.45Zm9.44-9.45h-9.45v9.45h9.45v-9.45Zm0,9.45h-9.45v9.45h9.45v-9.45Zm9.44,0h-9.45v9.45h9.45v-9.45Zm-37.79,9.45h-9.45v9.45h9.45v-9.45Zm-9.45,9.45h-9.45v9.45h9.45v-9.45Zm0-9.45h-9.45v9.45h9.45v-9.45Zm28.34,9.45h-9.45v9.45h9.45v-9.45Zm0-9.45h-9.45v9.45h9.45v-9.45Zm-9.45,9.45h-9.45v9.45h9.45v-9.45Zm0-9.45h-9.45v9.45h9.45v-9.45Zm-18.89,18.89h-9.45v9.45h9.45v-9.45Zm18.89,0h-9.45v9.45h9.45v-9.45Zm18.89-18.89h-9.45v9.45h9.45v-9.45Zm9.44,0h-9.45v9.45h9.45v-9.45Zm9.46,0h-9.45v9.45h9.45v-9.45Zm-18.9,9.45h-9.45v9.45h9.45v-9.45Zm-66.09,37.79h-9.45v9.45h9.45v-9.45Zm9.48,0h-9.45v9.45h9.45v-9.45Zm56.6,9.45h-9.45v9.45h9.45v-9.45Zm-9.45,0h-9.45v9.45h9.45v-9.45Zm-84.97,9.45h-9.45v9.45h9.45v-9.45Zm9.45,0h-9.45v9.45h9.45v-9.45Zm-18.77-9.45h-9.45v9.45h9.45v-9.45Zm9.45,0h-9.45v9.45h9.45v-9.45Zm84.91,9.45h-9.45v9.45h9.45v-9.45Zm18.86,0h-9.45v9.45h9.45v-9.45Zm-9.45,0h-9.45v9.45h9.45v-9.45Zm.03,9.45h-9.45v9.45h9.45v-9.45Zm18.86,0h-9.45v9.45h9.45v-9.45Zm-9.45,0h-9.45v9.45h9.45v-9.45Zm18.93,0h-9.45v9.45h9.45v-9.45Zm-28.32,9.45h-9.45v9.45h9.45v-9.45Zm9.41,0h-9.45v9.45h9.45v-9.45Z"/>
  <path id="gold_shinyjirachi" class="cls-3" d="M94.4,85.02h-9.45v-9.45h9.45v9.45Zm-37.77-18.89h-9.45v9.45h9.45v-9.45Zm-9.47-9.45h-9.45v9.45h9.45v-9.45Zm.08-9.45h-9.45v9.45h9.45v-9.45Zm18.8,18.89h-9.45v9.45h9.45v-9.45Zm37.88-18.89h-9.45v9.45h9.45v-9.45ZM37.81,85.02h-9.45v9.45h9.45v-9.45Zm0-18.89h-9.45v9.45h9.45v-9.45Zm66.1-28.34h-9.45v9.45h9.45v-9.45Zm9.43,0h-9.45v9.45h9.45v-9.45Zm-18.91-9.45h-9.45v9.45h9.45v-9.45Zm9.46,0h-9.45v9.45h9.45v-9.45Zm9.43,0h-9.45v9.45h9.45v-9.45Zm-18.9-9.45h-9.45v9.45h9.45v-9.45Zm9.46,0h-9.45v9.45h9.45v-9.45Zm-.06,37.79h-9.45v9.45h9.45v-9.45Zm-28.34,9.45h-9.45v9.45h9.45v-9.45Zm75.55-9.45h-9.45v9.45h9.45v-9.45Zm-37.78,28.34h-9.45v9.45h9.45v-9.45Zm18.89,9.45h-9.45v9.45h9.45v-9.45Zm18.88-9.45h-9.45v9.45h9.45v-9.45Zm-28.31,47.23h-9.45v9.45h9.45v-9.45Z"/>
  <path id="orange_shinyjirachi" class="cls-1" d="M56.68,18.89h-9.45V9.45h9.45v9.45Zm0,0h-9.45v9.45h9.45v-9.45Zm0,9.45h-9.45v9.45h9.45v-9.45ZM18.89,56.68H9.45v9.45h9.45v-9.45Zm0,9.45H9.45v9.45h9.45v-9.45Zm0,9.45H9.45v9.45h9.45v-9.45Zm151.05,9.45h-9.45v9.45h9.45v-9.45Zm0,9.45h-9.45v9.45h9.45v-9.45Zm0,9.45h-9.45v9.45h9.45v-9.45Z"/>
</svg>